ISO-10303-21;
HEADER;
/* Generated by software containing ST-Developer
 * from STEP Tools, Inc. (www.steptools.com) 
 */

FILE_DESCRIPTION(
/* description */ (''),
/* implementation_level */ '2;1');

FILE_NAME(
/* name */ '18650 - Battery.step',
/* time_stamp */ '2026-03-11T21:43:42-05:00',
/* author */ (''),
/* organization */ (''),
/* preprocessor_version */ 'ST-DEVELOPER v20.1',
/* originating_system */ 'Autodesk Translation Framework v14.24.0.0',
/* authorisation */ '');

FILE_SCHEMA (('AUTOMOTIVE_DESIGN { 1 0 10303 214 3 1 1 }'));
ENDSEC;

DATA;
#10=MECHANICAL_DESIGN_GEOMETRIC_PRESENTATION_REPRESENTATION('',(#14,#15,
#16,#17,#18),#288);
#11=SHAPE_REPRESENTATION_RELATIONSHIP('SRR','None',#295,#12);
#12=ADVANCED_BREP_SHAPE_REPRESENTATION('',(#13),#287);
#13=MANIFOLD_SOLID_BREP('Body1',#150);
#14=STYLED_ITEM('',(#306),#145);
#15=STYLED_ITEM('',(#306),#146);
#16=STYLED_ITEM('',(#306),#147);
#17=STYLED_ITEM('',(#306),#149);
#18=STYLED_ITEM('',(#305),#13);
#19=FACE_BOUND('',#47,.T.);
#20=FACE_BOUND('',#50,.T.);
#21=PLANE('',#172);
#22=PLANE('',#177);
#23=PLANE('',#185);
#24=PLANE('',#188);
#25=LINE('',#255,#28);
#26=LINE('',#278,#29);
#27=LINE('',#282,#30);
#28=VECTOR('',#203,9.25);
#29=VECTOR('',#234,3.);
#30=VECTOR('',#239,5.25);
#31=CYLINDRICAL_SURFACE('',#169,9.25);
#32=CYLINDRICAL_SURFACE('',#184,3.);
#33=CYLINDRICAL_SURFACE('',#186,5.25);
#34=FACE_OUTER_BOUND('',#44,.T.);
#35=FACE_OUTER_BOUND('',#45,.T.);
#36=FACE_OUTER_BOUND('',#46,.T.);
#37=FACE_OUTER_BOUND('',#48,.T.);
#38=FACE_OUTER_BOUND('',#49,.T.);
#39=FACE_OUTER_BOUND('',#51,.T.);
#40=FACE_OUTER_BOUND('',#52,.T.);
#41=FACE_OUTER_BOUND('',#53,.T.);
#42=FACE_OUTER_BOUND('',#54,.T.);
#43=FACE_OUTER_BOUND('',#55,.T.);
#44=EDGE_LOOP('',(#101,#102,#103,#104,#105));
#45=EDGE_LOOP('',(#106,#107,#108,#109,#110,#111));
#46=EDGE_LOOP('',(#112));
#47=EDGE_LOOP('',(#113));
#48=EDGE_LOOP('',(#114,#115,#116,#117,#118));
#49=EDGE_LOOP('',(#119));
#50=EDGE_LOOP('',(#120));
#51=EDGE_LOOP('',(#121,#122,#123,#124,#125));
#52=EDGE_LOOP('',(#126,#127,#128,#129,#130));
#53=EDGE_LOOP('',(#131));
#54=EDGE_LOOP('',(#132,#133,#134,#135));
#55=EDGE_LOOP('',(#136));
#56=CIRCLE('',#165,8.5);
#57=CIRCLE('',#166,0.75);
#58=CIRCLE('',#167,9.25);
#59=CIRCLE('',#168,9.25);
#60=CIRCLE('',#170,9.25);
#61=CIRCLE('',#171,9.25);
#62=CIRCLE('',#173,5.25);
#63=CIRCLE('',#175,0.75);
#64=CIRCLE('',#176,8.5);
#65=CIRCLE('',#178,3.);
#66=CIRCLE('',#180,2.75);
#67=CIRCLE('',#181,0.25);
#68=CIRCLE('',#182,3.);
#69=CIRCLE('',#183,3.);
#70=CIRCLE('',#187,5.25);
#71=VERTEX_POINT('',#246);
#72=VERTEX_POINT('',#248);
#73=VERTEX_POINT('',#250);
#74=VERTEX_POINT('',#254);
#75=VERTEX_POINT('',#256);
#76=VERTEX_POINT('',#260);
#77=VERTEX_POINT('',#263);
#78=VERTEX_POINT('',#267);
#79=VERTEX_POINT('',#270);
#80=VERTEX_POINT('',#272);
#81=VERTEX_POINT('',#274);
#82=VERTEX_POINT('',#281);
#83=EDGE_CURVE('',#71,#71,#56,.T.);
#84=EDGE_CURVE('',#71,#72,#57,.T.);
#85=EDGE_CURVE('',#72,#73,#58,.T.);
#86=EDGE_CURVE('',#73,#72,#59,.T.);
#87=EDGE_CURVE('',#73,#74,#25,.T.);
#88=EDGE_CURVE('',#75,#74,#60,.T.);
#89=EDGE_CURVE('',#74,#75,#61,.T.);
#90=EDGE_CURVE('',#76,#76,#62,.T.);
#91=EDGE_CURVE('',#75,#77,#63,.T.);
#92=EDGE_CURVE('',#77,#77,#64,.T.);
#93=EDGE_CURVE('',#78,#78,#65,.T.);
#94=EDGE_CURVE('',#79,#79,#66,.T.);
#95=EDGE_CURVE('',#79,#80,#67,.T.);
#96=EDGE_CURVE('',#80,#81,#68,.T.);
#97=EDGE_CURVE('',#81,#80,#69,.T.);
#98=EDGE_CURVE('',#81,#78,#26,.T.);
#99=EDGE_CURVE('',#76,#82,#27,.T.);
#100=EDGE_CURVE('',#82,#82,#70,.T.);
#101=ORIENTED_EDGE('',*,*,#83,.T.);
#102=ORIENTED_EDGE('',*,*,#84,.T.);
#103=ORIENTED_EDGE('',*,*,#85,.T.);
#104=ORIENTED_EDGE('',*,*,#86,.T.);
#105=ORIENTED_EDGE('',*,*,#84,.F.);
#106=ORIENTED_EDGE('',*,*,#86,.F.);
#107=ORIENTED_EDGE('',*,*,#87,.T.);
#108=ORIENTED_EDGE('',*,*,#88,.F.);
#109=ORIENTED_EDGE('',*,*,#89,.F.);
#110=ORIENTED_EDGE('',*,*,#87,.F.);
#111=ORIENTED_EDGE('',*,*,#85,.F.);
#112=ORIENTED_EDGE('',*,*,#83,.F.);
#113=ORIENTED_EDGE('',*,*,#90,.T.);
#114=ORIENTED_EDGE('',*,*,#89,.T.);
#115=ORIENTED_EDGE('',*,*,#91,.T.);
#116=ORIENTED_EDGE('',*,*,#92,.T.);
#117=ORIENTED_EDGE('',*,*,#91,.F.);
#118=ORIENTED_EDGE('',*,*,#88,.T.);
#119=ORIENTED_EDGE('',*,*,#92,.F.);
#120=ORIENTED_EDGE('',*,*,#93,.T.);
#121=ORIENTED_EDGE('',*,*,#94,.T.);
#122=ORIENTED_EDGE('',*,*,#95,.T.);
#123=ORIENTED_EDGE('',*,*,#96,.T.);
#124=ORIENTED_EDGE('',*,*,#97,.T.);
#125=ORIENTED_EDGE('',*,*,#95,.F.);
#126=ORIENTED_EDGE('',*,*,#97,.F.);
#127=ORIENTED_EDGE('',*,*,#98,.T.);
#128=ORIENTED_EDGE('',*,*,#93,.F.);
#129=ORIENTED_EDGE('',*,*,#98,.F.);
#130=ORIENTED_EDGE('',*,*,#96,.F.);
#131=ORIENTED_EDGE('',*,*,#94,.F.);
#132=ORIENTED_EDGE('',*,*,#90,.F.);
#133=ORIENTED_EDGE('',*,*,#99,.T.);
#134=ORIENTED_EDGE('',*,*,#100,.T.);
#135=ORIENTED_EDGE('',*,*,#99,.F.);
#136=ORIENTED_EDGE('',*,*,#100,.F.);
#137=TOROIDAL_SURFACE('',#164,8.5,0.75);
#138=TOROIDAL_SURFACE('',#174,8.5,0.75);
#139=TOROIDAL_SURFACE('',#179,2.75,0.25);
#140=ADVANCED_FACE('',(#34),#137,.T.);
#141=ADVANCED_FACE('',(#35),#31,.T.);
#142=ADVANCED_FACE('',(#36,#19),#21,.T.);
#143=ADVANCED_FACE('',(#37),#138,.T.);
#144=ADVANCED_FACE('',(#38,#20),#22,.F.);
#145=ADVANCED_FACE('',(#39),#139,.T.);
#146=ADVANCED_FACE('',(#40),#32,.T.);
#147=ADVANCED_FACE('',(#41),#23,.T.);
#148=ADVANCED_FACE('',(#42),#33,.F.);
#149=ADVANCED_FACE('',(#43),#24,.T.);
#150=CLOSED_SHELL('',(#140,#141,#142,#143,#144,#145,#146,#147,#148,#149));
#151=DERIVED_UNIT_ELEMENT(#153,1.);
#152=DERIVED_UNIT_ELEMENT(#290,-3.);
#153=(
MASS_UNIT()
NAMED_UNIT(*)
SI_UNIT(.KILO.,.GRAM.)
);
#154=DERIVED_UNIT((#151,#152));
#155=MEASURE_REPRESENTATION_ITEM('density measure',
POSITIVE_RATIO_MEASURE(7850.),#154);
#156=PROPERTY_DEFINITION_REPRESENTATION(#161,#158);
#157=PROPERTY_DEFINITION_REPRESENTATION(#162,#159);
#158=REPRESENTATION('material name',(#160),#287);
#159=REPRESENTATION('density',(#155),#287);
#160=DESCRIPTIVE_REPRESENTATION_ITEM('Steel','Steel');
#161=PROPERTY_DEFINITION('material property','material name',#297);
#162=PROPERTY_DEFINITION('material property','density of part',#297);
#163=AXIS2_PLACEMENT_3D('',#244,#189,#190);
#164=AXIS2_PLACEMENT_3D('',#245,#191,#192);
#165=AXIS2_PLACEMENT_3D('',#247,#193,#194);
#166=AXIS2_PLACEMENT_3D('',#249,#195,#196);
#167=AXIS2_PLACEMENT_3D('',#251,#197,#198);
#168=AXIS2_PLACEMENT_3D('',#252,#199,#200);
#169=AXIS2_PLACEMENT_3D('',#253,#201,#202);
#170=AXIS2_PLACEMENT_3D('',#257,#204,#205);
#171=AXIS2_PLACEMENT_3D('',#258,#206,#207);
#172=AXIS2_PLACEMENT_3D('',#259,#208,#209);
#173=AXIS2_PLACEMENT_3D('',#261,#210,#211);
#174=AXIS2_PLACEMENT_3D('',#262,#212,#213);
#175=AXIS2_PLACEMENT_3D('',#264,#214,#215);
#176=AXIS2_PLACEMENT_3D('',#265,#216,#217);
#177=AXIS2_PLACEMENT_3D('',#266,#218,#219);
#178=AXIS2_PLACEMENT_3D('',#268,#220,#221);
#179=AXIS2_PLACEMENT_3D('',#269,#222,#223);
#180=AXIS2_PLACEMENT_3D('',#271,#224,#225);
#181=AXIS2_PLACEMENT_3D('',#273,#226,#227);
#182=AXIS2_PLACEMENT_3D('',#275,#228,#229);
#183=AXIS2_PLACEMENT_3D('',#276,#230,#231);
#184=AXIS2_PLACEMENT_3D('',#277,#232,#233);
#185=AXIS2_PLACEMENT_3D('',#279,#235,#236);
#186=AXIS2_PLACEMENT_3D('',#280,#237,#238);
#187=AXIS2_PLACEMENT_3D('',#283,#240,#241);
#188=AXIS2_PLACEMENT_3D('',#284,#242,#243);
#189=DIRECTION('axis',(0.,0.,1.));
#190=DIRECTION('refdir',(1.,0.,0.));
#191=DIRECTION('center_axis',(1.,0.,0.));
#192=DIRECTION('ref_axis',(0.,0.,-1.));
#193=DIRECTION('center_axis',(-1.,0.,0.));
#194=DIRECTION('ref_axis',(0.,1.,0.));
#195=DIRECTION('center_axis',(0.,-1.,-1.22464679914735E-16));
#196=DIRECTION('ref_axis',(0.,-1.22464679914735E-16,1.));
#197=DIRECTION('center_axis',(1.,0.,0.));
#198=DIRECTION('ref_axis',(0.,1.,0.));
#199=DIRECTION('center_axis',(1.,0.,0.));
#200=DIRECTION('ref_axis',(0.,1.,0.));
#201=DIRECTION('center_axis',(1.,0.,0.));
#202=DIRECTION('ref_axis',(0.,1.,0.));
#203=DIRECTION('',(-1.,0.,0.));
#204=DIRECTION('center_axis',(-1.,0.,0.));
#205=DIRECTION('ref_axis',(0.,1.,0.));
#206=DIRECTION('center_axis',(-1.,0.,0.));
#207=DIRECTION('ref_axis',(0.,1.,0.));
#208=DIRECTION('center_axis',(1.,0.,0.));
#209=DIRECTION('ref_axis',(0.,1.,0.));
#210=DIRECTION('center_axis',(-1.,0.,0.));
#211=DIRECTION('ref_axis',(0.,1.,0.));
#212=DIRECTION('center_axis',(1.,0.,0.));
#213=DIRECTION('ref_axis',(0.,0.,-1.));
#214=DIRECTION('center_axis',(0.,-1.,-1.22464679914735E-16));
#215=DIRECTION('ref_axis',(0.,-1.22464679914735E-16,1.));
#216=DIRECTION('center_axis',(1.,0.,0.));
#217=DIRECTION('ref_axis',(0.,1.,0.));
#218=DIRECTION('center_axis',(1.,0.,0.));
#219=DIRECTION('ref_axis',(0.,1.,0.));
#220=DIRECTION('center_axis',(1.,0.,0.));
#221=DIRECTION('ref_axis',(0.,-1.,0.));
#222=DIRECTION('center_axis',(-1.,0.,0.));
#223=DIRECTION('ref_axis',(0.,0.,1.));
#224=DIRECTION('center_axis',(1.,0.,0.));
#225=DIRECTION('ref_axis',(0.,-1.,0.));
#226=DIRECTION('center_axis',(0.,-1.,1.22464679914735E-16));
#227=DIRECTION('ref_axis',(0.,-1.22464679914735E-16,-1.));
#228=DIRECTION('center_axis',(-1.,0.,0.));
#229=DIRECTION('ref_axis',(0.,-1.,0.));
#230=DIRECTION('center_axis',(-1.,0.,0.));
#231=DIRECTION('ref_axis',(0.,-1.,0.));
#232=DIRECTION('center_axis',(-1.,0.,0.));
#233=DIRECTION('ref_axis',(0.,-1.,0.));
#234=DIRECTION('',(1.,0.,0.));
#235=DIRECTION('center_axis',(-1.,0.,0.));
#236=DIRECTION('ref_axis',(0.,-1.,0.));
#237=DIRECTION('center_axis',(-1.,0.,0.));
#238=DIRECTION('ref_axis',(0.,1.,0.));
#239=DIRECTION('',(-1.,0.,0.));
#240=DIRECTION('center_axis',(-1.,0.,0.));
#241=DIRECTION('ref_axis',(0.,1.,0.));
#242=DIRECTION('center_axis',(1.,0.,0.));
#243=DIRECTION('ref_axis',(0.,1.,0.));
#244=CARTESIAN_POINT('',(0.,0.,0.));
#245=CARTESIAN_POINT('Origin',(68.25,0.,0.));
#246=CARTESIAN_POINT('',(69.,-1.04094977927525E-15,8.5));
#247=CARTESIAN_POINT('Origin',(69.,0.,0.));
#248=CARTESIAN_POINT('',(68.25,-1.1327982892113E-15,9.25));
#249=CARTESIAN_POINT('Origin',(68.25,-1.04094977927525E-15,8.5));
#250=CARTESIAN_POINT('',(68.25,-9.25,-1.1327982892113E-15));
#251=CARTESIAN_POINT('Origin',(68.25,0.,0.));
#252=CARTESIAN_POINT('Origin',(68.25,0.,0.));
#253=CARTESIAN_POINT('Origin',(0.,0.,0.));
#254=CARTESIAN_POINT('',(0.75,-9.25,1.1327982892113E-15));
#255=CARTESIAN_POINT('',(0.,-9.25,-1.1327982892113E-15));
#256=CARTESIAN_POINT('',(0.75,-1.1327982892113E-15,9.25));
#257=CARTESIAN_POINT('Origin',(0.75,0.,0.));
#258=CARTESIAN_POINT('Origin',(0.75,0.,0.));
#259=CARTESIAN_POINT('Origin',(69.,0.,0.));
#260=CARTESIAN_POINT('',(69.,-5.25,-6.42939569552361E-16));
#261=CARTESIAN_POINT('Origin',(69.,0.,0.));
#262=CARTESIAN_POINT('Origin',(0.75,0.,0.));
#263=CARTESIAN_POINT('',(0.,-1.04094977927525E-15,8.5));
#264=CARTESIAN_POINT('Origin',(0.75,-1.04094977927525E-15,8.5));
#265=CARTESIAN_POINT('Origin',(0.,0.,0.));
#266=CARTESIAN_POINT('Origin',(0.,0.,0.));
#267=CARTESIAN_POINT('',(0.,3.,-3.67394039744206E-16));
#268=CARTESIAN_POINT('Origin',(0.,0.,0.));
#269=CARTESIAN_POINT('Origin',(-1.25,0.,0.));
#270=CARTESIAN_POINT('',(-1.5,-3.36777869765522E-16,-2.75));
#271=CARTESIAN_POINT('Origin',(-1.5,0.,0.));
#272=CARTESIAN_POINT('',(-1.25,-3.67394039744206E-16,-3.));
#273=CARTESIAN_POINT('Origin',(-1.25,-3.36777869765522E-16,-2.75));
#274=CARTESIAN_POINT('',(-1.25,3.,-3.67394039744206E-16));
#275=CARTESIAN_POINT('Origin',(-1.25,0.,0.));
#276=CARTESIAN_POINT('Origin',(-1.25,0.,0.));
#277=CARTESIAN_POINT('Origin',(0.,0.,0.));
#278=CARTESIAN_POINT('',(0.,3.,-3.67394039744206E-16));
#279=CARTESIAN_POINT('Origin',(-1.5,0.,0.));
#280=CARTESIAN_POINT('Origin',(69.,0.,0.));
#281=CARTESIAN_POINT('',(68.98,-5.25,-6.42939569552361E-16));
#282=CARTESIAN_POINT('',(69.,-5.25,6.42939569552361E-16));
#283=CARTESIAN_POINT('Origin',(68.98,0.,0.));
#284=CARTESIAN_POINT('Origin',(68.98,0.,0.));
#285=UNCERTAINTY_MEASURE_WITH_UNIT(LENGTH_MEASURE(0.01),#289,
'DISTANCE_ACCURACY_VALUE',
'Maximum model space distance between geometric entities at asserted c
onnectivities');
#286=UNCERTAINTY_MEASURE_WITH_UNIT(LENGTH_MEASURE(0.01),#289,
'DISTANCE_ACCURACY_VALUE',
'Maximum model space distance between geometric entities at asserted c
onnectivities');
#287=(
GEOMETRIC_REPRESENTATION_CONTEXT(3)
GLOBAL_UNCERTAINTY_ASSIGNED_CONTEXT((#285))
GLOBAL_UNIT_ASSIGNED_CONTEXT((#289,#291,#292))
REPRESENTATION_CONTEXT('','3D')
);
#288=(
GEOMETRIC_REPRESENTATION_CONTEXT(3)
GLOBAL_UNCERTAINTY_ASSIGNED_CONTEXT((#286))
GLOBAL_UNIT_ASSIGNED_CONTEXT((#289,#291,#292))
REPRESENTATION_CONTEXT('','3D')
);
#289=(
LENGTH_UNIT()
NAMED_UNIT(*)
SI_UNIT(.MILLI.,.METRE.)
);
#290=(
LENGTH_UNIT()
NAMED_UNIT(*)
SI_UNIT($,.METRE.)
);
#291=(
NAMED_UNIT(*)
PLANE_ANGLE_UNIT()
SI_UNIT($,.RADIAN.)
);
#292=(
NAMED_UNIT(*)
SI_UNIT($,.STERADIAN.)
SOLID_ANGLE_UNIT()
);
#293=SHAPE_DEFINITION_REPRESENTATION(#294,#295);
#294=PRODUCT_DEFINITION_SHAPE('',$,#297);
#295=SHAPE_REPRESENTATION('',(#163),#287);
#296=PRODUCT_DEFINITION_CONTEXT('part definition',#301,'design');
#297=PRODUCT_DEFINITION('(Unsaved)','(Unsaved)',#298,#296);
#298=PRODUCT_DEFINITION_FORMATION('',$,#303);
#299=PRODUCT_RELATED_PRODUCT_CATEGORY('(Unsaved)','(Unsaved)',(#303));
#300=APPLICATION_PROTOCOL_DEFINITION('international standard',
'automotive_design',2009,#301);
#301=APPLICATION_CONTEXT(
'Core Data for Automotive Mechanical Design Process');
#302=PRODUCT_CONTEXT('part definition',#301,'mechanical');
#303=PRODUCT('(Unsaved)','(Unsaved)',$,(#302));
#304=PRESENTATION_STYLE_ASSIGNMENT((#307));
#305=PRESENTATION_STYLE_ASSIGNMENT((#308));
#306=PRESENTATION_STYLE_ASSIGNMENT((#309));
#307=SURFACE_STYLE_USAGE(.BOTH.,#310);
#308=SURFACE_STYLE_USAGE(.BOTH.,#311);
#309=SURFACE_STYLE_USAGE(.BOTH.,#312);
#310=SURFACE_SIDE_STYLE('',(#313));
#311=SURFACE_SIDE_STYLE('',(#314));
#312=SURFACE_SIDE_STYLE('',(#315));
#313=SURFACE_STYLE_FILL_AREA(#316);
#314=SURFACE_STYLE_FILL_AREA(#317);
#315=SURFACE_STYLE_FILL_AREA(#318);
#316=FILL_AREA_STYLE('Steel - Satin',(#319));
#317=FILL_AREA_STYLE('Plastic - Matte (Blue)',(#320));
#318=FILL_AREA_STYLE('Silver - Satin',(#321));
#319=FILL_AREA_STYLE_COLOUR('Steel - Satin',#322);
#320=FILL_AREA_STYLE_COLOUR('Plastic - Matte (Blue)',#323);
#321=FILL_AREA_STYLE_COLOUR('Silver - Satin',#324);
#322=COLOUR_RGB('Steel - Satin',0.627450980392157,0.627450980392157,0.627450980392157);
#323=COLOUR_RGB('Plastic - Matte (Blue)',0.188235294117647,0.231372549019608,
0.588235294117647);
#324=COLOUR_RGB('Silver - Satin',0.984313725490196,0.980392156862745,0.96078431372549);
ENDSEC;
END-ISO-10303-21;
