ISO-10303-21;
HEADER;
/* Generated by software containing ST-Developer
 * from STEP Tools, Inc. (www.steptools.com) 
 */

FILE_DESCRIPTION(
/* description */ (''),
/* implementation_level */ '2;1');

FILE_NAME(
/* name */ 'Button Board.step',
/* time_stamp */ '2026-03-11T18:00:35-05:00',
/* author */ (''),
/* organization */ (''),
/* preprocessor_version */ 'ST-DEVELOPER v20.1',
/* originating_system */ 'Autodesk Translation Framework v14.24.0.0',
/* authorisation */ '');

FILE_SCHEMA (('AUTOMOTIVE_DESIGN { 1 0 10303 214 3 1 1 }'));
ENDSEC;

DATA;
#10=MECHANICAL_DESIGN_GEOMETRIC_PRESENTATION_REPRESENTATION('',(#24,#25,
#26,#27,#28,#29,#30,#31,#32,#33,#34,#35,#36,#37,#38,#39,#40,#41,#42,#43,
#44,#45,#46,#47,#48,#49,#50,#51,#52,#53,#54,#55,#56,#57),#1283);
#11=SHAPE_REPRESENTATION_RELATIONSHIP('SRR','None',#1290,#12);
#12=ADVANCED_BREP_SHAPE_REPRESENTATION('',(#13),#1282);
#13=MANIFOLD_SOLID_BREP('Body1',#799);
#14=FACE_BOUND('',#158,.T.);
#15=FACE_BOUND('',#164,.T.);
#16=FACE_BOUND('',#170,.T.);
#17=FACE_BOUND('',#176,.T.);
#18=FACE_BOUND('',#177,.T.);
#19=FACE_BOUND('',#178,.T.);
#20=FACE_BOUND('',#179,.T.);
#21=FACE_BOUND('',#180,.T.);
#22=FACE_BOUND('',#186,.T.);
#23=FACE_BOUND('',#192,.T.);
#24=STYLED_ITEM('',(#1301),#764);
#25=STYLED_ITEM('',(#1301),#765);
#26=STYLED_ITEM('',(#1301),#766);
#27=STYLED_ITEM('',(#1301),#767);
#28=STYLED_ITEM('',(#1302),#768);
#29=STYLED_ITEM('',(#1301),#769);
#30=STYLED_ITEM('',(#1301),#770);
#31=STYLED_ITEM('',(#1301),#772);
#32=STYLED_ITEM('',(#1302),#773);
#33=STYLED_ITEM('',(#1301),#774);
#34=STYLED_ITEM('',(#1301),#775);
#35=STYLED_ITEM('',(#1301),#776);
#36=STYLED_ITEM('',(#1301),#777);
#37=STYLED_ITEM('',(#1302),#778);
#38=STYLED_ITEM('',(#1303),#779);
#39=STYLED_ITEM('',(#1303),#781);
#40=STYLED_ITEM('',(#1303),#782);
#41=STYLED_ITEM('',(#1304),#783);
#42=STYLED_ITEM('',(#1301),#784);
#43=STYLED_ITEM('',(#1301),#785);
#44=STYLED_ITEM('',(#1301),#786);
#45=STYLED_ITEM('',(#1301),#787);
#46=STYLED_ITEM('',(#1302),#788);
#47=STYLED_ITEM('',(#1301),#789);
#48=STYLED_ITEM('',(#1301),#790);
#49=STYLED_ITEM('',(#1301),#791);
#50=STYLED_ITEM('',(#1301),#792);
#51=STYLED_ITEM('',(#1302),#793);
#52=STYLED_ITEM('',(#1305),#794);
#53=STYLED_ITEM('',(#1303),#795);
#54=STYLED_ITEM('',(#1305),#796);
#55=STYLED_ITEM('',(#1305),#797);
#56=STYLED_ITEM('',(#1305),#798);
#57=STYLED_ITEM('',(#1300),#13);
#58=PLANE('',#816);
#59=PLANE('',#820);
#60=PLANE('',#824);
#61=PLANE('',#828);
#62=PLANE('',#832);
#63=PLANE('',#833);
#64=PLANE('',#834);
#65=PLANE('',#835);
#66=PLANE('',#836);
#67=PLANE('',#837);
#68=PLANE('',#838);
#69=PLANE('',#839);
#70=PLANE('',#840);
#71=PLANE('',#841);
#72=PLANE('',#842);
#73=PLANE('',#843);
#74=PLANE('',#844);
#75=PLANE('',#845);
#76=PLANE('',#846);
#77=PLANE('',#847);
#78=PLANE('',#848);
#79=PLANE('',#849);
#80=PLANE('',#850);
#81=PLANE('',#851);
#82=PLANE('',#852);
#83=PLANE('',#853);
#84=PLANE('',#854);
#85=PLANE('',#855);
#86=PLANE('',#856);
#87=PLANE('',#857);
#88=PLANE('',#858);
#89=PLANE('',#859);
#90=PLANE('',#860);
#91=PLANE('',#861);
#92=PLANE('',#862);
#93=PLANE('',#863);
#94=PLANE('',#864);
#95=PLANE('',#865);
#96=PLANE('',#866);
#97=PLANE('',#867);
#98=FACE_OUTER_BOUND('',#143,.T.);
#99=FACE_OUTER_BOUND('',#144,.T.);
#100=FACE_OUTER_BOUND('',#145,.T.);
#101=FACE_OUTER_BOUND('',#146,.T.);
#102=FACE_OUTER_BOUND('',#147,.T.);
#103=FACE_OUTER_BOUND('',#148,.T.);
#104=FACE_OUTER_BOUND('',#149,.T.);
#105=FACE_OUTER_BOUND('',#150,.T.);
#106=FACE_OUTER_BOUND('',#151,.T.);
#107=FACE_OUTER_BOUND('',#152,.T.);
#108=FACE_OUTER_BOUND('',#153,.T.);
#109=FACE_OUTER_BOUND('',#154,.T.);
#110=FACE_OUTER_BOUND('',#155,.T.);
#111=FACE_OUTER_BOUND('',#156,.T.);
#112=FACE_OUTER_BOUND('',#157,.T.);
#113=FACE_OUTER_BOUND('',#159,.T.);
#114=FACE_OUTER_BOUND('',#160,.T.);
#115=FACE_OUTER_BOUND('',#161,.T.);
#116=FACE_OUTER_BOUND('',#162,.T.);
#117=FACE_OUTER_BOUND('',#163,.T.);
#118=FACE_OUTER_BOUND('',#165,.T.);
#119=FACE_OUTER_BOUND('',#166,.T.);
#120=FACE_OUTER_BOUND('',#167,.T.);
#121=FACE_OUTER_BOUND('',#168,.T.);
#122=FACE_OUTER_BOUND('',#169,.T.);
#123=FACE_OUTER_BOUND('',#171,.T.);
#124=FACE_OUTER_BOUND('',#172,.T.);
#125=FACE_OUTER_BOUND('',#173,.T.);
#126=FACE_OUTER_BOUND('',#174,.T.);
#127=FACE_OUTER_BOUND('',#175,.T.);
#128=FACE_OUTER_BOUND('',#181,.T.);
#129=FACE_OUTER_BOUND('',#182,.T.);
#130=FACE_OUTER_BOUND('',#183,.T.);
#131=FACE_OUTER_BOUND('',#184,.T.);
#132=FACE_OUTER_BOUND('',#185,.T.);
#133=FACE_OUTER_BOUND('',#187,.T.);
#134=FACE_OUTER_BOUND('',#188,.T.);
#135=FACE_OUTER_BOUND('',#189,.T.);
#136=FACE_OUTER_BOUND('',#190,.T.);
#137=FACE_OUTER_BOUND('',#191,.T.);
#138=FACE_OUTER_BOUND('',#193,.T.);
#139=FACE_OUTER_BOUND('',#194,.T.);
#140=FACE_OUTER_BOUND('',#195,.T.);
#141=FACE_OUTER_BOUND('',#196,.T.);
#142=FACE_OUTER_BOUND('',#197,.T.);
#143=EDGE_LOOP('',(#551,#552,#553,#554));
#144=EDGE_LOOP('',(#555));
#145=EDGE_LOOP('',(#556,#557,#558,#559));
#146=EDGE_LOOP('',(#560));
#147=EDGE_LOOP('',(#561,#562,#563,#564));
#148=EDGE_LOOP('',(#565));
#149=EDGE_LOOP('',(#566,#567,#568,#569));
#150=EDGE_LOOP('',(#570));
#151=EDGE_LOOP('',(#571,#572,#573,#574));
#152=EDGE_LOOP('',(#575));
#153=EDGE_LOOP('',(#576,#577,#578,#579));
#154=EDGE_LOOP('',(#580,#581,#582,#583));
#155=EDGE_LOOP('',(#584,#585,#586,#587));
#156=EDGE_LOOP('',(#588,#589,#590,#591));
#157=EDGE_LOOP('',(#592,#593,#594,#595));
#158=EDGE_LOOP('',(#596));
#159=EDGE_LOOP('',(#597,#598,#599,#600));
#160=EDGE_LOOP('',(#601,#602,#603,#604));
#161=EDGE_LOOP('',(#605,#606,#607,#608));
#162=EDGE_LOOP('',(#609,#610,#611,#612));
#163=EDGE_LOOP('',(#613,#614,#615,#616));
#164=EDGE_LOOP('',(#617));
#165=EDGE_LOOP('',(#618,#619,#620,#621));
#166=EDGE_LOOP('',(#622,#623,#624,#625));
#167=EDGE_LOOP('',(#626,#627,#628,#629));
#168=EDGE_LOOP('',(#630,#631,#632,#633));
#169=EDGE_LOOP('',(#634,#635,#636,#637));
#170=EDGE_LOOP('',(#638));
#171=EDGE_LOOP('',(#639,#640,#641,#642));
#172=EDGE_LOOP('',(#643,#644,#645,#646));
#173=EDGE_LOOP('',(#647,#648,#649,#650));
#174=EDGE_LOOP('',(#651,#652,#653,#654));
#175=EDGE_LOOP('',(#655,#656,#657,#658,#659,#660,#661,#662));
#176=EDGE_LOOP('',(#663,#664,#665,#666));
#177=EDGE_LOOP('',(#667,#668,#669,#670));
#178=EDGE_LOOP('',(#671,#672,#673,#674));
#179=EDGE_LOOP('',(#675,#676,#677,#678));
#180=EDGE_LOOP('',(#679,#680,#681,#682));
#181=EDGE_LOOP('',(#683,#684,#685,#686));
#182=EDGE_LOOP('',(#687,#688,#689,#690));
#183=EDGE_LOOP('',(#691,#692,#693,#694));
#184=EDGE_LOOP('',(#695,#696,#697,#698));
#185=EDGE_LOOP('',(#699,#700,#701,#702));
#186=EDGE_LOOP('',(#703));
#187=EDGE_LOOP('',(#704,#705,#706,#707));
#188=EDGE_LOOP('',(#708,#709,#710,#711));
#189=EDGE_LOOP('',(#712,#713,#714,#715));
#190=EDGE_LOOP('',(#716,#717,#718,#719));
#191=EDGE_LOOP('',(#720,#721,#722,#723));
#192=EDGE_LOOP('',(#724));
#193=EDGE_LOOP('',(#725,#726,#727,#728));
#194=EDGE_LOOP('',(#729,#730,#731,#732,#733,#734,#735,#736));
#195=EDGE_LOOP('',(#737,#738,#739,#740));
#196=EDGE_LOOP('',(#741,#742,#743,#744));
#197=EDGE_LOOP('',(#745,#746,#747,#748));
#198=LINE('',#1074,#287);
#199=LINE('',#1081,#288);
#200=LINE('',#1088,#289);
#201=LINE('',#1095,#290);
#202=LINE('',#1102,#291);
#203=LINE('',#1108,#292);
#204=LINE('',#1110,#293);
#205=LINE('',#1112,#294);
#206=LINE('',#1113,#295);
#207=LINE('',#1116,#296);
#208=LINE('',#1118,#297);
#209=LINE('',#1119,#298);
#210=LINE('',#1122,#299);
#211=LINE('',#1124,#300);
#212=LINE('',#1125,#301);
#213=LINE('',#1127,#302);
#214=LINE('',#1128,#303);
#215=LINE('',#1133,#304);
#216=LINE('',#1135,#305);
#217=LINE('',#1137,#306);
#218=LINE('',#1138,#307);
#219=LINE('',#1141,#308);
#220=LINE('',#1143,#309);
#221=LINE('',#1144,#310);
#222=LINE('',#1147,#311);
#223=LINE('',#1149,#312);
#224=LINE('',#1150,#313);
#225=LINE('',#1152,#314);
#226=LINE('',#1153,#315);
#227=LINE('',#1158,#316);
#228=LINE('',#1160,#317);
#229=LINE('',#1162,#318);
#230=LINE('',#1163,#319);
#231=LINE('',#1166,#320);
#232=LINE('',#1168,#321);
#233=LINE('',#1169,#322);
#234=LINE('',#1172,#323);
#235=LINE('',#1174,#324);
#236=LINE('',#1175,#325);
#237=LINE('',#1177,#326);
#238=LINE('',#1178,#327);
#239=LINE('',#1183,#328);
#240=LINE('',#1185,#329);
#241=LINE('',#1187,#330);
#242=LINE('',#1188,#331);
#243=LINE('',#1191,#332);
#244=LINE('',#1193,#333);
#245=LINE('',#1194,#334);
#246=LINE('',#1197,#335);
#247=LINE('',#1199,#336);
#248=LINE('',#1200,#337);
#249=LINE('',#1202,#338);
#250=LINE('',#1205,#339);
#251=LINE('',#1207,#340);
#252=LINE('',#1209,#341);
#253=LINE('',#1211,#342);
#254=LINE('',#1212,#343);
#255=LINE('',#1215,#344);
#256=LINE('',#1217,#345);
#257=LINE('',#1219,#346);
#258=LINE('',#1220,#347);
#259=LINE('',#1223,#348);
#260=LINE('',#1225,#349);
#261=LINE('',#1227,#350);
#262=LINE('',#1228,#351);
#263=LINE('',#1231,#352);
#264=LINE('',#1233,#353);
#265=LINE('',#1234,#354);
#266=LINE('',#1237,#355);
#267=LINE('',#1238,#356);
#268=LINE('',#1241,#357);
#269=LINE('',#1242,#358);
#270=LINE('',#1244,#359);
#271=LINE('',#1248,#360);
#272=LINE('',#1250,#361);
#273=LINE('',#1251,#362);
#274=LINE('',#1254,#363);
#275=LINE('',#1255,#364);
#276=LINE('',#1258,#365);
#277=LINE('',#1259,#366);
#278=LINE('',#1261,#367);
#279=LINE('',#1266,#368);
#280=LINE('',#1267,#369);
#281=LINE('',#1268,#370);
#282=LINE('',#1271,#371);
#283=LINE('',#1272,#372);
#284=LINE('',#1275,#373);
#285=LINE('',#1276,#374);
#286=LINE('',#1278,#375);
#287=VECTOR('',#874,1.75000000000001);
#288=VECTOR('',#883,1.75000000000001);
#289=VECTOR('',#892,1.75000000000001);
#290=VECTOR('',#901,1.75000000000001);
#291=VECTOR('',#910,1.75000000000001);
#292=VECTOR('',#917,10.);
#293=VECTOR('',#918,10.);
#294=VECTOR('',#919,10.);
#295=VECTOR('',#920,10.);
#296=VECTOR('',#923,10.);
#297=VECTOR('',#924,10.);
#298=VECTOR('',#925,10.);
#299=VECTOR('',#928,10.);
#300=VECTOR('',#929,10.);
#301=VECTOR('',#930,10.);
#302=VECTOR('',#933,10.);
#303=VECTOR('',#934,10.);
#304=VECTOR('',#939,10.);
#305=VECTOR('',#940,10.);
#306=VECTOR('',#941,10.);
#307=VECTOR('',#942,10.);
#308=VECTOR('',#945,10.);
#309=VECTOR('',#946,10.);
#310=VECTOR('',#947,10.);
#311=VECTOR('',#950,10.);
#312=VECTOR('',#951,10.);
#313=VECTOR('',#952,10.);
#314=VECTOR('',#955,10.);
#315=VECTOR('',#956,10.);
#316=VECTOR('',#961,10.);
#317=VECTOR('',#962,10.);
#318=VECTOR('',#963,10.);
#319=VECTOR('',#964,10.);
#320=VECTOR('',#967,10.);
#321=VECTOR('',#968,10.);
#322=VECTOR('',#969,10.);
#323=VECTOR('',#972,10.);
#324=VECTOR('',#973,10.);
#325=VECTOR('',#974,10.);
#326=VECTOR('',#977,10.);
#327=VECTOR('',#978,10.);
#328=VECTOR('',#983,10.);
#329=VECTOR('',#984,10.);
#330=VECTOR('',#985,10.);
#331=VECTOR('',#986,10.);
#332=VECTOR('',#989,10.);
#333=VECTOR('',#990,10.);
#334=VECTOR('',#991,10.);
#335=VECTOR('',#994,10.);
#336=VECTOR('',#995,10.);
#337=VECTOR('',#996,10.);
#338=VECTOR('',#999,10.);
#339=VECTOR('',#1002,10.);
#340=VECTOR('',#1003,10.);
#341=VECTOR('',#1004,10.);
#342=VECTOR('',#1005,10.);
#343=VECTOR('',#1006,10.);
#344=VECTOR('',#1007,10.);
#345=VECTOR('',#1008,10.);
#346=VECTOR('',#1009,10.);
#347=VECTOR('',#1010,10.);
#348=VECTOR('',#1011,10.);
#349=VECTOR('',#1012,10.);
#350=VECTOR('',#1013,10.);
#351=VECTOR('',#1014,10.);
#352=VECTOR('',#1017,10.);
#353=VECTOR('',#1018,10.);
#354=VECTOR('',#1019,10.);
#355=VECTOR('',#1022,10.);
#356=VECTOR('',#1023,10.);
#357=VECTOR('',#1026,10.);
#358=VECTOR('',#1027,10.);
#359=VECTOR('',#1030,10.);
#360=VECTOR('',#1035,10.);
#361=VECTOR('',#1036,10.);
#362=VECTOR('',#1037,10.);
#363=VECTOR('',#1040,10.);
#364=VECTOR('',#1041,10.);
#365=VECTOR('',#1044,10.);
#366=VECTOR('',#1045,10.);
#367=VECTOR('',#1048,10.);
#368=VECTOR('',#1053,10.);
#369=VECTOR('',#1054,10.);
#370=VECTOR('',#1055,10.);
#371=VECTOR('',#1058,10.);
#372=VECTOR('',#1059,10.);
#373=VECTOR('',#1062,10.);
#374=VECTOR('',#1063,10.);
#375=VECTOR('',#1066,10.);
#376=CIRCLE('',#814,1.75000000000001);
#377=CIRCLE('',#815,1.75000000000001);
#378=CIRCLE('',#818,1.75000000000001);
#379=CIRCLE('',#819,1.75000000000001);
#380=CIRCLE('',#822,1.75000000000001);
#381=CIRCLE('',#823,1.75000000000001);
#382=CIRCLE('',#826,1.75000000000001);
#383=CIRCLE('',#827,1.75000000000001);
#384=CIRCLE('',#830,1.75000000000001);
#385=CIRCLE('',#831,1.75000000000001);
#386=VERTEX_POINT('',#1071);
#387=VERTEX_POINT('',#1073);
#388=VERTEX_POINT('',#1078);
#389=VERTEX_POINT('',#1080);
#390=VERTEX_POINT('',#1085);
#391=VERTEX_POINT('',#1087);
#392=VERTEX_POINT('',#1092);
#393=VERTEX_POINT('',#1094);
#394=VERTEX_POINT('',#1099);
#395=VERTEX_POINT('',#1101);
#396=VERTEX_POINT('',#1106);
#397=VERTEX_POINT('',#1107);
#398=VERTEX_POINT('',#1109);
#399=VERTEX_POINT('',#1111);
#400=VERTEX_POINT('',#1115);
#401=VERTEX_POINT('',#1117);
#402=VERTEX_POINT('',#1121);
#403=VERTEX_POINT('',#1123);
#404=VERTEX_POINT('',#1131);
#405=VERTEX_POINT('',#1132);
#406=VERTEX_POINT('',#1134);
#407=VERTEX_POINT('',#1136);
#408=VERTEX_POINT('',#1140);
#409=VERTEX_POINT('',#1142);
#410=VERTEX_POINT('',#1146);
#411=VERTEX_POINT('',#1148);
#412=VERTEX_POINT('',#1156);
#413=VERTEX_POINT('',#1157);
#414=VERTEX_POINT('',#1159);
#415=VERTEX_POINT('',#1161);
#416=VERTEX_POINT('',#1165);
#417=VERTEX_POINT('',#1167);
#418=VERTEX_POINT('',#1171);
#419=VERTEX_POINT('',#1173);
#420=VERTEX_POINT('',#1181);
#421=VERTEX_POINT('',#1182);
#422=VERTEX_POINT('',#1184);
#423=VERTEX_POINT('',#1186);
#424=VERTEX_POINT('',#1190);
#425=VERTEX_POINT('',#1192);
#426=VERTEX_POINT('',#1196);
#427=VERTEX_POINT('',#1198);
#428=VERTEX_POINT('',#1204);
#429=VERTEX_POINT('',#1206);
#430=VERTEX_POINT('',#1208);
#431=VERTEX_POINT('',#1210);
#432=VERTEX_POINT('',#1213);
#433=VERTEX_POINT('',#1214);
#434=VERTEX_POINT('',#1216);
#435=VERTEX_POINT('',#1218);
#436=VERTEX_POINT('',#1221);
#437=VERTEX_POINT('',#1222);
#438=VERTEX_POINT('',#1224);
#439=VERTEX_POINT('',#1226);
#440=VERTEX_POINT('',#1230);
#441=VERTEX_POINT('',#1232);
#442=VERTEX_POINT('',#1236);
#443=VERTEX_POINT('',#1240);
#444=VERTEX_POINT('',#1247);
#445=VERTEX_POINT('',#1249);
#446=VERTEX_POINT('',#1253);
#447=VERTEX_POINT('',#1257);
#448=VERTEX_POINT('',#1264);
#449=VERTEX_POINT('',#1265);
#450=VERTEX_POINT('',#1270);
#451=VERTEX_POINT('',#1274);
#452=EDGE_CURVE('',#386,#386,#376,.T.);
#453=EDGE_CURVE('',#386,#387,#198,.T.);
#454=EDGE_CURVE('',#387,#387,#377,.T.);
#455=EDGE_CURVE('',#388,#388,#378,.T.);
#456=EDGE_CURVE('',#388,#389,#199,.T.);
#457=EDGE_CURVE('',#389,#389,#379,.T.);
#458=EDGE_CURVE('',#390,#390,#380,.T.);
#459=EDGE_CURVE('',#390,#391,#200,.T.);
#460=EDGE_CURVE('',#391,#391,#381,.T.);
#461=EDGE_CURVE('',#392,#392,#382,.T.);
#462=EDGE_CURVE('',#392,#393,#201,.T.);
#463=EDGE_CURVE('',#393,#393,#383,.T.);
#464=EDGE_CURVE('',#394,#394,#384,.T.);
#465=EDGE_CURVE('',#394,#395,#202,.T.);
#466=EDGE_CURVE('',#395,#395,#385,.T.);
#467=EDGE_CURVE('',#396,#397,#203,.T.);
#468=EDGE_CURVE('',#396,#398,#204,.T.);
#469=EDGE_CURVE('',#399,#398,#205,.T.);
#470=EDGE_CURVE('',#397,#399,#206,.T.);
#471=EDGE_CURVE('',#400,#396,#207,.T.);
#472=EDGE_CURVE('',#400,#401,#208,.T.);
#473=EDGE_CURVE('',#398,#401,#209,.T.);
#474=EDGE_CURVE('',#397,#402,#210,.T.);
#475=EDGE_CURVE('',#403,#399,#211,.T.);
#476=EDGE_CURVE('',#402,#403,#212,.T.);
#477=EDGE_CURVE('',#402,#400,#213,.T.);
#478=EDGE_CURVE('',#401,#403,#214,.T.);
#479=EDGE_CURVE('',#404,#405,#215,.T.);
#480=EDGE_CURVE('',#404,#406,#216,.T.);
#481=EDGE_CURVE('',#407,#406,#217,.T.);
#482=EDGE_CURVE('',#405,#407,#218,.T.);
#483=EDGE_CURVE('',#408,#404,#219,.T.);
#484=EDGE_CURVE('',#408,#409,#220,.T.);
#485=EDGE_CURVE('',#406,#409,#221,.T.);
#486=EDGE_CURVE('',#405,#410,#222,.T.);
#487=EDGE_CURVE('',#411,#407,#223,.T.);
#488=EDGE_CURVE('',#410,#411,#224,.T.);
#489=EDGE_CURVE('',#410,#408,#225,.T.);
#490=EDGE_CURVE('',#409,#411,#226,.T.);
#491=EDGE_CURVE('',#412,#413,#227,.T.);
#492=EDGE_CURVE('',#412,#414,#228,.T.);
#493=EDGE_CURVE('',#415,#414,#229,.T.);
#494=EDGE_CURVE('',#413,#415,#230,.T.);
#495=EDGE_CURVE('',#416,#412,#231,.T.);
#496=EDGE_CURVE('',#416,#417,#232,.T.);
#497=EDGE_CURVE('',#414,#417,#233,.T.);
#498=EDGE_CURVE('',#413,#418,#234,.T.);
#499=EDGE_CURVE('',#419,#415,#235,.T.);
#500=EDGE_CURVE('',#418,#419,#236,.T.);
#501=EDGE_CURVE('',#418,#416,#237,.T.);
#502=EDGE_CURVE('',#417,#419,#238,.T.);
#503=EDGE_CURVE('',#420,#421,#239,.T.);
#504=EDGE_CURVE('',#420,#422,#240,.T.);
#505=EDGE_CURVE('',#423,#422,#241,.T.);
#506=EDGE_CURVE('',#421,#423,#242,.T.);
#507=EDGE_CURVE('',#421,#424,#243,.T.);
#508=EDGE_CURVE('',#425,#423,#244,.T.);
#509=EDGE_CURVE('',#424,#425,#245,.T.);
#510=EDGE_CURVE('',#424,#426,#246,.T.);
#511=EDGE_CURVE('',#427,#425,#247,.T.);
#512=EDGE_CURVE('',#426,#427,#248,.T.);
#513=EDGE_CURVE('',#422,#427,#249,.T.);
#514=EDGE_CURVE('',#426,#428,#250,.T.);
#515=EDGE_CURVE('',#428,#429,#251,.T.);
#516=EDGE_CURVE('',#429,#430,#252,.T.);
#517=EDGE_CURVE('',#430,#431,#253,.T.);
#518=EDGE_CURVE('',#431,#420,#254,.T.);
#519=EDGE_CURVE('',#432,#433,#255,.T.);
#520=EDGE_CURVE('',#433,#434,#256,.T.);
#521=EDGE_CURVE('',#434,#435,#257,.T.);
#522=EDGE_CURVE('',#435,#432,#258,.T.);
#523=EDGE_CURVE('',#436,#437,#259,.T.);
#524=EDGE_CURVE('',#437,#438,#260,.T.);
#525=EDGE_CURVE('',#438,#439,#261,.T.);
#526=EDGE_CURVE('',#439,#436,#262,.T.);
#527=EDGE_CURVE('',#437,#440,#263,.T.);
#528=EDGE_CURVE('',#441,#440,#264,.T.);
#529=EDGE_CURVE('',#438,#441,#265,.T.);
#530=EDGE_CURVE('',#436,#442,#266,.T.);
#531=EDGE_CURVE('',#440,#442,#267,.T.);
#532=EDGE_CURVE('',#443,#441,#268,.T.);
#533=EDGE_CURVE('',#439,#443,#269,.T.);
#534=EDGE_CURVE('',#442,#443,#270,.T.);
#535=EDGE_CURVE('',#433,#444,#271,.T.);
#536=EDGE_CURVE('',#445,#444,#272,.T.);
#537=EDGE_CURVE('',#434,#445,#273,.T.);
#538=EDGE_CURVE('',#432,#446,#274,.T.);
#539=EDGE_CURVE('',#444,#446,#275,.T.);
#540=EDGE_CURVE('',#447,#445,#276,.T.);
#541=EDGE_CURVE('',#435,#447,#277,.T.);
#542=EDGE_CURVE('',#446,#447,#278,.T.);
#543=EDGE_CURVE('',#448,#449,#279,.T.);
#544=EDGE_CURVE('',#448,#429,#280,.T.);
#545=EDGE_CURVE('',#449,#428,#281,.T.);
#546=EDGE_CURVE('',#450,#431,#282,.T.);
#547=EDGE_CURVE('',#449,#450,#283,.T.);
#548=EDGE_CURVE('',#450,#451,#284,.T.);
#549=EDGE_CURVE('',#451,#430,#285,.T.);
#550=EDGE_CURVE('',#451,#448,#286,.T.);
#551=ORIENTED_EDGE('',*,*,#452,.F.);
#552=ORIENTED_EDGE('',*,*,#453,.T.);
#553=ORIENTED_EDGE('',*,*,#454,.F.);
#554=ORIENTED_EDGE('',*,*,#453,.F.);
#555=ORIENTED_EDGE('',*,*,#452,.T.);
#556=ORIENTED_EDGE('',*,*,#455,.F.);
#557=ORIENTED_EDGE('',*,*,#456,.T.);
#558=ORIENTED_EDGE('',*,*,#457,.F.);
#559=ORIENTED_EDGE('',*,*,#456,.F.);
#560=ORIENTED_EDGE('',*,*,#455,.T.);
#561=ORIENTED_EDGE('',*,*,#458,.F.);
#562=ORIENTED_EDGE('',*,*,#459,.T.);
#563=ORIENTED_EDGE('',*,*,#460,.F.);
#564=ORIENTED_EDGE('',*,*,#459,.F.);
#565=ORIENTED_EDGE('',*,*,#458,.T.);
#566=ORIENTED_EDGE('',*,*,#461,.F.);
#567=ORIENTED_EDGE('',*,*,#462,.T.);
#568=ORIENTED_EDGE('',*,*,#463,.F.);
#569=ORIENTED_EDGE('',*,*,#462,.F.);
#570=ORIENTED_EDGE('',*,*,#461,.T.);
#571=ORIENTED_EDGE('',*,*,#464,.F.);
#572=ORIENTED_EDGE('',*,*,#465,.T.);
#573=ORIENTED_EDGE('',*,*,#466,.F.);
#574=ORIENTED_EDGE('',*,*,#465,.F.);
#575=ORIENTED_EDGE('',*,*,#464,.T.);
#576=ORIENTED_EDGE('',*,*,#467,.F.);
#577=ORIENTED_EDGE('',*,*,#468,.T.);
#578=ORIENTED_EDGE('',*,*,#469,.F.);
#579=ORIENTED_EDGE('',*,*,#470,.F.);
#580=ORIENTED_EDGE('',*,*,#471,.F.);
#581=ORIENTED_EDGE('',*,*,#472,.T.);
#582=ORIENTED_EDGE('',*,*,#473,.F.);
#583=ORIENTED_EDGE('',*,*,#468,.F.);
#584=ORIENTED_EDGE('',*,*,#474,.F.);
#585=ORIENTED_EDGE('',*,*,#470,.T.);
#586=ORIENTED_EDGE('',*,*,#475,.F.);
#587=ORIENTED_EDGE('',*,*,#476,.F.);
#588=ORIENTED_EDGE('',*,*,#477,.F.);
#589=ORIENTED_EDGE('',*,*,#476,.T.);
#590=ORIENTED_EDGE('',*,*,#478,.F.);
#591=ORIENTED_EDGE('',*,*,#472,.F.);
#592=ORIENTED_EDGE('',*,*,#478,.T.);
#593=ORIENTED_EDGE('',*,*,#475,.T.);
#594=ORIENTED_EDGE('',*,*,#469,.T.);
#595=ORIENTED_EDGE('',*,*,#473,.T.);
#596=ORIENTED_EDGE('',*,*,#457,.T.);
#597=ORIENTED_EDGE('',*,*,#479,.F.);
#598=ORIENTED_EDGE('',*,*,#480,.T.);
#599=ORIENTED_EDGE('',*,*,#481,.F.);
#600=ORIENTED_EDGE('',*,*,#482,.F.);
#601=ORIENTED_EDGE('',*,*,#483,.F.);
#602=ORIENTED_EDGE('',*,*,#484,.T.);
#603=ORIENTED_EDGE('',*,*,#485,.F.);
#604=ORIENTED_EDGE('',*,*,#480,.F.);
#605=ORIENTED_EDGE('',*,*,#486,.F.);
#606=ORIENTED_EDGE('',*,*,#482,.T.);
#607=ORIENTED_EDGE('',*,*,#487,.F.);
#608=ORIENTED_EDGE('',*,*,#488,.F.);
#609=ORIENTED_EDGE('',*,*,#489,.F.);
#610=ORIENTED_EDGE('',*,*,#488,.T.);
#611=ORIENTED_EDGE('',*,*,#490,.F.);
#612=ORIENTED_EDGE('',*,*,#484,.F.);
#613=ORIENTED_EDGE('',*,*,#490,.T.);
#614=ORIENTED_EDGE('',*,*,#487,.T.);
#615=ORIENTED_EDGE('',*,*,#481,.T.);
#616=ORIENTED_EDGE('',*,*,#485,.T.);
#617=ORIENTED_EDGE('',*,*,#454,.T.);
#618=ORIENTED_EDGE('',*,*,#491,.F.);
#619=ORIENTED_EDGE('',*,*,#492,.T.);
#620=ORIENTED_EDGE('',*,*,#493,.F.);
#621=ORIENTED_EDGE('',*,*,#494,.F.);
#622=ORIENTED_EDGE('',*,*,#495,.F.);
#623=ORIENTED_EDGE('',*,*,#496,.T.);
#624=ORIENTED_EDGE('',*,*,#497,.F.);
#625=ORIENTED_EDGE('',*,*,#492,.F.);
#626=ORIENTED_EDGE('',*,*,#498,.F.);
#627=ORIENTED_EDGE('',*,*,#494,.T.);
#628=ORIENTED_EDGE('',*,*,#499,.F.);
#629=ORIENTED_EDGE('',*,*,#500,.F.);
#630=ORIENTED_EDGE('',*,*,#501,.F.);
#631=ORIENTED_EDGE('',*,*,#500,.T.);
#632=ORIENTED_EDGE('',*,*,#502,.F.);
#633=ORIENTED_EDGE('',*,*,#496,.F.);
#634=ORIENTED_EDGE('',*,*,#502,.T.);
#635=ORIENTED_EDGE('',*,*,#499,.T.);
#636=ORIENTED_EDGE('',*,*,#493,.T.);
#637=ORIENTED_EDGE('',*,*,#497,.T.);
#638=ORIENTED_EDGE('',*,*,#466,.T.);
#639=ORIENTED_EDGE('',*,*,#503,.F.);
#640=ORIENTED_EDGE('',*,*,#504,.T.);
#641=ORIENTED_EDGE('',*,*,#505,.F.);
#642=ORIENTED_EDGE('',*,*,#506,.F.);
#643=ORIENTED_EDGE('',*,*,#507,.F.);
#644=ORIENTED_EDGE('',*,*,#506,.T.);
#645=ORIENTED_EDGE('',*,*,#508,.F.);
#646=ORIENTED_EDGE('',*,*,#509,.F.);
#647=ORIENTED_EDGE('',*,*,#510,.F.);
#648=ORIENTED_EDGE('',*,*,#509,.T.);
#649=ORIENTED_EDGE('',*,*,#511,.F.);
#650=ORIENTED_EDGE('',*,*,#512,.F.);
#651=ORIENTED_EDGE('',*,*,#513,.T.);
#652=ORIENTED_EDGE('',*,*,#511,.T.);
#653=ORIENTED_EDGE('',*,*,#508,.T.);
#654=ORIENTED_EDGE('',*,*,#505,.T.);
#655=ORIENTED_EDGE('',*,*,#503,.T.);
#656=ORIENTED_EDGE('',*,*,#507,.T.);
#657=ORIENTED_EDGE('',*,*,#510,.T.);
#658=ORIENTED_EDGE('',*,*,#514,.T.);
#659=ORIENTED_EDGE('',*,*,#515,.T.);
#660=ORIENTED_EDGE('',*,*,#516,.T.);
#661=ORIENTED_EDGE('',*,*,#517,.T.);
#662=ORIENTED_EDGE('',*,*,#518,.T.);
#663=ORIENTED_EDGE('',*,*,#471,.T.);
#664=ORIENTED_EDGE('',*,*,#467,.T.);
#665=ORIENTED_EDGE('',*,*,#474,.T.);
#666=ORIENTED_EDGE('',*,*,#477,.T.);
#667=ORIENTED_EDGE('',*,*,#483,.T.);
#668=ORIENTED_EDGE('',*,*,#479,.T.);
#669=ORIENTED_EDGE('',*,*,#486,.T.);
#670=ORIENTED_EDGE('',*,*,#489,.T.);
#671=ORIENTED_EDGE('',*,*,#495,.T.);
#672=ORIENTED_EDGE('',*,*,#491,.T.);
#673=ORIENTED_EDGE('',*,*,#498,.T.);
#674=ORIENTED_EDGE('',*,*,#501,.T.);
#675=ORIENTED_EDGE('',*,*,#519,.T.);
#676=ORIENTED_EDGE('',*,*,#520,.T.);
#677=ORIENTED_EDGE('',*,*,#521,.T.);
#678=ORIENTED_EDGE('',*,*,#522,.T.);
#679=ORIENTED_EDGE('',*,*,#523,.T.);
#680=ORIENTED_EDGE('',*,*,#524,.T.);
#681=ORIENTED_EDGE('',*,*,#525,.T.);
#682=ORIENTED_EDGE('',*,*,#526,.T.);
#683=ORIENTED_EDGE('',*,*,#524,.F.);
#684=ORIENTED_EDGE('',*,*,#527,.T.);
#685=ORIENTED_EDGE('',*,*,#528,.F.);
#686=ORIENTED_EDGE('',*,*,#529,.F.);
#687=ORIENTED_EDGE('',*,*,#523,.F.);
#688=ORIENTED_EDGE('',*,*,#530,.T.);
#689=ORIENTED_EDGE('',*,*,#531,.F.);
#690=ORIENTED_EDGE('',*,*,#527,.F.);
#691=ORIENTED_EDGE('',*,*,#525,.F.);
#692=ORIENTED_EDGE('',*,*,#529,.T.);
#693=ORIENTED_EDGE('',*,*,#532,.F.);
#694=ORIENTED_EDGE('',*,*,#533,.F.);
#695=ORIENTED_EDGE('',*,*,#526,.F.);
#696=ORIENTED_EDGE('',*,*,#533,.T.);
#697=ORIENTED_EDGE('',*,*,#534,.F.);
#698=ORIENTED_EDGE('',*,*,#530,.F.);
#699=ORIENTED_EDGE('',*,*,#534,.T.);
#700=ORIENTED_EDGE('',*,*,#532,.T.);
#701=ORIENTED_EDGE('',*,*,#528,.T.);
#702=ORIENTED_EDGE('',*,*,#531,.T.);
#703=ORIENTED_EDGE('',*,*,#460,.T.);
#704=ORIENTED_EDGE('',*,*,#520,.F.);
#705=ORIENTED_EDGE('',*,*,#535,.T.);
#706=ORIENTED_EDGE('',*,*,#536,.F.);
#707=ORIENTED_EDGE('',*,*,#537,.F.);
#708=ORIENTED_EDGE('',*,*,#519,.F.);
#709=ORIENTED_EDGE('',*,*,#538,.T.);
#710=ORIENTED_EDGE('',*,*,#539,.F.);
#711=ORIENTED_EDGE('',*,*,#535,.F.);
#712=ORIENTED_EDGE('',*,*,#521,.F.);
#713=ORIENTED_EDGE('',*,*,#537,.T.);
#714=ORIENTED_EDGE('',*,*,#540,.F.);
#715=ORIENTED_EDGE('',*,*,#541,.F.);
#716=ORIENTED_EDGE('',*,*,#522,.F.);
#717=ORIENTED_EDGE('',*,*,#541,.T.);
#718=ORIENTED_EDGE('',*,*,#542,.F.);
#719=ORIENTED_EDGE('',*,*,#538,.F.);
#720=ORIENTED_EDGE('',*,*,#542,.T.);
#721=ORIENTED_EDGE('',*,*,#540,.T.);
#722=ORIENTED_EDGE('',*,*,#536,.T.);
#723=ORIENTED_EDGE('',*,*,#539,.T.);
#724=ORIENTED_EDGE('',*,*,#463,.T.);
#725=ORIENTED_EDGE('',*,*,#543,.F.);
#726=ORIENTED_EDGE('',*,*,#544,.T.);
#727=ORIENTED_EDGE('',*,*,#515,.F.);
#728=ORIENTED_EDGE('',*,*,#545,.F.);
#729=ORIENTED_EDGE('',*,*,#518,.F.);
#730=ORIENTED_EDGE('',*,*,#546,.F.);
#731=ORIENTED_EDGE('',*,*,#547,.F.);
#732=ORIENTED_EDGE('',*,*,#545,.T.);
#733=ORIENTED_EDGE('',*,*,#514,.F.);
#734=ORIENTED_EDGE('',*,*,#512,.T.);
#735=ORIENTED_EDGE('',*,*,#513,.F.);
#736=ORIENTED_EDGE('',*,*,#504,.F.);
#737=ORIENTED_EDGE('',*,*,#548,.F.);
#738=ORIENTED_EDGE('',*,*,#546,.T.);
#739=ORIENTED_EDGE('',*,*,#517,.F.);
#740=ORIENTED_EDGE('',*,*,#549,.F.);
#741=ORIENTED_EDGE('',*,*,#550,.F.);
#742=ORIENTED_EDGE('',*,*,#549,.T.);
#743=ORIENTED_EDGE('',*,*,#516,.F.);
#744=ORIENTED_EDGE('',*,*,#544,.F.);
#745=ORIENTED_EDGE('',*,*,#547,.T.);
#746=ORIENTED_EDGE('',*,*,#548,.T.);
#747=ORIENTED_EDGE('',*,*,#550,.T.);
#748=ORIENTED_EDGE('',*,*,#543,.T.);
#749=CYLINDRICAL_SURFACE('',#813,1.75000000000001);
#750=CYLINDRICAL_SURFACE('',#817,1.75000000000001);
#751=CYLINDRICAL_SURFACE('',#821,1.75000000000001);
#752=CYLINDRICAL_SURFACE('',#825,1.75000000000001);
#753=CYLINDRICAL_SURFACE('',#829,1.75000000000001);
#754=ADVANCED_FACE('',(#98),#749,.T.);
#755=ADVANCED_FACE('',(#99),#58,.T.);
#756=ADVANCED_FACE('',(#100),#750,.T.);
#757=ADVANCED_FACE('',(#101),#59,.T.);
#758=ADVANCED_FACE('',(#102),#751,.T.);
#759=ADVANCED_FACE('',(#103),#60,.T.);
#760=ADVANCED_FACE('',(#104),#752,.T.);
#761=ADVANCED_FACE('',(#105),#61,.T.);
#762=ADVANCED_FACE('',(#106),#753,.T.);
#763=ADVANCED_FACE('',(#107),#62,.T.);
#764=ADVANCED_FACE('',(#108),#63,.T.);
#765=ADVANCED_FACE('',(#109),#64,.T.);
#766=ADVANCED_FACE('',(#110),#65,.T.);
#767=ADVANCED_FACE('',(#111),#66,.T.);
#768=ADVANCED_FACE('',(#112,#14),#67,.T.);
#769=ADVANCED_FACE('',(#113),#68,.T.);
#770=ADVANCED_FACE('',(#114),#69,.T.);
#771=ADVANCED_FACE('',(#115),#70,.T.);
#772=ADVANCED_FACE('',(#116),#71,.T.);
#773=ADVANCED_FACE('',(#117,#15),#72,.T.);
#774=ADVANCED_FACE('',(#118),#73,.T.);
#775=ADVANCED_FACE('',(#119),#74,.T.);
#776=ADVANCED_FACE('',(#120),#75,.T.);
#777=ADVANCED_FACE('',(#121),#76,.T.);
#778=ADVANCED_FACE('',(#122,#16),#77,.T.);
#779=ADVANCED_FACE('',(#123),#78,.T.);
#780=ADVANCED_FACE('',(#124),#79,.T.);
#781=ADVANCED_FACE('',(#125),#80,.T.);
#782=ADVANCED_FACE('',(#126),#81,.T.);
#783=ADVANCED_FACE('',(#127,#17,#18,#19,#20,#21),#82,.T.);
#784=ADVANCED_FACE('',(#128),#83,.T.);
#785=ADVANCED_FACE('',(#129),#84,.T.);
#786=ADVANCED_FACE('',(#130),#85,.T.);
#787=ADVANCED_FACE('',(#131),#86,.T.);
#788=ADVANCED_FACE('',(#132,#22),#87,.T.);
#789=ADVANCED_FACE('',(#133),#88,.T.);
#790=ADVANCED_FACE('',(#134),#89,.T.);
#791=ADVANCED_FACE('',(#135),#90,.T.);
#792=ADVANCED_FACE('',(#136),#91,.T.);
#793=ADVANCED_FACE('',(#137,#23),#92,.T.);
#794=ADVANCED_FACE('',(#138),#93,.T.);
#795=ADVANCED_FACE('',(#139),#94,.T.);
#796=ADVANCED_FACE('',(#140),#95,.T.);
#797=ADVANCED_FACE('',(#141),#96,.T.);
#798=ADVANCED_FACE('',(#142),#97,.F.);
#799=CLOSED_SHELL('',(#754,#755,#756,#757,#758,#759,#760,#761,#762,#763,
#764,#765,#766,#767,#768,#769,#770,#771,#772,#773,#774,#775,#776,#777,#778,
#779,#780,#781,#782,#783,#784,#785,#786,#787,#788,#789,#790,#791,#792,#793,
#794,#795,#796,#797,#798));
#800=DERIVED_UNIT_ELEMENT(#802,1.);
#801=DERIVED_UNIT_ELEMENT(#1285,-3.);
#802=(
MASS_UNIT()
NAMED_UNIT(*)
SI_UNIT(.KILO.,.GRAM.)
);
#803=DERIVED_UNIT((#800,#801));
#804=MEASURE_REPRESENTATION_ITEM('density measure',
POSITIVE_RATIO_MEASURE(7850.),#803);
#805=PROPERTY_DEFINITION_REPRESENTATION(#810,#807);
#806=PROPERTY_DEFINITION_REPRESENTATION(#811,#808);
#807=REPRESENTATION('material name',(#809),#1282);
#808=REPRESENTATION('density',(#804),#1282);
#809=DESCRIPTIVE_REPRESENTATION_ITEM('Steel','Steel');
#810=PROPERTY_DEFINITION('material property','material name',#1292);
#811=PROPERTY_DEFINITION('material property','density of part',#1292);
#812=AXIS2_PLACEMENT_3D('',#1069,#868,#869);
#813=AXIS2_PLACEMENT_3D('',#1070,#870,#871);
#814=AXIS2_PLACEMENT_3D('',#1072,#872,#873);
#815=AXIS2_PLACEMENT_3D('',#1075,#875,#876);
#816=AXIS2_PLACEMENT_3D('',#1076,#877,#878);
#817=AXIS2_PLACEMENT_3D('',#1077,#879,#880);
#818=AXIS2_PLACEMENT_3D('',#1079,#881,#882);
#819=AXIS2_PLACEMENT_3D('',#1082,#884,#885);
#820=AXIS2_PLACEMENT_3D('',#1083,#886,#887);
#821=AXIS2_PLACEMENT_3D('',#1084,#888,#889);
#822=AXIS2_PLACEMENT_3D('',#1086,#890,#891);
#823=AXIS2_PLACEMENT_3D('',#1089,#893,#894);
#824=AXIS2_PLACEMENT_3D('',#1090,#895,#896);
#825=AXIS2_PLACEMENT_3D('',#1091,#897,#898);
#826=AXIS2_PLACEMENT_3D('',#1093,#899,#900);
#827=AXIS2_PLACEMENT_3D('',#1096,#902,#903);
#828=AXIS2_PLACEMENT_3D('',#1097,#904,#905);
#829=AXIS2_PLACEMENT_3D('',#1098,#906,#907);
#830=AXIS2_PLACEMENT_3D('',#1100,#908,#909);
#831=AXIS2_PLACEMENT_3D('',#1103,#911,#912);
#832=AXIS2_PLACEMENT_3D('',#1104,#913,#914);
#833=AXIS2_PLACEMENT_3D('',#1105,#915,#916);
#834=AXIS2_PLACEMENT_3D('',#1114,#921,#922);
#835=AXIS2_PLACEMENT_3D('',#1120,#926,#927);
#836=AXIS2_PLACEMENT_3D('',#1126,#931,#932);
#837=AXIS2_PLACEMENT_3D('',#1129,#935,#936);
#838=AXIS2_PLACEMENT_3D('',#1130,#937,#938);
#839=AXIS2_PLACEMENT_3D('',#1139,#943,#944);
#840=AXIS2_PLACEMENT_3D('',#1145,#948,#949);
#841=AXIS2_PLACEMENT_3D('',#1151,#953,#954);
#842=AXIS2_PLACEMENT_3D('',#1154,#957,#958);
#843=AXIS2_PLACEMENT_3D('',#1155,#959,#960);
#844=AXIS2_PLACEMENT_3D('',#1164,#965,#966);
#845=AXIS2_PLACEMENT_3D('',#1170,#970,#971);
#846=AXIS2_PLACEMENT_3D('',#1176,#975,#976);
#847=AXIS2_PLACEMENT_3D('',#1179,#979,#980);
#848=AXIS2_PLACEMENT_3D('',#1180,#981,#982);
#849=AXIS2_PLACEMENT_3D('',#1189,#987,#988);
#850=AXIS2_PLACEMENT_3D('',#1195,#992,#993);
#851=AXIS2_PLACEMENT_3D('',#1201,#997,#998);
#852=AXIS2_PLACEMENT_3D('',#1203,#1000,#1001);
#853=AXIS2_PLACEMENT_3D('',#1229,#1015,#1016);
#854=AXIS2_PLACEMENT_3D('',#1235,#1020,#1021);
#855=AXIS2_PLACEMENT_3D('',#1239,#1024,#1025);
#856=AXIS2_PLACEMENT_3D('',#1243,#1028,#1029);
#857=AXIS2_PLACEMENT_3D('',#1245,#1031,#1032);
#858=AXIS2_PLACEMENT_3D('',#1246,#1033,#1034);
#859=AXIS2_PLACEMENT_3D('',#1252,#1038,#1039);
#860=AXIS2_PLACEMENT_3D('',#1256,#1042,#1043);
#861=AXIS2_PLACEMENT_3D('',#1260,#1046,#1047);
#862=AXIS2_PLACEMENT_3D('',#1262,#1049,#1050);
#863=AXIS2_PLACEMENT_3D('',#1263,#1051,#1052);
#864=AXIS2_PLACEMENT_3D('',#1269,#1056,#1057);
#865=AXIS2_PLACEMENT_3D('',#1273,#1060,#1061);
#866=AXIS2_PLACEMENT_3D('',#1277,#1064,#1065);
#867=AXIS2_PLACEMENT_3D('',#1279,#1067,#1068);
#868=DIRECTION('axis',(0.,0.,1.));
#869=DIRECTION('refdir',(1.,0.,0.));
#870=DIRECTION('center_axis',(0.,0.,1.));
#871=DIRECTION('ref_axis',(1.,0.,0.));
#872=DIRECTION('center_axis',(0.,0.,1.));
#873=DIRECTION('ref_axis',(1.,0.,0.));
#874=DIRECTION('',(0.,0.,-1.));
#875=DIRECTION('center_axis',(0.,0.,-1.));
#876=DIRECTION('ref_axis',(1.,0.,0.));
#877=DIRECTION('center_axis',(0.,0.,1.));
#878=DIRECTION('ref_axis',(1.,0.,0.));
#879=DIRECTION('center_axis',(0.,0.,1.));
#880=DIRECTION('ref_axis',(1.,0.,0.));
#881=DIRECTION('center_axis',(0.,0.,1.));
#882=DIRECTION('ref_axis',(1.,0.,0.));
#883=DIRECTION('',(0.,0.,-1.));
#884=DIRECTION('center_axis',(0.,0.,-1.));
#885=DIRECTION('ref_axis',(1.,0.,0.));
#886=DIRECTION('center_axis',(0.,0.,1.));
#887=DIRECTION('ref_axis',(1.,0.,0.));
#888=DIRECTION('center_axis',(0.,0.,1.));
#889=DIRECTION('ref_axis',(1.,0.,0.));
#890=DIRECTION('center_axis',(0.,0.,1.));
#891=DIRECTION('ref_axis',(1.,0.,0.));
#892=DIRECTION('',(0.,0.,-1.));
#893=DIRECTION('center_axis',(0.,0.,-1.));
#894=DIRECTION('ref_axis',(1.,0.,0.));
#895=DIRECTION('center_axis',(0.,0.,1.));
#896=DIRECTION('ref_axis',(1.,0.,0.));
#897=DIRECTION('center_axis',(0.,0.,1.));
#898=DIRECTION('ref_axis',(1.,0.,0.));
#899=DIRECTION('center_axis',(0.,0.,1.));
#900=DIRECTION('ref_axis',(1.,0.,0.));
#901=DIRECTION('',(0.,0.,-1.));
#902=DIRECTION('center_axis',(0.,0.,-1.));
#903=DIRECTION('ref_axis',(1.,0.,0.));
#904=DIRECTION('center_axis',(0.,0.,1.));
#905=DIRECTION('ref_axis',(1.,0.,0.));
#906=DIRECTION('center_axis',(0.,0.,1.));
#907=DIRECTION('ref_axis',(1.,0.,0.));
#908=DIRECTION('center_axis',(0.,0.,1.));
#909=DIRECTION('ref_axis',(1.,0.,0.));
#910=DIRECTION('',(0.,0.,-1.));
#911=DIRECTION('center_axis',(0.,0.,-1.));
#912=DIRECTION('ref_axis',(1.,0.,0.));
#913=DIRECTION('center_axis',(0.,0.,1.));
#914=DIRECTION('ref_axis',(1.,0.,0.));
#915=DIRECTION('center_axis',(0.,-1.,0.));
#916=DIRECTION('ref_axis',(1.,0.,0.));
#917=DIRECTION('',(-1.,0.,0.));
#918=DIRECTION('',(0.,0.,1.));
#919=DIRECTION('',(1.,0.,0.));
#920=DIRECTION('',(0.,0.,1.));
#921=DIRECTION('center_axis',(1.,0.,0.));
#922=DIRECTION('ref_axis',(0.,1.,0.));
#923=DIRECTION('',(0.,-1.,0.));
#924=DIRECTION('',(0.,0.,1.));
#925=DIRECTION('',(0.,1.,0.));
#926=DIRECTION('center_axis',(-1.,0.,0.));
#927=DIRECTION('ref_axis',(0.,-1.,0.));
#928=DIRECTION('',(0.,1.,0.));
#929=DIRECTION('',(0.,-1.,0.));
#930=DIRECTION('',(0.,0.,1.));
#931=DIRECTION('center_axis',(0.,1.,0.));
#932=DIRECTION('ref_axis',(-1.,0.,0.));
#933=DIRECTION('',(1.,0.,0.));
#934=DIRECTION('',(-1.,0.,0.));
#935=DIRECTION('center_axis',(0.,0.,1.));
#936=DIRECTION('ref_axis',(1.,0.,0.));
#937=DIRECTION('center_axis',(0.,-1.,0.));
#938=DIRECTION('ref_axis',(1.,0.,0.));
#939=DIRECTION('',(-1.,0.,0.));
#940=DIRECTION('',(0.,0.,1.));
#941=DIRECTION('',(1.,0.,0.));
#942=DIRECTION('',(0.,0.,1.));
#943=DIRECTION('center_axis',(1.,0.,0.));
#944=DIRECTION('ref_axis',(0.,1.,0.));
#945=DIRECTION('',(0.,-1.,0.));
#946=DIRECTION('',(0.,0.,1.));
#947=DIRECTION('',(0.,1.,0.));
#948=DIRECTION('center_axis',(-1.,0.,0.));
#949=DIRECTION('ref_axis',(0.,-1.,0.));
#950=DIRECTION('',(0.,1.,0.));
#951=DIRECTION('',(0.,-1.,0.));
#952=DIRECTION('',(0.,0.,1.));
#953=DIRECTION('center_axis',(0.,1.,0.));
#954=DIRECTION('ref_axis',(-1.,0.,0.));
#955=DIRECTION('',(1.,0.,0.));
#956=DIRECTION('',(-1.,0.,0.));
#957=DIRECTION('center_axis',(0.,0.,1.));
#958=DIRECTION('ref_axis',(1.,0.,0.));
#959=DIRECTION('center_axis',(0.,-1.,0.));
#960=DIRECTION('ref_axis',(1.,0.,0.));
#961=DIRECTION('',(-1.,0.,0.));
#962=DIRECTION('',(0.,0.,1.));
#963=DIRECTION('',(1.,0.,0.));
#964=DIRECTION('',(0.,0.,1.));
#965=DIRECTION('center_axis',(1.,0.,0.));
#966=DIRECTION('ref_axis',(0.,1.,0.));
#967=DIRECTION('',(0.,-1.,0.));
#968=DIRECTION('',(0.,0.,1.));
#969=DIRECTION('',(0.,1.,0.));
#970=DIRECTION('center_axis',(-1.,0.,0.));
#971=DIRECTION('ref_axis',(0.,-1.,0.));
#972=DIRECTION('',(0.,1.,0.));
#973=DIRECTION('',(0.,-1.,0.));
#974=DIRECTION('',(0.,0.,1.));
#975=DIRECTION('center_axis',(0.,1.,0.));
#976=DIRECTION('ref_axis',(-1.,0.,0.));
#977=DIRECTION('',(1.,0.,0.));
#978=DIRECTION('',(-1.,0.,0.));
#979=DIRECTION('center_axis',(0.,0.,1.));
#980=DIRECTION('ref_axis',(1.,0.,0.));
#981=DIRECTION('center_axis',(1.,0.,0.));
#982=DIRECTION('ref_axis',(0.,1.,0.));
#983=DIRECTION('',(0.,-1.,0.));
#984=DIRECTION('',(0.,0.,1.));
#985=DIRECTION('',(0.,1.,0.));
#986=DIRECTION('',(0.,0.,1.));
#987=DIRECTION('center_axis',(0.,-1.,0.));
#988=DIRECTION('ref_axis',(1.,0.,0.));
#989=DIRECTION('',(-1.,0.,0.));
#990=DIRECTION('',(1.,0.,0.));
#991=DIRECTION('',(0.,0.,1.));
#992=DIRECTION('center_axis',(-1.,0.,0.));
#993=DIRECTION('ref_axis',(0.,-1.,0.));
#994=DIRECTION('',(0.,1.,0.));
#995=DIRECTION('',(0.,-1.,0.));
#996=DIRECTION('',(0.,0.,1.));
#997=DIRECTION('center_axis',(0.,0.,1.));
#998=DIRECTION('ref_axis',(1.,0.,0.));
#999=DIRECTION('',(-1.,0.,0.));
#1000=DIRECTION('center_axis',(0.,0.,1.));
#1001=DIRECTION('ref_axis',(1.,0.,0.));
#1002=DIRECTION('',(-1.,0.,0.));
#1003=DIRECTION('',(0.,-1.,0.));
#1004=DIRECTION('',(1.,0.,0.));
#1005=DIRECTION('',(0.,1.,0.));
#1006=DIRECTION('',(-1.,0.,0.));
#1007=DIRECTION('',(1.,0.,0.));
#1008=DIRECTION('',(0.,-1.,0.));
#1009=DIRECTION('',(-1.,0.,0.));
#1010=DIRECTION('',(0.,1.,0.));
#1011=DIRECTION('',(-1.,0.,0.));
#1012=DIRECTION('',(0.,1.,0.));
#1013=DIRECTION('',(1.,0.,0.));
#1014=DIRECTION('',(0.,-1.,0.));
#1015=DIRECTION('center_axis',(-1.,0.,0.));
#1016=DIRECTION('ref_axis',(0.,-1.,0.));
#1017=DIRECTION('',(0.,0.,1.));
#1018=DIRECTION('',(0.,-1.,0.));
#1019=DIRECTION('',(0.,0.,1.));
#1020=DIRECTION('center_axis',(0.,-1.,0.));
#1021=DIRECTION('ref_axis',(1.,0.,0.));
#1022=DIRECTION('',(0.,0.,1.));
#1023=DIRECTION('',(1.,0.,0.));
#1024=DIRECTION('center_axis',(0.,1.,0.));
#1025=DIRECTION('ref_axis',(-1.,0.,0.));
#1026=DIRECTION('',(-1.,0.,0.));
#1027=DIRECTION('',(0.,0.,1.));
#1028=DIRECTION('center_axis',(1.,0.,0.));
#1029=DIRECTION('ref_axis',(0.,1.,0.));
#1030=DIRECTION('',(0.,1.,0.));
#1031=DIRECTION('center_axis',(0.,0.,1.));
#1032=DIRECTION('ref_axis',(1.,0.,0.));
#1033=DIRECTION('center_axis',(1.,0.,0.));
#1034=DIRECTION('ref_axis',(0.,1.,0.));
#1035=DIRECTION('',(0.,0.,1.));
#1036=DIRECTION('',(0.,1.,0.));
#1037=DIRECTION('',(0.,0.,1.));
#1038=DIRECTION('center_axis',(0.,1.,0.));
#1039=DIRECTION('ref_axis',(-1.,0.,0.));
#1040=DIRECTION('',(0.,0.,1.));
#1041=DIRECTION('',(-1.,0.,0.));
#1042=DIRECTION('center_axis',(0.,-1.,0.));
#1043=DIRECTION('ref_axis',(1.,0.,0.));
#1044=DIRECTION('',(1.,0.,0.));
#1045=DIRECTION('',(0.,0.,1.));
#1046=DIRECTION('center_axis',(-1.,0.,0.));
#1047=DIRECTION('ref_axis',(0.,-1.,0.));
#1048=DIRECTION('',(0.,-1.,0.));
#1049=DIRECTION('center_axis',(0.,0.,1.));
#1050=DIRECTION('ref_axis',(1.,0.,0.));
#1051=DIRECTION('center_axis',(-1.,0.,0.));
#1052=DIRECTION('ref_axis',(0.,-1.,0.));
#1053=DIRECTION('',(0.,1.,0.));
#1054=DIRECTION('',(0.,0.,1.));
#1055=DIRECTION('',(0.,0.,1.));
#1056=DIRECTION('center_axis',(0.,1.,0.));
#1057=DIRECTION('ref_axis',(-1.,0.,0.));
#1058=DIRECTION('',(0.,0.,1.));
#1059=DIRECTION('',(1.,0.,0.));
#1060=DIRECTION('center_axis',(1.,0.,0.));
#1061=DIRECTION('ref_axis',(0.,1.,0.));
#1062=DIRECTION('',(0.,-1.,0.));
#1063=DIRECTION('',(0.,0.,1.));
#1064=DIRECTION('center_axis',(0.,-1.,0.));
#1065=DIRECTION('ref_axis',(1.,0.,0.));
#1066=DIRECTION('',(-1.,0.,0.));
#1067=DIRECTION('center_axis',(0.,0.,1.));
#1068=DIRECTION('ref_axis',(1.,0.,0.));
#1069=CARTESIAN_POINT('',(0.,0.,0.));
#1070=CARTESIAN_POINT('Origin',(220.000000841916,-126.,6.5));
#1071=CARTESIAN_POINT('',(218.250000841916,-126.,13.5));
#1072=CARTESIAN_POINT('Origin',(220.000000841916,-126.,13.5));
#1073=CARTESIAN_POINT('',(218.250000841916,-126.,11.5));
#1074=CARTESIAN_POINT('',(218.250000841916,-126.,6.5));
#1075=CARTESIAN_POINT('Origin',(220.000000841916,-126.,11.5));
#1076=CARTESIAN_POINT('Origin',(220.000000841916,-126.,13.5));
#1077=CARTESIAN_POINT('Origin',(199.999999158084,-126.,6.5));
#1078=CARTESIAN_POINT('',(198.249999158084,-126.,13.5));
#1079=CARTESIAN_POINT('Origin',(199.999999158084,-126.,13.5));
#1080=CARTESIAN_POINT('',(198.249999158084,-126.,11.5));
#1081=CARTESIAN_POINT('',(198.249999158084,-126.,6.5));
#1082=CARTESIAN_POINT('Origin',(199.999999158084,-126.,11.5));
#1083=CARTESIAN_POINT('Origin',(199.999999158084,-126.,13.5));
#1084=CARTESIAN_POINT('Origin',(210.,-136.000000841916,6.5));
#1085=CARTESIAN_POINT('',(208.25,-136.000000841916,13.5));
#1086=CARTESIAN_POINT('Origin',(210.,-136.000000841916,13.5));
#1087=CARTESIAN_POINT('',(208.25,-136.000000841916,11.5));
#1088=CARTESIAN_POINT('',(208.25,-136.000000841916,6.5));
#1089=CARTESIAN_POINT('Origin',(210.,-136.000000841916,11.5));
#1090=CARTESIAN_POINT('Origin',(210.,-136.000000841916,13.5));
#1091=CARTESIAN_POINT('Origin',(210.,-115.999999158084,6.5));
#1092=CARTESIAN_POINT('',(208.25,-115.999999158084,13.5));
#1093=CARTESIAN_POINT('Origin',(210.,-115.999999158084,13.5));
#1094=CARTESIAN_POINT('',(208.25,-115.999999158084,11.5));
#1095=CARTESIAN_POINT('',(208.25,-115.999999158084,6.5));
#1096=CARTESIAN_POINT('Origin',(210.,-115.999999158084,11.5));
#1097=CARTESIAN_POINT('Origin',(210.,-115.999999158084,13.5));
#1098=CARTESIAN_POINT('Origin',(210.,-126.,6.5));
#1099=CARTESIAN_POINT('',(208.25,-126.,13.5));
#1100=CARTESIAN_POINT('Origin',(210.,-126.,13.5));
#1101=CARTESIAN_POINT('',(208.25,-126.,11.5));
#1102=CARTESIAN_POINT('',(208.25,-126.,6.5));
#1103=CARTESIAN_POINT('Origin',(210.,-126.,11.5));
#1104=CARTESIAN_POINT('Origin',(210.,-126.,13.5));
#1105=CARTESIAN_POINT('Origin',(196.999999158084,-129.,6.5));
#1106=CARTESIAN_POINT('',(202.999999158084,-129.,8.));
#1107=CARTESIAN_POINT('',(196.999999158084,-129.,8.));
#1108=CARTESIAN_POINT('',(203.499999579042,-129.,8.));
#1109=CARTESIAN_POINT('',(202.999999158084,-129.,11.5));
#1110=CARTESIAN_POINT('',(202.999999158084,-129.,6.5));
#1111=CARTESIAN_POINT('',(196.999999158084,-129.,11.5));
#1112=CARTESIAN_POINT('',(202.999999158084,-129.,11.5));
#1113=CARTESIAN_POINT('',(196.999999158084,-129.,6.5));
#1114=CARTESIAN_POINT('Origin',(202.999999158084,-129.,6.5));
#1115=CARTESIAN_POINT('',(202.999999158084,-123.,8.));
#1116=CARTESIAN_POINT('',(202.999999158084,-127.5,8.));
#1117=CARTESIAN_POINT('',(202.999999158084,-123.,11.5));
#1118=CARTESIAN_POINT('',(202.999999158084,-123.,6.5));
#1119=CARTESIAN_POINT('',(202.999999158084,-123.,11.5));
#1120=CARTESIAN_POINT('Origin',(196.999999158084,-123.,6.5));
#1121=CARTESIAN_POINT('',(196.999999158084,-123.,8.));
#1122=CARTESIAN_POINT('',(196.999999158084,-124.5,8.));
#1123=CARTESIAN_POINT('',(196.999999158084,-123.,11.5));
#1124=CARTESIAN_POINT('',(196.999999158084,-129.,11.5));
#1125=CARTESIAN_POINT('',(196.999999158084,-123.,6.5));
#1126=CARTESIAN_POINT('Origin',(202.999999158084,-123.,6.5));
#1127=CARTESIAN_POINT('',(206.499999579042,-123.,8.));
#1128=CARTESIAN_POINT('',(196.999999158084,-123.,11.5));
#1129=CARTESIAN_POINT('Origin',(199.999999158084,-126.,11.5));
#1130=CARTESIAN_POINT('Origin',(217.000000841916,-129.,6.5));
#1131=CARTESIAN_POINT('',(223.000000841916,-129.,8.));
#1132=CARTESIAN_POINT('',(217.000000841916,-129.,8.));
#1133=CARTESIAN_POINT('',(213.500000420958,-129.,8.));
#1134=CARTESIAN_POINT('',(223.000000841916,-129.,11.5));
#1135=CARTESIAN_POINT('',(223.000000841916,-129.,6.5));
#1136=CARTESIAN_POINT('',(217.000000841916,-129.,11.5));
#1137=CARTESIAN_POINT('',(223.000000841916,-129.,11.5));
#1138=CARTESIAN_POINT('',(217.000000841916,-129.,6.5));
#1139=CARTESIAN_POINT('Origin',(223.000000841916,-129.,6.5));
#1140=CARTESIAN_POINT('',(223.000000841916,-123.,8.));
#1141=CARTESIAN_POINT('',(223.000000841916,-127.5,8.));
#1142=CARTESIAN_POINT('',(223.000000841916,-123.,11.5));
#1143=CARTESIAN_POINT('',(223.000000841916,-123.,6.5));
#1144=CARTESIAN_POINT('',(223.000000841916,-123.,11.5));
#1145=CARTESIAN_POINT('Origin',(217.000000841916,-123.,6.5));
#1146=CARTESIAN_POINT('',(217.000000841916,-123.,8.));
#1147=CARTESIAN_POINT('',(217.000000841916,-124.5,8.));
#1148=CARTESIAN_POINT('',(217.000000841916,-123.,11.5));
#1149=CARTESIAN_POINT('',(217.000000841916,-129.,11.5));
#1150=CARTESIAN_POINT('',(217.000000841916,-123.,6.5));
#1151=CARTESIAN_POINT('Origin',(223.000000841916,-123.,6.5));
#1152=CARTESIAN_POINT('',(216.500000420958,-123.,8.));
#1153=CARTESIAN_POINT('',(217.000000841916,-123.,11.5));
#1154=CARTESIAN_POINT('Origin',(220.000000841916,-126.,11.5));
#1155=CARTESIAN_POINT('Origin',(206.999998316169,-129.,6.5));
#1156=CARTESIAN_POINT('',(213.000001683831,-129.,8.));
#1157=CARTESIAN_POINT('',(206.999998316169,-129.,8.));
#1158=CARTESIAN_POINT('',(208.499999158084,-129.,8.));
#1159=CARTESIAN_POINT('',(213.000001683831,-129.,11.5));
#1160=CARTESIAN_POINT('',(213.000001683831,-129.,6.5));
#1161=CARTESIAN_POINT('',(206.999998316169,-129.,11.5));
#1162=CARTESIAN_POINT('',(213.000001683831,-129.,11.5));
#1163=CARTESIAN_POINT('',(206.999998316169,-129.,6.5));
#1164=CARTESIAN_POINT('Origin',(213.000001683831,-129.,6.5));
#1165=CARTESIAN_POINT('',(213.000001683831,-123.,8.));
#1166=CARTESIAN_POINT('',(213.000001683831,-127.5,8.));
#1167=CARTESIAN_POINT('',(213.000001683831,-123.,11.5));
#1168=CARTESIAN_POINT('',(213.000001683831,-123.,6.5));
#1169=CARTESIAN_POINT('',(213.000001683831,-123.,11.5));
#1170=CARTESIAN_POINT('Origin',(206.999998316169,-123.,6.5));
#1171=CARTESIAN_POINT('',(206.999998316169,-123.,8.));
#1172=CARTESIAN_POINT('',(206.999998316169,-124.5,8.));
#1173=CARTESIAN_POINT('',(206.999998316169,-123.,11.5));
#1174=CARTESIAN_POINT('',(206.999998316169,-129.,11.5));
#1175=CARTESIAN_POINT('',(206.999998316169,-123.,6.5));
#1176=CARTESIAN_POINT('Origin',(213.000001683831,-123.,6.5));
#1177=CARTESIAN_POINT('',(211.500000841916,-123.,8.));
#1178=CARTESIAN_POINT('',(206.999998316169,-123.,11.5));
#1179=CARTESIAN_POINT('Origin',(210.,-126.,11.5));
#1180=CARTESIAN_POINT('Origin',(213.5,-111.,6.5));
#1181=CARTESIAN_POINT('',(213.5,-106.,8.));
#1182=CARTESIAN_POINT('',(213.5,-111.,8.));
#1183=CARTESIAN_POINT('',(213.5,-118.5,8.));
#1184=CARTESIAN_POINT('',(213.5,-106.,11.5));
#1185=CARTESIAN_POINT('',(213.5,-106.,6.5));
#1186=CARTESIAN_POINT('',(213.5,-111.,11.5));
#1187=CARTESIAN_POINT('',(213.5,-106.,11.5));
#1188=CARTESIAN_POINT('',(213.5,-111.,6.5));
#1189=CARTESIAN_POINT('Origin',(206.5,-111.,6.5));
#1190=CARTESIAN_POINT('',(206.5,-111.,8.));
#1191=CARTESIAN_POINT('',(208.25,-111.,8.));
#1192=CARTESIAN_POINT('',(206.5,-111.,11.5));
#1193=CARTESIAN_POINT('',(213.5,-111.,11.5));
#1194=CARTESIAN_POINT('',(206.5,-111.,6.5));
#1195=CARTESIAN_POINT('Origin',(206.5,-106.,6.5));
#1196=CARTESIAN_POINT('',(206.5,-106.,8.));
#1197=CARTESIAN_POINT('',(206.5,-116.,8.));
#1198=CARTESIAN_POINT('',(206.5,-106.,11.5));
#1199=CARTESIAN_POINT('',(206.5,-111.,11.5));
#1200=CARTESIAN_POINT('',(206.5,-106.,6.5));
#1201=CARTESIAN_POINT('Origin',(210.,-108.5,11.5));
#1202=CARTESIAN_POINT('',(195.,-106.,11.5));
#1203=CARTESIAN_POINT('Origin',(210.,-126.,8.));
#1204=CARTESIAN_POINT('',(195.,-106.,8.));
#1205=CARTESIAN_POINT('',(195.,-106.,8.));
#1206=CARTESIAN_POINT('',(195.,-146.,8.));
#1207=CARTESIAN_POINT('',(195.,-146.,8.));
#1208=CARTESIAN_POINT('',(225.,-146.,8.));
#1209=CARTESIAN_POINT('',(225.,-146.,8.));
#1210=CARTESIAN_POINT('',(225.,-106.,8.));
#1211=CARTESIAN_POINT('',(225.,-106.,8.));
#1212=CARTESIAN_POINT('',(195.,-106.,8.));
#1213=CARTESIAN_POINT('',(207.,-112.999999158084,8.));
#1214=CARTESIAN_POINT('',(213.,-112.999999158084,8.));
#1215=CARTESIAN_POINT('',(211.5,-112.999999158084,8.));
#1216=CARTESIAN_POINT('',(213.,-118.999999158084,8.));
#1217=CARTESIAN_POINT('',(213.,-122.499999579042,8.));
#1218=CARTESIAN_POINT('',(207.,-118.999999158084,8.));
#1219=CARTESIAN_POINT('',(208.5,-118.999999158084,8.));
#1220=CARTESIAN_POINT('',(207.,-119.499999579042,8.));
#1221=CARTESIAN_POINT('',(213.,-139.000000841916,8.));
#1222=CARTESIAN_POINT('',(207.,-139.000000841916,8.));
#1223=CARTESIAN_POINT('',(208.5,-139.000000841916,8.));
#1224=CARTESIAN_POINT('',(207.,-133.000000841916,8.));
#1225=CARTESIAN_POINT('',(207.,-129.500000420958,8.));
#1226=CARTESIAN_POINT('',(213.,-133.000000841916,8.));
#1227=CARTESIAN_POINT('',(211.5,-133.000000841916,8.));
#1228=CARTESIAN_POINT('',(213.,-132.500000420958,8.));
#1229=CARTESIAN_POINT('Origin',(207.,-133.000000841916,6.5));
#1230=CARTESIAN_POINT('',(207.,-139.000000841916,11.5));
#1231=CARTESIAN_POINT('',(207.,-139.000000841916,6.5));
#1232=CARTESIAN_POINT('',(207.,-133.000000841916,11.5));
#1233=CARTESIAN_POINT('',(207.,-139.000000841916,11.5));
#1234=CARTESIAN_POINT('',(207.,-133.000000841916,6.5));
#1235=CARTESIAN_POINT('Origin',(207.,-139.000000841916,6.5));
#1236=CARTESIAN_POINT('',(213.,-139.000000841916,11.5));
#1237=CARTESIAN_POINT('',(213.,-139.000000841916,6.5));
#1238=CARTESIAN_POINT('',(213.,-139.000000841916,11.5));
#1239=CARTESIAN_POINT('Origin',(213.,-133.000000841916,6.5));
#1240=CARTESIAN_POINT('',(213.,-133.000000841916,11.5));
#1241=CARTESIAN_POINT('',(207.,-133.000000841916,11.5));
#1242=CARTESIAN_POINT('',(213.,-133.000000841916,6.5));
#1243=CARTESIAN_POINT('Origin',(213.,-139.000000841916,6.5));
#1244=CARTESIAN_POINT('',(213.,-133.000000841916,11.5));
#1245=CARTESIAN_POINT('Origin',(210.,-136.000000841916,11.5));
#1246=CARTESIAN_POINT('Origin',(213.,-118.999999158084,6.5));
#1247=CARTESIAN_POINT('',(213.,-112.999999158084,11.5));
#1248=CARTESIAN_POINT('',(213.,-112.999999158084,6.5));
#1249=CARTESIAN_POINT('',(213.,-118.999999158084,11.5));
#1250=CARTESIAN_POINT('',(213.,-112.999999158084,11.5));
#1251=CARTESIAN_POINT('',(213.,-118.999999158084,6.5));
#1252=CARTESIAN_POINT('Origin',(213.,-112.999999158084,6.5));
#1253=CARTESIAN_POINT('',(207.,-112.999999158084,11.5));
#1254=CARTESIAN_POINT('',(207.,-112.999999158084,6.5));
#1255=CARTESIAN_POINT('',(207.,-112.999999158084,11.5));
#1256=CARTESIAN_POINT('Origin',(207.,-118.999999158084,6.5));
#1257=CARTESIAN_POINT('',(207.,-118.999999158084,11.5));
#1258=CARTESIAN_POINT('',(213.,-118.999999158084,11.5));
#1259=CARTESIAN_POINT('',(207.,-118.999999158084,6.5));
#1260=CARTESIAN_POINT('Origin',(207.,-112.999999158084,6.5));
#1261=CARTESIAN_POINT('',(207.,-118.999999158084,11.5));
#1262=CARTESIAN_POINT('Origin',(210.,-115.999999158084,11.5));
#1263=CARTESIAN_POINT('Origin',(195.,-106.,6.5));
#1264=CARTESIAN_POINT('',(195.,-146.,6.5));
#1265=CARTESIAN_POINT('',(195.,-106.,6.5));
#1266=CARTESIAN_POINT('',(195.,-146.,6.5));
#1267=CARTESIAN_POINT('',(195.,-146.,6.5));
#1268=CARTESIAN_POINT('',(195.,-106.,6.5));
#1269=CARTESIAN_POINT('Origin',(225.,-106.,6.5));
#1270=CARTESIAN_POINT('',(225.,-106.,6.5));
#1271=CARTESIAN_POINT('',(225.,-106.,6.5));
#1272=CARTESIAN_POINT('',(195.,-106.,6.5));
#1273=CARTESIAN_POINT('Origin',(225.,-146.,6.5));
#1274=CARTESIAN_POINT('',(225.,-146.,6.5));
#1275=CARTESIAN_POINT('',(225.,-106.,6.5));
#1276=CARTESIAN_POINT('',(225.,-146.,6.5));
#1277=CARTESIAN_POINT('Origin',(195.,-146.,6.5));
#1278=CARTESIAN_POINT('',(225.,-146.,6.5));
#1279=CARTESIAN_POINT('Origin',(210.,-126.,6.5));
#1280=UNCERTAINTY_MEASURE_WITH_UNIT(LENGTH_MEASURE(0.01),#1284,
'DISTANCE_ACCURACY_VALUE',
'Maximum model space distance between geometric entities at asserted c
onnectivities');
#1281=UNCERTAINTY_MEASURE_WITH_UNIT(LENGTH_MEASURE(0.01),#1284,
'DISTANCE_ACCURACY_VALUE',
'Maximum model space distance between geometric entities at asserted c
onnectivities');
#1282=(
GEOMETRIC_REPRESENTATION_CONTEXT(3)
GLOBAL_UNCERTAINTY_ASSIGNED_CONTEXT((#1280))
GLOBAL_UNIT_ASSIGNED_CONTEXT((#1284,#1286,#1287))
REPRESENTATION_CONTEXT('','3D')
);
#1283=(
GEOMETRIC_REPRESENTATION_CONTEXT(3)
GLOBAL_UNCERTAINTY_ASSIGNED_CONTEXT((#1281))
GLOBAL_UNIT_ASSIGNED_CONTEXT((#1284,#1286,#1287))
REPRESENTATION_CONTEXT('','3D')
);
#1284=(
LENGTH_UNIT()
NAMED_UNIT(*)
SI_UNIT(.MILLI.,.METRE.)
);
#1285=(
LENGTH_UNIT()
NAMED_UNIT(*)
SI_UNIT($,.METRE.)
);
#1286=(
NAMED_UNIT(*)
PLANE_ANGLE_UNIT()
SI_UNIT($,.RADIAN.)
);
#1287=(
NAMED_UNIT(*)
SI_UNIT($,.STERADIAN.)
SOLID_ANGLE_UNIT()
);
#1288=SHAPE_DEFINITION_REPRESENTATION(#1289,#1290);
#1289=PRODUCT_DEFINITION_SHAPE('',$,#1292);
#1290=SHAPE_REPRESENTATION('',(#812),#1282);
#1291=PRODUCT_DEFINITION_CONTEXT('part definition',#1296,'design');
#1292=PRODUCT_DEFINITION('Button Board','Button Board',#1293,#1291);
#1293=PRODUCT_DEFINITION_FORMATION('',$,#1298);
#1294=PRODUCT_RELATED_PRODUCT_CATEGORY('Button Board','Button Board',(#1298));
#1295=APPLICATION_PROTOCOL_DEFINITION('international standard',
'automotive_design',2009,#1296);
#1296=APPLICATION_CONTEXT(
'Core Data for Automotive Mechanical Design Process');
#1297=PRODUCT_CONTEXT('part definition',#1296,'mechanical');
#1298=PRODUCT('Button Board','Button Board',$,(#1297));
#1299=PRESENTATION_STYLE_ASSIGNMENT((#1306));
#1300=PRESENTATION_STYLE_ASSIGNMENT((#1307));
#1301=PRESENTATION_STYLE_ASSIGNMENT((#1308));
#1302=PRESENTATION_STYLE_ASSIGNMENT((#1309));
#1303=PRESENTATION_STYLE_ASSIGNMENT((#1310));
#1304=PRESENTATION_STYLE_ASSIGNMENT((#1311));
#1305=PRESENTATION_STYLE_ASSIGNMENT((#1312));
#1306=SURFACE_STYLE_USAGE(.BOTH.,#1313);
#1307=SURFACE_STYLE_USAGE(.BOTH.,#1314);
#1308=SURFACE_STYLE_USAGE(.BOTH.,#1315);
#1309=SURFACE_STYLE_USAGE(.BOTH.,#1316);
#1310=SURFACE_STYLE_USAGE(.BOTH.,#1317);
#1311=SURFACE_STYLE_USAGE(.BOTH.,#1318);
#1312=SURFACE_STYLE_USAGE(.BOTH.,#1319);
#1313=SURFACE_SIDE_STYLE('',(#1320));
#1314=SURFACE_SIDE_STYLE('',(#1321));
#1315=SURFACE_SIDE_STYLE('',(#1322));
#1316=SURFACE_SIDE_STYLE('',(#1323));
#1317=SURFACE_SIDE_STYLE('',(#1324));
#1318=SURFACE_SIDE_STYLE('',(#1325));
#1319=SURFACE_SIDE_STYLE('',(#1326));
#1320=SURFACE_STYLE_FILL_AREA(#1327);
#1321=SURFACE_STYLE_FILL_AREA(#1328);
#1322=SURFACE_STYLE_FILL_AREA(#1329);
#1323=SURFACE_STYLE_FILL_AREA(#1330);
#1324=SURFACE_STYLE_FILL_AREA(#1331);
#1325=SURFACE_STYLE_FILL_AREA(#1332);
#1326=SURFACE_STYLE_FILL_AREA(#1333);
#1327=FILL_AREA_STYLE('Steel - Satin',(#1334));
#1328=FILL_AREA_STYLE('Plastic - Matte (Red)',(#1335));
#1329=FILL_AREA_STYLE('Plastic - Matte (Black)',(#1336));
#1330=FILL_AREA_STYLE('Silver - Polished',(#1337));
#1331=FILL_AREA_STYLE('Plastic - Matte (White)',(#1338));
#1332=FILL_AREA_STYLE('Plastic - Matte (Green)',(#1339));
#1333=FILL_AREA_STYLE('PEEK',(#1340));
#1334=FILL_AREA_STYLE_COLOUR('Steel - Satin',#1341);
#1335=FILL_AREA_STYLE_COLOUR('Plastic - Matte (Red)',#1342);
#1336=FILL_AREA_STYLE_COLOUR('Plastic - Matte (Black)',#1343);
#1337=FILL_AREA_STYLE_COLOUR('Silver - Polished',#1344);
#1338=FILL_AREA_STYLE_COLOUR('Plastic - Matte (White)',#1345);
#1339=FILL_AREA_STYLE_COLOUR('Plastic - Matte (Green)',#1346);
#1340=FILL_AREA_STYLE_COLOUR('PEEK',#1347);
#1341=COLOUR_RGB('Steel - Satin',0.627450980392157,0.627450980392157,0.627450980392157);
#1342=COLOUR_RGB('Plastic - Matte (Red)',0.768627450980392,0.207843137254902,
0.152941176470588);
#1343=COLOUR_RGB('Plastic - Matte (Black)',0.0980392156862745,0.0980392156862745,
0.0980392156862745);
#1344=COLOUR_RGB('Silver - Polished',0.984313725490196,0.980392156862745,
0.96078431372549);
#1345=COLOUR_RGB('Plastic - Matte (White)',0.964705882352941,0.964705882352941,
0.952941176470588);
#1346=COLOUR_RGB('Plastic - Matte (Green)',0.266666666666667,0.588235294117647,
0.282352941176471);
#1347=COLOUR_RGB('PEEK',0.6,0.509803921568627,0.368627450980392);
ENDSEC;
END-ISO-10303-21;
