ISO-10303-21;
HEADER;
/* Generated by software containing ST-Developer
 * from STEP Tools, Inc. (www.steptools.com) 
 */

FILE_DESCRIPTION(
/* description */ (''),
/* implementation_level */ '2;1');

FILE_NAME(
/* name */ 'GPS.step',
/* time_stamp */ '2026-03-12T19:55:20-05:00',
/* author */ (''),
/* organization */ (''),
/* preprocessor_version */ 'ST-DEVELOPER v20.1',
/* originating_system */ 'Autodesk Translation Framework v14.24.0.0',
/* authorisation */ '');

FILE_SCHEMA (('AUTOMOTIVE_DESIGN { 1 0 10303 214 3 1 1 }'));
ENDSEC;

DATA;
#10=MECHANICAL_DESIGN_GEOMETRIC_PRESENTATION_REPRESENTATION('',(#857,#858,
#859,#860,#861,#862,#863,#864,#865,#866,#867,#868,#869,#870,#871),#1493);
#11=SHAPE_REPRESENTATION_RELATIONSHIP('SRR','None',#1500,#12);
#12=ADVANCED_BREP_SHAPE_REPRESENTATION('',(#22,#23,#24,#25,#26),#1492);
#13=CIRCLE('',#985,2.5);
#14=CIRCLE('',#986,2.5);
#15=CIRCLE('',#994,2.);
#16=CIRCLE('',#995,2.);
#17=CIRCLE('',#998,2.);
#18=CIRCLE('',#999,2.);
#19=CYLINDRICAL_SURFACE('',#984,2.5);
#20=CYLINDRICAL_SURFACE('',#993,2.);
#21=CYLINDRICAL_SURFACE('',#997,2.);
#22=MANIFOLD_SOLID_BREP('Body1',#925);
#23=MANIFOLD_SOLID_BREP('Body2',#926);
#24=MANIFOLD_SOLID_BREP('Body3',#927);
#25=MANIFOLD_SOLID_BREP('Body4',#928);
#26=MANIFOLD_SOLID_BREP('Body5',#929);
#27=FACE_BOUND('',#98,.T.);
#28=FACE_BOUND('',#99,.T.);
#29=FACE_BOUND('',#123,.T.);
#30=FACE_OUTER_BOUND('',#83,.T.);
#31=FACE_OUTER_BOUND('',#84,.T.);
#32=FACE_OUTER_BOUND('',#85,.T.);
#33=FACE_OUTER_BOUND('',#86,.T.);
#34=FACE_OUTER_BOUND('',#87,.T.);
#35=FACE_OUTER_BOUND('',#88,.T.);
#36=FACE_OUTER_BOUND('',#89,.T.);
#37=FACE_OUTER_BOUND('',#90,.T.);
#38=FACE_OUTER_BOUND('',#91,.T.);
#39=FACE_OUTER_BOUND('',#92,.T.);
#40=FACE_OUTER_BOUND('',#93,.T.);
#41=FACE_OUTER_BOUND('',#94,.T.);
#42=FACE_OUTER_BOUND('',#95,.T.);
#43=FACE_OUTER_BOUND('',#96,.T.);
#44=FACE_OUTER_BOUND('',#97,.T.);
#45=FACE_OUTER_BOUND('',#100,.T.);
#46=FACE_OUTER_BOUND('',#101,.T.);
#47=FACE_OUTER_BOUND('',#102,.T.);
#48=FACE_OUTER_BOUND('',#103,.T.);
#49=FACE_OUTER_BOUND('',#104,.T.);
#50=FACE_OUTER_BOUND('',#105,.T.);
#51=FACE_OUTER_BOUND('',#106,.T.);
#52=FACE_OUTER_BOUND('',#107,.T.);
#53=FACE_OUTER_BOUND('',#108,.T.);
#54=FACE_OUTER_BOUND('',#109,.T.);
#55=FACE_OUTER_BOUND('',#110,.T.);
#56=FACE_OUTER_BOUND('',#111,.T.);
#57=FACE_OUTER_BOUND('',#112,.T.);
#58=FACE_OUTER_BOUND('',#113,.T.);
#59=FACE_OUTER_BOUND('',#114,.T.);
#60=FACE_OUTER_BOUND('',#115,.T.);
#61=FACE_OUTER_BOUND('',#116,.T.);
#62=FACE_OUTER_BOUND('',#117,.T.);
#63=FACE_OUTER_BOUND('',#118,.T.);
#64=FACE_OUTER_BOUND('',#119,.T.);
#65=FACE_OUTER_BOUND('',#120,.T.);
#66=FACE_OUTER_BOUND('',#121,.T.);
#67=FACE_OUTER_BOUND('',#122,.T.);
#68=FACE_OUTER_BOUND('',#124,.T.);
#69=FACE_OUTER_BOUND('',#125,.T.);
#70=FACE_OUTER_BOUND('',#126,.T.);
#71=FACE_OUTER_BOUND('',#127,.T.);
#72=FACE_OUTER_BOUND('',#128,.T.);
#73=FACE_OUTER_BOUND('',#129,.T.);
#74=FACE_OUTER_BOUND('',#130,.T.);
#75=FACE_OUTER_BOUND('',#131,.T.);
#76=FACE_OUTER_BOUND('',#132,.T.);
#77=FACE_OUTER_BOUND('',#133,.T.);
#78=FACE_OUTER_BOUND('',#134,.T.);
#79=FACE_OUTER_BOUND('',#135,.T.);
#80=FACE_OUTER_BOUND('',#136,.T.);
#81=FACE_OUTER_BOUND('',#137,.T.);
#82=FACE_OUTER_BOUND('',#138,.T.);
#83=EDGE_LOOP('',(#567,#568,#569,#570));
#84=EDGE_LOOP('',(#571,#572,#573,#574));
#85=EDGE_LOOP('',(#575,#576,#577,#578));
#86=EDGE_LOOP('',(#579,#580,#581,#582));
#87=EDGE_LOOP('',(#583,#584,#585,#586));
#88=EDGE_LOOP('',(#587,#588,#589,#590));
#89=EDGE_LOOP('',(#591,#592,#593,#594));
#90=EDGE_LOOP('',(#595,#596,#597,#598));
#91=EDGE_LOOP('',(#599,#600,#601,#602));
#92=EDGE_LOOP('',(#603,#604,#605,#606));
#93=EDGE_LOOP('',(#607,#608,#609,#610));
#94=EDGE_LOOP('',(#611,#612,#613,#614));
#95=EDGE_LOOP('',(#615,#616,#617,#618));
#96=EDGE_LOOP('',(#619,#620,#621,#622));
#97=EDGE_LOOP('',(#623,#624,#625,#626));
#98=EDGE_LOOP('',(#627,#628,#629,#630));
#99=EDGE_LOOP('',(#631,#632,#633,#634));
#100=EDGE_LOOP('',(#635,#636,#637,#638));
#101=EDGE_LOOP('',(#639,#640,#641,#642));
#102=EDGE_LOOP('',(#643,#644,#645,#646));
#103=EDGE_LOOP('',(#647,#648,#649,#650));
#104=EDGE_LOOP('',(#651,#652,#653,#654));
#105=EDGE_LOOP('',(#655,#656,#657,#658));
#106=EDGE_LOOP('',(#659,#660,#661,#662));
#107=EDGE_LOOP('',(#663,#664,#665,#666));
#108=EDGE_LOOP('',(#667,#668,#669,#670));
#109=EDGE_LOOP('',(#671,#672,#673,#674));
#110=EDGE_LOOP('',(#675,#676,#677,#678));
#111=EDGE_LOOP('',(#679,#680,#681,#682));
#112=EDGE_LOOP('',(#683,#684,#685,#686));
#113=EDGE_LOOP('',(#687,#688,#689,#690));
#114=EDGE_LOOP('',(#691,#692,#693,#694));
#115=EDGE_LOOP('',(#695,#696,#697,#698));
#116=EDGE_LOOP('',(#699,#700,#701,#702));
#117=EDGE_LOOP('',(#703,#704,#705,#706));
#118=EDGE_LOOP('',(#707,#708,#709,#710));
#119=EDGE_LOOP('',(#711,#712,#713,#714,#715,#716,#717,#718,#719,#720,#721,
#722));
#120=EDGE_LOOP('',(#723,#724,#725,#726));
#121=EDGE_LOOP('',(#727,#728,#729,#730));
#122=EDGE_LOOP('',(#731,#732,#733,#734));
#123=EDGE_LOOP('',(#735,#736,#737,#738,#739,#740,#741,#742,#743,#744,#745,
#746));
#124=EDGE_LOOP('',(#747,#748,#749,#750));
#125=EDGE_LOOP('',(#751,#752,#753,#754));
#126=EDGE_LOOP('',(#755,#756,#757,#758));
#127=EDGE_LOOP('',(#759,#760,#761,#762));
#128=EDGE_LOOP('',(#763));
#129=EDGE_LOOP('',(#764));
#130=EDGE_LOOP('',(#765,#766,#767,#768));
#131=EDGE_LOOP('',(#769,#770,#771,#772));
#132=EDGE_LOOP('',(#773,#774,#775,#776));
#133=EDGE_LOOP('',(#777,#778,#779,#780));
#134=EDGE_LOOP('',(#781,#782,#783,#784));
#135=EDGE_LOOP('',(#785,#786,#787,#788));
#136=EDGE_LOOP('',(#789,#790,#791,#792));
#137=EDGE_LOOP('',(#793,#794,#795,#796,#797,#798,#799));
#138=EDGE_LOOP('',(#800,#801,#802,#803,#804,#805,#806));
#139=LINE('',#1240,#253);
#140=LINE('',#1242,#254);
#141=LINE('',#1244,#255);
#142=LINE('',#1245,#256);
#143=LINE('',#1248,#257);
#144=LINE('',#1250,#258);
#145=LINE('',#1251,#259);
#146=LINE('',#1254,#260);
#147=LINE('',#1256,#261);
#148=LINE('',#1257,#262);
#149=LINE('',#1259,#263);
#150=LINE('',#1260,#264);
#151=LINE('',#1265,#265);
#152=LINE('',#1267,#266);
#153=LINE('',#1269,#267);
#154=LINE('',#1270,#268);
#155=LINE('',#1273,#269);
#156=LINE('',#1275,#270);
#157=LINE('',#1276,#271);
#158=LINE('',#1279,#272);
#159=LINE('',#1281,#273);
#160=LINE('',#1282,#274);
#161=LINE('',#1284,#275);
#162=LINE('',#1285,#276);
#163=LINE('',#1290,#277);
#164=LINE('',#1292,#278);
#165=LINE('',#1294,#279);
#166=LINE('',#1295,#280);
#167=LINE('',#1298,#281);
#168=LINE('',#1300,#282);
#169=LINE('',#1301,#283);
#170=LINE('',#1304,#284);
#171=LINE('',#1306,#285);
#172=LINE('',#1307,#286);
#173=LINE('',#1309,#287);
#174=LINE('',#1310,#288);
#175=LINE('',#1316,#289);
#176=LINE('',#1318,#290);
#177=LINE('',#1320,#291);
#178=LINE('',#1321,#292);
#179=LINE('',#1324,#293);
#180=LINE('',#1326,#294);
#181=LINE('',#1327,#295);
#182=LINE('',#1330,#296);
#183=LINE('',#1332,#297);
#184=LINE('',#1333,#298);
#185=LINE('',#1335,#299);
#186=LINE('',#1336,#300);
#187=LINE('',#1342,#301);
#188=LINE('',#1344,#302);
#189=LINE('',#1346,#303);
#190=LINE('',#1347,#304);
#191=LINE('',#1350,#305);
#192=LINE('',#1352,#306);
#193=LINE('',#1353,#307);
#194=LINE('',#1356,#308);
#195=LINE('',#1358,#309);
#196=LINE('',#1359,#310);
#197=LINE('',#1362,#311);
#198=LINE('',#1364,#312);
#199=LINE('',#1365,#313);
#200=LINE('',#1368,#314);
#201=LINE('',#1370,#315);
#202=LINE('',#1371,#316);
#203=LINE('',#1374,#317);
#204=LINE('',#1376,#318);
#205=LINE('',#1377,#319);
#206=LINE('',#1380,#320);
#207=LINE('',#1382,#321);
#208=LINE('',#1383,#322);
#209=LINE('',#1386,#323);
#210=LINE('',#1388,#324);
#211=LINE('',#1389,#325);
#212=LINE('',#1392,#326);
#213=LINE('',#1394,#327);
#214=LINE('',#1395,#328);
#215=LINE('',#1398,#329);
#216=LINE('',#1400,#330);
#217=LINE('',#1401,#331);
#218=LINE('',#1404,#332);
#219=LINE('',#1406,#333);
#220=LINE('',#1407,#334);
#221=LINE('',#1409,#335);
#222=LINE('',#1410,#336);
#223=LINE('',#1415,#337);
#224=LINE('',#1417,#338);
#225=LINE('',#1419,#339);
#226=LINE('',#1420,#340);
#227=LINE('',#1423,#341);
#228=LINE('',#1425,#342);
#229=LINE('',#1426,#343);
#230=LINE('',#1429,#344);
#231=LINE('',#1431,#345);
#232=LINE('',#1432,#346);
#233=LINE('',#1434,#347);
#234=LINE('',#1435,#348);
#235=LINE('',#1442,#349);
#236=LINE('',#1449,#350);
#237=LINE('',#1451,#351);
#238=LINE('',#1453,#352);
#239=LINE('',#1454,#353);
#240=LINE('',#1457,#354);
#241=LINE('',#1459,#355);
#242=LINE('',#1460,#356);
#243=LINE('',#1463,#357);
#244=LINE('',#1465,#358);
#245=LINE('',#1466,#359);
#246=LINE('',#1469,#360);
#247=LINE('',#1471,#361);
#248=LINE('',#1472,#362);
#249=LINE('',#1478,#363);
#250=LINE('',#1481,#364);
#251=LINE('',#1483,#365);
#252=LINE('',#1484,#366);
#253=VECTOR('',#1006,10.);
#254=VECTOR('',#1007,10.);
#255=VECTOR('',#1008,10.);
#256=VECTOR('',#1009,10.);
#257=VECTOR('',#1012,10.);
#258=VECTOR('',#1013,10.);
#259=VECTOR('',#1014,10.);
#260=VECTOR('',#1017,10.);
#261=VECTOR('',#1018,10.);
#262=VECTOR('',#1019,10.);
#263=VECTOR('',#1022,10.);
#264=VECTOR('',#1023,10.);
#265=VECTOR('',#1028,10.);
#266=VECTOR('',#1029,10.);
#267=VECTOR('',#1030,10.);
#268=VECTOR('',#1031,10.);
#269=VECTOR('',#1034,10.);
#270=VECTOR('',#1035,10.);
#271=VECTOR('',#1036,10.);
#272=VECTOR('',#1039,10.);
#273=VECTOR('',#1040,10.);
#274=VECTOR('',#1041,10.);
#275=VECTOR('',#1044,10.);
#276=VECTOR('',#1045,10.);
#277=VECTOR('',#1050,10.);
#278=VECTOR('',#1051,10.);
#279=VECTOR('',#1052,10.);
#280=VECTOR('',#1053,10.);
#281=VECTOR('',#1056,10.);
#282=VECTOR('',#1057,10.);
#283=VECTOR('',#1058,10.);
#284=VECTOR('',#1061,10.);
#285=VECTOR('',#1062,10.);
#286=VECTOR('',#1063,10.);
#287=VECTOR('',#1066,10.);
#288=VECTOR('',#1067,10.);
#289=VECTOR('',#1074,10.);
#290=VECTOR('',#1075,10.);
#291=VECTOR('',#1076,10.);
#292=VECTOR('',#1077,10.);
#293=VECTOR('',#1080,10.);
#294=VECTOR('',#1081,10.);
#295=VECTOR('',#1082,10.);
#296=VECTOR('',#1085,10.);
#297=VECTOR('',#1086,10.);
#298=VECTOR('',#1087,10.);
#299=VECTOR('',#1090,10.);
#300=VECTOR('',#1091,10.);
#301=VECTOR('',#1098,10.);
#302=VECTOR('',#1099,10.);
#303=VECTOR('',#1100,10.);
#304=VECTOR('',#1101,10.);
#305=VECTOR('',#1104,10.);
#306=VECTOR('',#1105,10.);
#307=VECTOR('',#1106,10.);
#308=VECTOR('',#1109,10.);
#309=VECTOR('',#1110,10.);
#310=VECTOR('',#1111,10.);
#311=VECTOR('',#1114,10.);
#312=VECTOR('',#1115,10.);
#313=VECTOR('',#1116,10.);
#314=VECTOR('',#1119,10.);
#315=VECTOR('',#1120,10.);
#316=VECTOR('',#1121,10.);
#317=VECTOR('',#1124,10.);
#318=VECTOR('',#1125,10.);
#319=VECTOR('',#1126,10.);
#320=VECTOR('',#1129,10.);
#321=VECTOR('',#1130,10.);
#322=VECTOR('',#1131,10.);
#323=VECTOR('',#1134,10.);
#324=VECTOR('',#1135,10.);
#325=VECTOR('',#1136,10.);
#326=VECTOR('',#1139,10.);
#327=VECTOR('',#1140,10.);
#328=VECTOR('',#1141,10.);
#329=VECTOR('',#1144,10.);
#330=VECTOR('',#1145,10.);
#331=VECTOR('',#1146,10.);
#332=VECTOR('',#1149,10.);
#333=VECTOR('',#1150,10.);
#334=VECTOR('',#1151,10.);
#335=VECTOR('',#1154,10.);
#336=VECTOR('',#1155,10.);
#337=VECTOR('',#1160,10.);
#338=VECTOR('',#1161,10.);
#339=VECTOR('',#1162,10.);
#340=VECTOR('',#1163,10.);
#341=VECTOR('',#1166,10.);
#342=VECTOR('',#1167,10.);
#343=VECTOR('',#1168,10.);
#344=VECTOR('',#1171,10.);
#345=VECTOR('',#1172,10.);
#346=VECTOR('',#1173,10.);
#347=VECTOR('',#1176,10.);
#348=VECTOR('',#1177,10.);
#349=VECTOR('',#1186,2.5);
#350=VECTOR('',#1195,10.);
#351=VECTOR('',#1196,10.);
#352=VECTOR('',#1197,10.);
#353=VECTOR('',#1198,10.);
#354=VECTOR('',#1201,10.);
#355=VECTOR('',#1202,10.);
#356=VECTOR('',#1203,10.);
#357=VECTOR('',#1206,10.);
#358=VECTOR('',#1207,10.);
#359=VECTOR('',#1208,10.);
#360=VECTOR('',#1211,10.);
#361=VECTOR('',#1212,10.);
#362=VECTOR('',#1213,10.);
#363=VECTOR('',#1220,10.);
#364=VECTOR('',#1223,10.);
#365=VECTOR('',#1224,10.);
#366=VECTOR('',#1225,10.);
#367=VERTEX_POINT('',#1238);
#368=VERTEX_POINT('',#1239);
#369=VERTEX_POINT('',#1241);
#370=VERTEX_POINT('',#1243);
#371=VERTEX_POINT('',#1247);
#372=VERTEX_POINT('',#1249);
#373=VERTEX_POINT('',#1253);
#374=VERTEX_POINT('',#1255);
#375=VERTEX_POINT('',#1263);
#376=VERTEX_POINT('',#1264);
#377=VERTEX_POINT('',#1266);
#378=VERTEX_POINT('',#1268);
#379=VERTEX_POINT('',#1272);
#380=VERTEX_POINT('',#1274);
#381=VERTEX_POINT('',#1278);
#382=VERTEX_POINT('',#1280);
#383=VERTEX_POINT('',#1288);
#384=VERTEX_POINT('',#1289);
#385=VERTEX_POINT('',#1291);
#386=VERTEX_POINT('',#1293);
#387=VERTEX_POINT('',#1297);
#388=VERTEX_POINT('',#1299);
#389=VERTEX_POINT('',#1303);
#390=VERTEX_POINT('',#1305);
#391=VERTEX_POINT('',#1314);
#392=VERTEX_POINT('',#1315);
#393=VERTEX_POINT('',#1317);
#394=VERTEX_POINT('',#1319);
#395=VERTEX_POINT('',#1323);
#396=VERTEX_POINT('',#1325);
#397=VERTEX_POINT('',#1329);
#398=VERTEX_POINT('',#1331);
#399=VERTEX_POINT('',#1340);
#400=VERTEX_POINT('',#1341);
#401=VERTEX_POINT('',#1343);
#402=VERTEX_POINT('',#1345);
#403=VERTEX_POINT('',#1349);
#404=VERTEX_POINT('',#1351);
#405=VERTEX_POINT('',#1355);
#406=VERTEX_POINT('',#1357);
#407=VERTEX_POINT('',#1361);
#408=VERTEX_POINT('',#1363);
#409=VERTEX_POINT('',#1367);
#410=VERTEX_POINT('',#1369);
#411=VERTEX_POINT('',#1373);
#412=VERTEX_POINT('',#1375);
#413=VERTEX_POINT('',#1379);
#414=VERTEX_POINT('',#1381);
#415=VERTEX_POINT('',#1385);
#416=VERTEX_POINT('',#1387);
#417=VERTEX_POINT('',#1391);
#418=VERTEX_POINT('',#1393);
#419=VERTEX_POINT('',#1397);
#420=VERTEX_POINT('',#1399);
#421=VERTEX_POINT('',#1403);
#422=VERTEX_POINT('',#1405);
#423=VERTEX_POINT('',#1413);
#424=VERTEX_POINT('',#1414);
#425=VERTEX_POINT('',#1416);
#426=VERTEX_POINT('',#1418);
#427=VERTEX_POINT('',#1422);
#428=VERTEX_POINT('',#1424);
#429=VERTEX_POINT('',#1428);
#430=VERTEX_POINT('',#1430);
#431=VERTEX_POINT('',#1439);
#432=VERTEX_POINT('',#1441);
#433=VERTEX_POINT('',#1447);
#434=VERTEX_POINT('',#1448);
#435=VERTEX_POINT('',#1450);
#436=VERTEX_POINT('',#1452);
#437=VERTEX_POINT('',#1456);
#438=VERTEX_POINT('',#1458);
#439=VERTEX_POINT('',#1462);
#440=VERTEX_POINT('',#1464);
#441=VERTEX_POINT('',#1468);
#442=VERTEX_POINT('',#1470);
#443=VERTEX_POINT('',#1474);
#444=VERTEX_POINT('',#1476);
#445=VERTEX_POINT('',#1480);
#446=VERTEX_POINT('',#1482);
#447=EDGE_CURVE('',#367,#368,#139,.T.);
#448=EDGE_CURVE('',#367,#369,#140,.T.);
#449=EDGE_CURVE('',#370,#369,#141,.T.);
#450=EDGE_CURVE('',#368,#370,#142,.T.);
#451=EDGE_CURVE('',#368,#371,#143,.T.);
#452=EDGE_CURVE('',#372,#370,#144,.T.);
#453=EDGE_CURVE('',#371,#372,#145,.T.);
#454=EDGE_CURVE('',#371,#373,#146,.T.);
#455=EDGE_CURVE('',#374,#372,#147,.T.);
#456=EDGE_CURVE('',#373,#374,#148,.T.);
#457=EDGE_CURVE('',#373,#367,#149,.T.);
#458=EDGE_CURVE('',#369,#374,#150,.T.);
#459=EDGE_CURVE('',#375,#376,#151,.T.);
#460=EDGE_CURVE('',#375,#377,#152,.T.);
#461=EDGE_CURVE('',#378,#377,#153,.T.);
#462=EDGE_CURVE('',#376,#378,#154,.T.);
#463=EDGE_CURVE('',#376,#379,#155,.T.);
#464=EDGE_CURVE('',#380,#378,#156,.T.);
#465=EDGE_CURVE('',#379,#380,#157,.T.);
#466=EDGE_CURVE('',#379,#381,#158,.T.);
#467=EDGE_CURVE('',#382,#380,#159,.T.);
#468=EDGE_CURVE('',#381,#382,#160,.T.);
#469=EDGE_CURVE('',#381,#375,#161,.T.);
#470=EDGE_CURVE('',#377,#382,#162,.T.);
#471=EDGE_CURVE('',#383,#384,#163,.T.);
#472=EDGE_CURVE('',#384,#385,#164,.T.);
#473=EDGE_CURVE('',#386,#385,#165,.T.);
#474=EDGE_CURVE('',#383,#386,#166,.T.);
#475=EDGE_CURVE('',#387,#383,#167,.T.);
#476=EDGE_CURVE('',#388,#386,#168,.T.);
#477=EDGE_CURVE('',#387,#388,#169,.T.);
#478=EDGE_CURVE('',#389,#387,#170,.T.);
#479=EDGE_CURVE('',#390,#388,#171,.T.);
#480=EDGE_CURVE('',#389,#390,#172,.T.);
#481=EDGE_CURVE('',#384,#389,#173,.T.);
#482=EDGE_CURVE('',#385,#390,#174,.T.);
#483=EDGE_CURVE('',#391,#392,#175,.T.);
#484=EDGE_CURVE('',#392,#393,#176,.T.);
#485=EDGE_CURVE('',#394,#393,#177,.T.);
#486=EDGE_CURVE('',#391,#394,#178,.T.);
#487=EDGE_CURVE('',#395,#391,#179,.T.);
#488=EDGE_CURVE('',#396,#394,#180,.T.);
#489=EDGE_CURVE('',#395,#396,#181,.T.);
#490=EDGE_CURVE('',#397,#395,#182,.T.);
#491=EDGE_CURVE('',#398,#396,#183,.T.);
#492=EDGE_CURVE('',#397,#398,#184,.T.);
#493=EDGE_CURVE('',#392,#397,#185,.T.);
#494=EDGE_CURVE('',#393,#398,#186,.T.);
#495=EDGE_CURVE('',#399,#400,#187,.T.);
#496=EDGE_CURVE('',#399,#401,#188,.T.);
#497=EDGE_CURVE('',#401,#402,#189,.T.);
#498=EDGE_CURVE('',#400,#402,#190,.T.);
#499=EDGE_CURVE('',#403,#399,#191,.T.);
#500=EDGE_CURVE('',#403,#404,#192,.T.);
#501=EDGE_CURVE('',#404,#401,#193,.T.);
#502=EDGE_CURVE('',#405,#403,#194,.T.);
#503=EDGE_CURVE('',#405,#406,#195,.T.);
#504=EDGE_CURVE('',#406,#404,#196,.T.);
#505=EDGE_CURVE('',#407,#405,#197,.T.);
#506=EDGE_CURVE('',#407,#408,#198,.T.);
#507=EDGE_CURVE('',#408,#406,#199,.T.);
#508=EDGE_CURVE('',#409,#407,#200,.T.);
#509=EDGE_CURVE('',#409,#410,#201,.T.);
#510=EDGE_CURVE('',#410,#408,#202,.T.);
#511=EDGE_CURVE('',#411,#409,#203,.T.);
#512=EDGE_CURVE('',#411,#412,#204,.T.);
#513=EDGE_CURVE('',#412,#410,#205,.T.);
#514=EDGE_CURVE('',#413,#411,#206,.T.);
#515=EDGE_CURVE('',#413,#414,#207,.T.);
#516=EDGE_CURVE('',#414,#412,#208,.T.);
#517=EDGE_CURVE('',#415,#413,#209,.T.);
#518=EDGE_CURVE('',#415,#416,#210,.T.);
#519=EDGE_CURVE('',#416,#414,#211,.T.);
#520=EDGE_CURVE('',#417,#415,#212,.T.);
#521=EDGE_CURVE('',#417,#418,#213,.T.);
#522=EDGE_CURVE('',#418,#416,#214,.T.);
#523=EDGE_CURVE('',#419,#417,#215,.T.);
#524=EDGE_CURVE('',#419,#420,#216,.T.);
#525=EDGE_CURVE('',#420,#418,#217,.T.);
#526=EDGE_CURVE('',#421,#419,#218,.T.);
#527=EDGE_CURVE('',#421,#422,#219,.T.);
#528=EDGE_CURVE('',#422,#420,#220,.T.);
#529=EDGE_CURVE('',#400,#421,#221,.T.);
#530=EDGE_CURVE('',#402,#422,#222,.T.);
#531=EDGE_CURVE('',#423,#424,#223,.T.);
#532=EDGE_CURVE('',#423,#425,#224,.T.);
#533=EDGE_CURVE('',#426,#425,#225,.T.);
#534=EDGE_CURVE('',#424,#426,#226,.T.);
#535=EDGE_CURVE('',#424,#427,#227,.T.);
#536=EDGE_CURVE('',#428,#426,#228,.T.);
#537=EDGE_CURVE('',#427,#428,#229,.T.);
#538=EDGE_CURVE('',#429,#427,#230,.T.);
#539=EDGE_CURVE('',#430,#428,#231,.T.);
#540=EDGE_CURVE('',#429,#430,#232,.T.);
#541=EDGE_CURVE('',#429,#423,#233,.T.);
#542=EDGE_CURVE('',#425,#430,#234,.T.);
#543=EDGE_CURVE('',#431,#431,#13,.T.);
#544=EDGE_CURVE('',#431,#432,#235,.T.);
#545=EDGE_CURVE('',#432,#432,#14,.T.);
#546=EDGE_CURVE('',#433,#434,#236,.T.);
#547=EDGE_CURVE('',#433,#435,#237,.T.);
#548=EDGE_CURVE('',#436,#435,#238,.T.);
#549=EDGE_CURVE('',#434,#436,#239,.T.);
#550=EDGE_CURVE('',#434,#437,#240,.T.);
#551=EDGE_CURVE('',#438,#436,#241,.T.);
#552=EDGE_CURVE('',#437,#438,#242,.T.);
#553=EDGE_CURVE('',#437,#439,#243,.T.);
#554=EDGE_CURVE('',#440,#438,#244,.T.);
#555=EDGE_CURVE('',#439,#440,#245,.T.);
#556=EDGE_CURVE('',#439,#441,#246,.T.);
#557=EDGE_CURVE('',#442,#440,#247,.T.);
#558=EDGE_CURVE('',#441,#442,#248,.T.);
#559=EDGE_CURVE('',#443,#441,#15,.T.);
#560=EDGE_CURVE('',#444,#442,#16,.T.);
#561=EDGE_CURVE('',#443,#444,#249,.T.);
#562=EDGE_CURVE('',#443,#445,#250,.T.);
#563=EDGE_CURVE('',#446,#444,#251,.T.);
#564=EDGE_CURVE('',#445,#446,#252,.T.);
#565=EDGE_CURVE('',#433,#445,#17,.T.);
#566=EDGE_CURVE('',#435,#446,#18,.T.);
#567=ORIENTED_EDGE('',*,*,#447,.F.);
#568=ORIENTED_EDGE('',*,*,#448,.T.);
#569=ORIENTED_EDGE('',*,*,#449,.F.);
#570=ORIENTED_EDGE('',*,*,#450,.F.);
#571=ORIENTED_EDGE('',*,*,#451,.F.);
#572=ORIENTED_EDGE('',*,*,#450,.T.);
#573=ORIENTED_EDGE('',*,*,#452,.F.);
#574=ORIENTED_EDGE('',*,*,#453,.F.);
#575=ORIENTED_EDGE('',*,*,#454,.F.);
#576=ORIENTED_EDGE('',*,*,#453,.T.);
#577=ORIENTED_EDGE('',*,*,#455,.F.);
#578=ORIENTED_EDGE('',*,*,#456,.F.);
#579=ORIENTED_EDGE('',*,*,#457,.F.);
#580=ORIENTED_EDGE('',*,*,#456,.T.);
#581=ORIENTED_EDGE('',*,*,#458,.F.);
#582=ORIENTED_EDGE('',*,*,#448,.F.);
#583=ORIENTED_EDGE('',*,*,#458,.T.);
#584=ORIENTED_EDGE('',*,*,#455,.T.);
#585=ORIENTED_EDGE('',*,*,#452,.T.);
#586=ORIENTED_EDGE('',*,*,#449,.T.);
#587=ORIENTED_EDGE('',*,*,#459,.F.);
#588=ORIENTED_EDGE('',*,*,#460,.T.);
#589=ORIENTED_EDGE('',*,*,#461,.F.);
#590=ORIENTED_EDGE('',*,*,#462,.F.);
#591=ORIENTED_EDGE('',*,*,#463,.F.);
#592=ORIENTED_EDGE('',*,*,#462,.T.);
#593=ORIENTED_EDGE('',*,*,#464,.F.);
#594=ORIENTED_EDGE('',*,*,#465,.F.);
#595=ORIENTED_EDGE('',*,*,#466,.F.);
#596=ORIENTED_EDGE('',*,*,#465,.T.);
#597=ORIENTED_EDGE('',*,*,#467,.F.);
#598=ORIENTED_EDGE('',*,*,#468,.F.);
#599=ORIENTED_EDGE('',*,*,#469,.F.);
#600=ORIENTED_EDGE('',*,*,#468,.T.);
#601=ORIENTED_EDGE('',*,*,#470,.F.);
#602=ORIENTED_EDGE('',*,*,#460,.F.);
#603=ORIENTED_EDGE('',*,*,#470,.T.);
#604=ORIENTED_EDGE('',*,*,#467,.T.);
#605=ORIENTED_EDGE('',*,*,#464,.T.);
#606=ORIENTED_EDGE('',*,*,#461,.T.);
#607=ORIENTED_EDGE('',*,*,#471,.T.);
#608=ORIENTED_EDGE('',*,*,#472,.T.);
#609=ORIENTED_EDGE('',*,*,#473,.F.);
#610=ORIENTED_EDGE('',*,*,#474,.F.);
#611=ORIENTED_EDGE('',*,*,#475,.T.);
#612=ORIENTED_EDGE('',*,*,#474,.T.);
#613=ORIENTED_EDGE('',*,*,#476,.F.);
#614=ORIENTED_EDGE('',*,*,#477,.F.);
#615=ORIENTED_EDGE('',*,*,#478,.T.);
#616=ORIENTED_EDGE('',*,*,#477,.T.);
#617=ORIENTED_EDGE('',*,*,#479,.F.);
#618=ORIENTED_EDGE('',*,*,#480,.F.);
#619=ORIENTED_EDGE('',*,*,#481,.T.);
#620=ORIENTED_EDGE('',*,*,#480,.T.);
#621=ORIENTED_EDGE('',*,*,#482,.F.);
#622=ORIENTED_EDGE('',*,*,#472,.F.);
#623=ORIENTED_EDGE('',*,*,#482,.T.);
#624=ORIENTED_EDGE('',*,*,#479,.T.);
#625=ORIENTED_EDGE('',*,*,#476,.T.);
#626=ORIENTED_EDGE('',*,*,#473,.T.);
#627=ORIENTED_EDGE('',*,*,#447,.T.);
#628=ORIENTED_EDGE('',*,*,#451,.T.);
#629=ORIENTED_EDGE('',*,*,#454,.T.);
#630=ORIENTED_EDGE('',*,*,#457,.T.);
#631=ORIENTED_EDGE('',*,*,#459,.T.);
#632=ORIENTED_EDGE('',*,*,#463,.T.);
#633=ORIENTED_EDGE('',*,*,#466,.T.);
#634=ORIENTED_EDGE('',*,*,#469,.T.);
#635=ORIENTED_EDGE('',*,*,#481,.F.);
#636=ORIENTED_EDGE('',*,*,#471,.F.);
#637=ORIENTED_EDGE('',*,*,#475,.F.);
#638=ORIENTED_EDGE('',*,*,#478,.F.);
#639=ORIENTED_EDGE('',*,*,#483,.T.);
#640=ORIENTED_EDGE('',*,*,#484,.T.);
#641=ORIENTED_EDGE('',*,*,#485,.F.);
#642=ORIENTED_EDGE('',*,*,#486,.F.);
#643=ORIENTED_EDGE('',*,*,#487,.T.);
#644=ORIENTED_EDGE('',*,*,#486,.T.);
#645=ORIENTED_EDGE('',*,*,#488,.F.);
#646=ORIENTED_EDGE('',*,*,#489,.F.);
#647=ORIENTED_EDGE('',*,*,#490,.T.);
#648=ORIENTED_EDGE('',*,*,#489,.T.);
#649=ORIENTED_EDGE('',*,*,#491,.F.);
#650=ORIENTED_EDGE('',*,*,#492,.F.);
#651=ORIENTED_EDGE('',*,*,#493,.T.);
#652=ORIENTED_EDGE('',*,*,#492,.T.);
#653=ORIENTED_EDGE('',*,*,#494,.F.);
#654=ORIENTED_EDGE('',*,*,#484,.F.);
#655=ORIENTED_EDGE('',*,*,#494,.T.);
#656=ORIENTED_EDGE('',*,*,#491,.T.);
#657=ORIENTED_EDGE('',*,*,#488,.T.);
#658=ORIENTED_EDGE('',*,*,#485,.T.);
#659=ORIENTED_EDGE('',*,*,#493,.F.);
#660=ORIENTED_EDGE('',*,*,#483,.F.);
#661=ORIENTED_EDGE('',*,*,#487,.F.);
#662=ORIENTED_EDGE('',*,*,#490,.F.);
#663=ORIENTED_EDGE('',*,*,#495,.F.);
#664=ORIENTED_EDGE('',*,*,#496,.T.);
#665=ORIENTED_EDGE('',*,*,#497,.T.);
#666=ORIENTED_EDGE('',*,*,#498,.F.);
#667=ORIENTED_EDGE('',*,*,#499,.F.);
#668=ORIENTED_EDGE('',*,*,#500,.T.);
#669=ORIENTED_EDGE('',*,*,#501,.T.);
#670=ORIENTED_EDGE('',*,*,#496,.F.);
#671=ORIENTED_EDGE('',*,*,#502,.F.);
#672=ORIENTED_EDGE('',*,*,#503,.T.);
#673=ORIENTED_EDGE('',*,*,#504,.T.);
#674=ORIENTED_EDGE('',*,*,#500,.F.);
#675=ORIENTED_EDGE('',*,*,#505,.F.);
#676=ORIENTED_EDGE('',*,*,#506,.T.);
#677=ORIENTED_EDGE('',*,*,#507,.T.);
#678=ORIENTED_EDGE('',*,*,#503,.F.);
#679=ORIENTED_EDGE('',*,*,#508,.F.);
#680=ORIENTED_EDGE('',*,*,#509,.T.);
#681=ORIENTED_EDGE('',*,*,#510,.T.);
#682=ORIENTED_EDGE('',*,*,#506,.F.);
#683=ORIENTED_EDGE('',*,*,#511,.F.);
#684=ORIENTED_EDGE('',*,*,#512,.T.);
#685=ORIENTED_EDGE('',*,*,#513,.T.);
#686=ORIENTED_EDGE('',*,*,#509,.F.);
#687=ORIENTED_EDGE('',*,*,#514,.F.);
#688=ORIENTED_EDGE('',*,*,#515,.T.);
#689=ORIENTED_EDGE('',*,*,#516,.T.);
#690=ORIENTED_EDGE('',*,*,#512,.F.);
#691=ORIENTED_EDGE('',*,*,#517,.F.);
#692=ORIENTED_EDGE('',*,*,#518,.T.);
#693=ORIENTED_EDGE('',*,*,#519,.T.);
#694=ORIENTED_EDGE('',*,*,#515,.F.);
#695=ORIENTED_EDGE('',*,*,#520,.F.);
#696=ORIENTED_EDGE('',*,*,#521,.T.);
#697=ORIENTED_EDGE('',*,*,#522,.T.);
#698=ORIENTED_EDGE('',*,*,#518,.F.);
#699=ORIENTED_EDGE('',*,*,#523,.F.);
#700=ORIENTED_EDGE('',*,*,#524,.T.);
#701=ORIENTED_EDGE('',*,*,#525,.T.);
#702=ORIENTED_EDGE('',*,*,#521,.F.);
#703=ORIENTED_EDGE('',*,*,#526,.F.);
#704=ORIENTED_EDGE('',*,*,#527,.T.);
#705=ORIENTED_EDGE('',*,*,#528,.T.);
#706=ORIENTED_EDGE('',*,*,#524,.F.);
#707=ORIENTED_EDGE('',*,*,#529,.F.);
#708=ORIENTED_EDGE('',*,*,#498,.T.);
#709=ORIENTED_EDGE('',*,*,#530,.T.);
#710=ORIENTED_EDGE('',*,*,#527,.F.);
#711=ORIENTED_EDGE('',*,*,#530,.F.);
#712=ORIENTED_EDGE('',*,*,#497,.F.);
#713=ORIENTED_EDGE('',*,*,#501,.F.);
#714=ORIENTED_EDGE('',*,*,#504,.F.);
#715=ORIENTED_EDGE('',*,*,#507,.F.);
#716=ORIENTED_EDGE('',*,*,#510,.F.);
#717=ORIENTED_EDGE('',*,*,#513,.F.);
#718=ORIENTED_EDGE('',*,*,#516,.F.);
#719=ORIENTED_EDGE('',*,*,#519,.F.);
#720=ORIENTED_EDGE('',*,*,#522,.F.);
#721=ORIENTED_EDGE('',*,*,#525,.F.);
#722=ORIENTED_EDGE('',*,*,#528,.F.);
#723=ORIENTED_EDGE('',*,*,#531,.F.);
#724=ORIENTED_EDGE('',*,*,#532,.T.);
#725=ORIENTED_EDGE('',*,*,#533,.F.);
#726=ORIENTED_EDGE('',*,*,#534,.F.);
#727=ORIENTED_EDGE('',*,*,#535,.F.);
#728=ORIENTED_EDGE('',*,*,#534,.T.);
#729=ORIENTED_EDGE('',*,*,#536,.F.);
#730=ORIENTED_EDGE('',*,*,#537,.F.);
#731=ORIENTED_EDGE('',*,*,#538,.T.);
#732=ORIENTED_EDGE('',*,*,#537,.T.);
#733=ORIENTED_EDGE('',*,*,#539,.F.);
#734=ORIENTED_EDGE('',*,*,#540,.F.);
#735=ORIENTED_EDGE('',*,*,#495,.T.);
#736=ORIENTED_EDGE('',*,*,#529,.T.);
#737=ORIENTED_EDGE('',*,*,#526,.T.);
#738=ORIENTED_EDGE('',*,*,#523,.T.);
#739=ORIENTED_EDGE('',*,*,#520,.T.);
#740=ORIENTED_EDGE('',*,*,#517,.T.);
#741=ORIENTED_EDGE('',*,*,#514,.T.);
#742=ORIENTED_EDGE('',*,*,#511,.T.);
#743=ORIENTED_EDGE('',*,*,#508,.T.);
#744=ORIENTED_EDGE('',*,*,#505,.T.);
#745=ORIENTED_EDGE('',*,*,#502,.T.);
#746=ORIENTED_EDGE('',*,*,#499,.T.);
#747=ORIENTED_EDGE('',*,*,#541,.F.);
#748=ORIENTED_EDGE('',*,*,#540,.T.);
#749=ORIENTED_EDGE('',*,*,#542,.F.);
#750=ORIENTED_EDGE('',*,*,#532,.F.);
#751=ORIENTED_EDGE('',*,*,#542,.T.);
#752=ORIENTED_EDGE('',*,*,#539,.T.);
#753=ORIENTED_EDGE('',*,*,#536,.T.);
#754=ORIENTED_EDGE('',*,*,#533,.T.);
#755=ORIENTED_EDGE('',*,*,#541,.T.);
#756=ORIENTED_EDGE('',*,*,#531,.T.);
#757=ORIENTED_EDGE('',*,*,#535,.T.);
#758=ORIENTED_EDGE('',*,*,#538,.F.);
#759=ORIENTED_EDGE('',*,*,#543,.F.);
#760=ORIENTED_EDGE('',*,*,#544,.T.);
#761=ORIENTED_EDGE('',*,*,#545,.T.);
#762=ORIENTED_EDGE('',*,*,#544,.F.);
#763=ORIENTED_EDGE('',*,*,#543,.T.);
#764=ORIENTED_EDGE('',*,*,#545,.F.);
#765=ORIENTED_EDGE('',*,*,#546,.F.);
#766=ORIENTED_EDGE('',*,*,#547,.T.);
#767=ORIENTED_EDGE('',*,*,#548,.F.);
#768=ORIENTED_EDGE('',*,*,#549,.F.);
#769=ORIENTED_EDGE('',*,*,#550,.F.);
#770=ORIENTED_EDGE('',*,*,#549,.T.);
#771=ORIENTED_EDGE('',*,*,#551,.F.);
#772=ORIENTED_EDGE('',*,*,#552,.F.);
#773=ORIENTED_EDGE('',*,*,#553,.F.);
#774=ORIENTED_EDGE('',*,*,#552,.T.);
#775=ORIENTED_EDGE('',*,*,#554,.F.);
#776=ORIENTED_EDGE('',*,*,#555,.F.);
#777=ORIENTED_EDGE('',*,*,#556,.F.);
#778=ORIENTED_EDGE('',*,*,#555,.T.);
#779=ORIENTED_EDGE('',*,*,#557,.F.);
#780=ORIENTED_EDGE('',*,*,#558,.F.);
#781=ORIENTED_EDGE('',*,*,#559,.T.);
#782=ORIENTED_EDGE('',*,*,#558,.T.);
#783=ORIENTED_EDGE('',*,*,#560,.F.);
#784=ORIENTED_EDGE('',*,*,#561,.F.);
#785=ORIENTED_EDGE('',*,*,#562,.F.);
#786=ORIENTED_EDGE('',*,*,#561,.T.);
#787=ORIENTED_EDGE('',*,*,#563,.F.);
#788=ORIENTED_EDGE('',*,*,#564,.F.);
#789=ORIENTED_EDGE('',*,*,#565,.T.);
#790=ORIENTED_EDGE('',*,*,#564,.T.);
#791=ORIENTED_EDGE('',*,*,#566,.F.);
#792=ORIENTED_EDGE('',*,*,#547,.F.);
#793=ORIENTED_EDGE('',*,*,#566,.T.);
#794=ORIENTED_EDGE('',*,*,#563,.T.);
#795=ORIENTED_EDGE('',*,*,#560,.T.);
#796=ORIENTED_EDGE('',*,*,#557,.T.);
#797=ORIENTED_EDGE('',*,*,#554,.T.);
#798=ORIENTED_EDGE('',*,*,#551,.T.);
#799=ORIENTED_EDGE('',*,*,#548,.T.);
#800=ORIENTED_EDGE('',*,*,#565,.F.);
#801=ORIENTED_EDGE('',*,*,#546,.T.);
#802=ORIENTED_EDGE('',*,*,#550,.T.);
#803=ORIENTED_EDGE('',*,*,#553,.T.);
#804=ORIENTED_EDGE('',*,*,#556,.T.);
#805=ORIENTED_EDGE('',*,*,#559,.F.);
#806=ORIENTED_EDGE('',*,*,#562,.T.);
#807=PLANE('',#943);
#808=PLANE('',#944);
#809=PLANE('',#945);
#810=PLANE('',#946);
#811=PLANE('',#947);
#812=PLANE('',#948);
#813=PLANE('',#949);
#814=PLANE('',#950);
#815=PLANE('',#951);
#816=PLANE('',#952);
#817=PLANE('',#953);
#818=PLANE('',#954);
#819=PLANE('',#955);
#820=PLANE('',#956);
#821=PLANE('',#957);
#822=PLANE('',#958);
#823=PLANE('',#959);
#824=PLANE('',#960);
#825=PLANE('',#961);
#826=PLANE('',#962);
#827=PLANE('',#963);
#828=PLANE('',#964);
#829=PLANE('',#965);
#830=PLANE('',#966);
#831=PLANE('',#967);
#832=PLANE('',#968);
#833=PLANE('',#969);
#834=PLANE('',#970);
#835=PLANE('',#971);
#836=PLANE('',#972);
#837=PLANE('',#973);
#838=PLANE('',#974);
#839=PLANE('',#975);
#840=PLANE('',#976);
#841=PLANE('',#977);
#842=PLANE('',#978);
#843=PLANE('',#979);
#844=PLANE('',#980);
#845=PLANE('',#981);
#846=PLANE('',#982);
#847=PLANE('',#983);
#848=PLANE('',#987);
#849=PLANE('',#988);
#850=PLANE('',#989);
#851=PLANE('',#990);
#852=PLANE('',#991);
#853=PLANE('',#992);
#854=PLANE('',#996);
#855=PLANE('',#1000);
#856=PLANE('',#1001);
#857=STYLED_ITEM('',(#1511),#872);
#858=STYLED_ITEM('',(#1511),#873);
#859=STYLED_ITEM('',(#1511),#874);
#860=STYLED_ITEM('',(#1511),#875);
#861=STYLED_ITEM('',(#1511),#876);
#862=STYLED_ITEM('',(#1512),#877);
#863=STYLED_ITEM('',(#1512),#878);
#864=STYLED_ITEM('',(#1512),#879);
#865=STYLED_ITEM('',(#1512),#880);
#866=STYLED_ITEM('',(#1512),#881);
#867=STYLED_ITEM('',(#1510),#22);
#868=STYLED_ITEM('',(#1513),#23);
#869=STYLED_ITEM('',(#1514),#24);
#870=STYLED_ITEM('',(#1513),#25);
#871=STYLED_ITEM('',(#1515),#26);
#872=ADVANCED_FACE('',(#30),#807,.T.);
#873=ADVANCED_FACE('',(#31),#808,.T.);
#874=ADVANCED_FACE('',(#32),#809,.T.);
#875=ADVANCED_FACE('',(#33),#810,.T.);
#876=ADVANCED_FACE('',(#34),#811,.T.);
#877=ADVANCED_FACE('',(#35),#812,.T.);
#878=ADVANCED_FACE('',(#36),#813,.T.);
#879=ADVANCED_FACE('',(#37),#814,.T.);
#880=ADVANCED_FACE('',(#38),#815,.T.);
#881=ADVANCED_FACE('',(#39),#816,.T.);
#882=ADVANCED_FACE('',(#40),#817,.T.);
#883=ADVANCED_FACE('',(#41),#818,.T.);
#884=ADVANCED_FACE('',(#42),#819,.T.);
#885=ADVANCED_FACE('',(#43),#820,.T.);
#886=ADVANCED_FACE('',(#44,#27,#28),#821,.T.);
#887=ADVANCED_FACE('',(#45),#822,.F.);
#888=ADVANCED_FACE('',(#46),#823,.T.);
#889=ADVANCED_FACE('',(#47),#824,.T.);
#890=ADVANCED_FACE('',(#48),#825,.T.);
#891=ADVANCED_FACE('',(#49),#826,.T.);
#892=ADVANCED_FACE('',(#50),#827,.T.);
#893=ADVANCED_FACE('',(#51),#828,.F.);
#894=ADVANCED_FACE('',(#52),#829,.F.);
#895=ADVANCED_FACE('',(#53),#830,.F.);
#896=ADVANCED_FACE('',(#54),#831,.F.);
#897=ADVANCED_FACE('',(#55),#832,.F.);
#898=ADVANCED_FACE('',(#56),#833,.F.);
#899=ADVANCED_FACE('',(#57),#834,.F.);
#900=ADVANCED_FACE('',(#58),#835,.F.);
#901=ADVANCED_FACE('',(#59),#836,.F.);
#902=ADVANCED_FACE('',(#60),#837,.F.);
#903=ADVANCED_FACE('',(#61),#838,.F.);
#904=ADVANCED_FACE('',(#62),#839,.F.);
#905=ADVANCED_FACE('',(#63),#840,.F.);
#906=ADVANCED_FACE('',(#64),#841,.F.);
#907=ADVANCED_FACE('',(#65),#842,.T.);
#908=ADVANCED_FACE('',(#66),#843,.T.);
#909=ADVANCED_FACE('',(#67,#29),#844,.T.);
#910=ADVANCED_FACE('',(#68),#845,.T.);
#911=ADVANCED_FACE('',(#69),#846,.T.);
#912=ADVANCED_FACE('',(#70),#847,.F.);
#913=ADVANCED_FACE('',(#71),#19,.T.);
#914=ADVANCED_FACE('',(#72),#848,.T.);
#915=ADVANCED_FACE('',(#73),#849,.F.);
#916=ADVANCED_FACE('',(#74),#850,.T.);
#917=ADVANCED_FACE('',(#75),#851,.T.);
#918=ADVANCED_FACE('',(#76),#852,.T.);
#919=ADVANCED_FACE('',(#77),#853,.T.);
#920=ADVANCED_FACE('',(#78),#20,.T.);
#921=ADVANCED_FACE('',(#79),#854,.T.);
#922=ADVANCED_FACE('',(#80),#21,.T.);
#923=ADVANCED_FACE('',(#81),#855,.T.);
#924=ADVANCED_FACE('',(#82),#856,.F.);
#925=CLOSED_SHELL('',(#872,#873,#874,#875,#876,#877,#878,#879,#880,#881,
#882,#883,#884,#885,#886,#887));
#926=CLOSED_SHELL('',(#888,#889,#890,#891,#892,#893));
#927=CLOSED_SHELL('',(#894,#895,#896,#897,#898,#899,#900,#901,#902,#903,
#904,#905,#906,#907,#908,#909,#910,#911,#912));
#928=CLOSED_SHELL('',(#913,#914,#915));
#929=CLOSED_SHELL('',(#916,#917,#918,#919,#920,#921,#922,#923,#924));
#930=DERIVED_UNIT_ELEMENT(#932,1.);
#931=DERIVED_UNIT_ELEMENT(#1495,-3.);
#932=(
MASS_UNIT()
NAMED_UNIT(*)
SI_UNIT(.KILO.,.GRAM.)
);
#933=DERIVED_UNIT((#930,#931));
#934=MEASURE_REPRESENTATION_ITEM('density measure',
POSITIVE_RATIO_MEASURE(7850.),#933);
#935=PROPERTY_DEFINITION_REPRESENTATION(#940,#937);
#936=PROPERTY_DEFINITION_REPRESENTATION(#941,#938);
#937=REPRESENTATION('material name',(#939),#1492);
#938=REPRESENTATION('density',(#934),#1492);
#939=DESCRIPTIVE_REPRESENTATION_ITEM('Steel','Steel');
#940=PROPERTY_DEFINITION('material property','material name',#1502);
#941=PROPERTY_DEFINITION('material property','density of part',#1502);
#942=AXIS2_PLACEMENT_3D('',#1236,#1002,#1003);
#943=AXIS2_PLACEMENT_3D('',#1237,#1004,#1005);
#944=AXIS2_PLACEMENT_3D('',#1246,#1010,#1011);
#945=AXIS2_PLACEMENT_3D('',#1252,#1015,#1016);
#946=AXIS2_PLACEMENT_3D('',#1258,#1020,#1021);
#947=AXIS2_PLACEMENT_3D('',#1261,#1024,#1025);
#948=AXIS2_PLACEMENT_3D('',#1262,#1026,#1027);
#949=AXIS2_PLACEMENT_3D('',#1271,#1032,#1033);
#950=AXIS2_PLACEMENT_3D('',#1277,#1037,#1038);
#951=AXIS2_PLACEMENT_3D('',#1283,#1042,#1043);
#952=AXIS2_PLACEMENT_3D('',#1286,#1046,#1047);
#953=AXIS2_PLACEMENT_3D('',#1287,#1048,#1049);
#954=AXIS2_PLACEMENT_3D('',#1296,#1054,#1055);
#955=AXIS2_PLACEMENT_3D('',#1302,#1059,#1060);
#956=AXIS2_PLACEMENT_3D('',#1308,#1064,#1065);
#957=AXIS2_PLACEMENT_3D('',#1311,#1068,#1069);
#958=AXIS2_PLACEMENT_3D('',#1312,#1070,#1071);
#959=AXIS2_PLACEMENT_3D('',#1313,#1072,#1073);
#960=AXIS2_PLACEMENT_3D('',#1322,#1078,#1079);
#961=AXIS2_PLACEMENT_3D('',#1328,#1083,#1084);
#962=AXIS2_PLACEMENT_3D('',#1334,#1088,#1089);
#963=AXIS2_PLACEMENT_3D('',#1337,#1092,#1093);
#964=AXIS2_PLACEMENT_3D('',#1338,#1094,#1095);
#965=AXIS2_PLACEMENT_3D('',#1339,#1096,#1097);
#966=AXIS2_PLACEMENT_3D('',#1348,#1102,#1103);
#967=AXIS2_PLACEMENT_3D('',#1354,#1107,#1108);
#968=AXIS2_PLACEMENT_3D('',#1360,#1112,#1113);
#969=AXIS2_PLACEMENT_3D('',#1366,#1117,#1118);
#970=AXIS2_PLACEMENT_3D('',#1372,#1122,#1123);
#971=AXIS2_PLACEMENT_3D('',#1378,#1127,#1128);
#972=AXIS2_PLACEMENT_3D('',#1384,#1132,#1133);
#973=AXIS2_PLACEMENT_3D('',#1390,#1137,#1138);
#974=AXIS2_PLACEMENT_3D('',#1396,#1142,#1143);
#975=AXIS2_PLACEMENT_3D('',#1402,#1147,#1148);
#976=AXIS2_PLACEMENT_3D('',#1408,#1152,#1153);
#977=AXIS2_PLACEMENT_3D('',#1411,#1156,#1157);
#978=AXIS2_PLACEMENT_3D('',#1412,#1158,#1159);
#979=AXIS2_PLACEMENT_3D('',#1421,#1164,#1165);
#980=AXIS2_PLACEMENT_3D('',#1427,#1169,#1170);
#981=AXIS2_PLACEMENT_3D('',#1433,#1174,#1175);
#982=AXIS2_PLACEMENT_3D('',#1436,#1178,#1179);
#983=AXIS2_PLACEMENT_3D('',#1437,#1180,#1181);
#984=AXIS2_PLACEMENT_3D('',#1438,#1182,#1183);
#985=AXIS2_PLACEMENT_3D('',#1440,#1184,#1185);
#986=AXIS2_PLACEMENT_3D('',#1443,#1187,#1188);
#987=AXIS2_PLACEMENT_3D('',#1444,#1189,#1190);
#988=AXIS2_PLACEMENT_3D('',#1445,#1191,#1192);
#989=AXIS2_PLACEMENT_3D('',#1446,#1193,#1194);
#990=AXIS2_PLACEMENT_3D('',#1455,#1199,#1200);
#991=AXIS2_PLACEMENT_3D('',#1461,#1204,#1205);
#992=AXIS2_PLACEMENT_3D('',#1467,#1209,#1210);
#993=AXIS2_PLACEMENT_3D('',#1473,#1214,#1215);
#994=AXIS2_PLACEMENT_3D('',#1475,#1216,#1217);
#995=AXIS2_PLACEMENT_3D('',#1477,#1218,#1219);
#996=AXIS2_PLACEMENT_3D('',#1479,#1221,#1222);
#997=AXIS2_PLACEMENT_3D('',#1485,#1226,#1227);
#998=AXIS2_PLACEMENT_3D('',#1486,#1228,#1229);
#999=AXIS2_PLACEMENT_3D('',#1487,#1230,#1231);
#1000=AXIS2_PLACEMENT_3D('',#1488,#1232,#1233);
#1001=AXIS2_PLACEMENT_3D('',#1489,#1234,#1235);
#1002=DIRECTION('axis',(0.,0.,1.));
#1003=DIRECTION('refdir',(1.,0.,0.));
#1004=DIRECTION('center_axis',(-1.,0.,0.));
#1005=DIRECTION('ref_axis',(0.,-1.,0.));
#1006=DIRECTION('',(0.,1.,0.));
#1007=DIRECTION('',(0.,0.,1.));
#1008=DIRECTION('',(0.,-1.,0.));
#1009=DIRECTION('',(0.,0.,1.));
#1010=DIRECTION('center_axis',(0.,1.,0.));
#1011=DIRECTION('ref_axis',(-1.,0.,0.));
#1012=DIRECTION('',(1.,0.,0.));
#1013=DIRECTION('',(-1.,0.,0.));
#1014=DIRECTION('',(0.,0.,1.));
#1015=DIRECTION('center_axis',(1.,0.,0.));
#1016=DIRECTION('ref_axis',(0.,1.,0.));
#1017=DIRECTION('',(0.,-1.,0.));
#1018=DIRECTION('',(0.,1.,0.));
#1019=DIRECTION('',(0.,0.,1.));
#1020=DIRECTION('center_axis',(0.,-1.,0.));
#1021=DIRECTION('ref_axis',(1.,0.,0.));
#1022=DIRECTION('',(-1.,0.,0.));
#1023=DIRECTION('',(1.,0.,0.));
#1024=DIRECTION('center_axis',(0.,0.,1.));
#1025=DIRECTION('ref_axis',(1.,0.,0.));
#1026=DIRECTION('center_axis',(-1.,0.,0.));
#1027=DIRECTION('ref_axis',(0.,-1.,0.));
#1028=DIRECTION('',(0.,1.,0.));
#1029=DIRECTION('',(0.,0.,1.));
#1030=DIRECTION('',(0.,-1.,0.));
#1031=DIRECTION('',(0.,0.,1.));
#1032=DIRECTION('center_axis',(0.,1.,0.));
#1033=DIRECTION('ref_axis',(-1.,0.,0.));
#1034=DIRECTION('',(1.,0.,0.));
#1035=DIRECTION('',(-1.,0.,0.));
#1036=DIRECTION('',(0.,0.,1.));
#1037=DIRECTION('center_axis',(1.,0.,0.));
#1038=DIRECTION('ref_axis',(0.,1.,0.));
#1039=DIRECTION('',(0.,-1.,0.));
#1040=DIRECTION('',(0.,1.,0.));
#1041=DIRECTION('',(0.,0.,1.));
#1042=DIRECTION('center_axis',(0.,-1.,0.));
#1043=DIRECTION('ref_axis',(1.,0.,0.));
#1044=DIRECTION('',(-1.,0.,0.));
#1045=DIRECTION('',(1.,0.,0.));
#1046=DIRECTION('center_axis',(0.,0.,1.));
#1047=DIRECTION('ref_axis',(1.,0.,0.));
#1048=DIRECTION('center_axis',(0.,1.,0.));
#1049=DIRECTION('ref_axis',(-1.,0.,0.));
#1050=DIRECTION('',(-1.,0.,0.));
#1051=DIRECTION('',(0.,0.,1.));
#1052=DIRECTION('',(-1.,0.,0.));
#1053=DIRECTION('',(0.,0.,1.));
#1054=DIRECTION('center_axis',(1.,0.,0.));
#1055=DIRECTION('ref_axis',(0.,1.,0.));
#1056=DIRECTION('',(0.,1.,0.));
#1057=DIRECTION('',(0.,1.,0.));
#1058=DIRECTION('',(0.,0.,1.));
#1059=DIRECTION('center_axis',(0.,-1.,0.));
#1060=DIRECTION('ref_axis',(1.,0.,0.));
#1061=DIRECTION('',(1.,0.,0.));
#1062=DIRECTION('',(1.,0.,0.));
#1063=DIRECTION('',(0.,0.,1.));
#1064=DIRECTION('center_axis',(-1.,0.,0.));
#1065=DIRECTION('ref_axis',(0.,-1.,0.));
#1066=DIRECTION('',(0.,-1.,0.));
#1067=DIRECTION('',(0.,-1.,0.));
#1068=DIRECTION('center_axis',(0.,0.,1.));
#1069=DIRECTION('ref_axis',(1.,0.,0.));
#1070=DIRECTION('center_axis',(0.,0.,1.));
#1071=DIRECTION('ref_axis',(1.,0.,0.));
#1072=DIRECTION('center_axis',(0.,1.,0.));
#1073=DIRECTION('ref_axis',(-1.,0.,0.));
#1074=DIRECTION('',(-1.,0.,0.));
#1075=DIRECTION('',(0.,0.,1.));
#1076=DIRECTION('',(-1.,0.,0.));
#1077=DIRECTION('',(0.,0.,1.));
#1078=DIRECTION('center_axis',(1.,0.,0.));
#1079=DIRECTION('ref_axis',(0.,1.,0.));
#1080=DIRECTION('',(0.,1.,0.));
#1081=DIRECTION('',(0.,1.,0.));
#1082=DIRECTION('',(0.,0.,1.));
#1083=DIRECTION('center_axis',(0.,-1.,0.));
#1084=DIRECTION('ref_axis',(1.,0.,0.));
#1085=DIRECTION('',(1.,0.,0.));
#1086=DIRECTION('',(1.,0.,0.));
#1087=DIRECTION('',(0.,0.,1.));
#1088=DIRECTION('center_axis',(-1.,0.,0.));
#1089=DIRECTION('ref_axis',(0.,-1.,0.));
#1090=DIRECTION('',(0.,-1.,0.));
#1091=DIRECTION('',(0.,-1.,0.));
#1092=DIRECTION('center_axis',(0.,0.,1.));
#1093=DIRECTION('ref_axis',(1.,0.,0.));
#1094=DIRECTION('center_axis',(0.,0.,1.));
#1095=DIRECTION('ref_axis',(-1.,0.,0.));
#1096=DIRECTION('center_axis',(1.,0.,0.));
#1097=DIRECTION('ref_axis',(0.,0.,1.));
#1098=DIRECTION('',(0.,0.,1.));
#1099=DIRECTION('',(0.,-1.,0.));
#1100=DIRECTION('',(0.,0.,1.));
#1101=DIRECTION('',(0.,-1.,0.));
#1102=DIRECTION('center_axis',(0.,0.,-1.));
#1103=DIRECTION('ref_axis',(1.,0.,0.));
#1104=DIRECTION('',(1.,0.,0.));
#1105=DIRECTION('',(0.,-1.,0.));
#1106=DIRECTION('',(1.,0.,0.));
#1107=DIRECTION('center_axis',(-1.,0.,0.));
#1108=DIRECTION('ref_axis',(0.,0.,-1.));
#1109=DIRECTION('',(0.,0.,-1.));
#1110=DIRECTION('',(0.,-1.,0.));
#1111=DIRECTION('',(0.,0.,-1.));
#1112=DIRECTION('center_axis',(0.,0.,-1.));
#1113=DIRECTION('ref_axis',(1.,0.,0.));
#1114=DIRECTION('',(1.,0.,0.));
#1115=DIRECTION('',(0.,-1.,0.));
#1116=DIRECTION('',(1.,0.,0.));
#1117=DIRECTION('center_axis',(-1.,0.,0.));
#1118=DIRECTION('ref_axis',(0.,0.,-1.));
#1119=DIRECTION('',(0.,0.,-1.));
#1120=DIRECTION('',(0.,-1.,0.));
#1121=DIRECTION('',(0.,0.,-1.));
#1122=DIRECTION('center_axis',(0.,0.,1.));
#1123=DIRECTION('ref_axis',(-1.,0.,0.));
#1124=DIRECTION('',(-1.,0.,0.));
#1125=DIRECTION('',(0.,-1.,0.));
#1126=DIRECTION('',(-1.,0.,0.));
#1127=DIRECTION('center_axis',(-1.,0.,0.));
#1128=DIRECTION('ref_axis',(0.,0.,-1.));
#1129=DIRECTION('',(0.,0.,-1.));
#1130=DIRECTION('',(0.,-1.,0.));
#1131=DIRECTION('',(0.,0.,-1.));
#1132=DIRECTION('center_axis',(0.,0.,1.));
#1133=DIRECTION('ref_axis',(-1.,0.,0.));
#1134=DIRECTION('',(-1.,0.,0.));
#1135=DIRECTION('',(0.,-1.,0.));
#1136=DIRECTION('',(-1.,0.,0.));
#1137=DIRECTION('center_axis',(1.,0.,0.));
#1138=DIRECTION('ref_axis',(0.,0.,1.));
#1139=DIRECTION('',(0.,0.,1.));
#1140=DIRECTION('',(0.,-1.,0.));
#1141=DIRECTION('',(0.,0.,1.));
#1142=DIRECTION('center_axis',(0.,0.,1.));
#1143=DIRECTION('ref_axis',(-1.,0.,0.));
#1144=DIRECTION('',(-1.,0.,0.));
#1145=DIRECTION('',(0.,-1.,0.));
#1146=DIRECTION('',(-1.,0.,0.));
#1147=DIRECTION('center_axis',(1.,0.,0.));
#1148=DIRECTION('ref_axis',(0.,0.,1.));
#1149=DIRECTION('',(0.,0.,1.));
#1150=DIRECTION('',(0.,-1.,0.));
#1151=DIRECTION('',(0.,0.,1.));
#1152=DIRECTION('center_axis',(0.,0.,-1.));
#1153=DIRECTION('ref_axis',(1.,0.,0.));
#1154=DIRECTION('',(1.,0.,0.));
#1155=DIRECTION('',(1.,0.,0.));
#1156=DIRECTION('center_axis',(0.,-1.,0.));
#1157=DIRECTION('ref_axis',(0.,0.,-1.));
#1158=DIRECTION('center_axis',(0.,-1.,0.));
#1159=DIRECTION('ref_axis',(1.,0.,0.));
#1160=DIRECTION('',(-1.,0.,0.));
#1161=DIRECTION('',(0.,0.,1.));
#1162=DIRECTION('',(1.,0.,0.));
#1163=DIRECTION('',(0.,0.,1.));
#1164=DIRECTION('center_axis',(-1.,0.,0.));
#1165=DIRECTION('ref_axis',(0.,-1.,0.));
#1166=DIRECTION('',(0.,1.,0.));
#1167=DIRECTION('',(0.,-1.,0.));
#1168=DIRECTION('',(0.,0.,1.));
#1169=DIRECTION('center_axis',(0.,1.,0.));
#1170=DIRECTION('ref_axis',(-1.,0.,0.));
#1171=DIRECTION('',(-1.,0.,0.));
#1172=DIRECTION('',(-1.,0.,0.));
#1173=DIRECTION('',(0.,0.,1.));
#1174=DIRECTION('center_axis',(1.,0.,0.));
#1175=DIRECTION('ref_axis',(0.,1.,0.));
#1176=DIRECTION('',(0.,-1.,0.));
#1177=DIRECTION('',(0.,1.,0.));
#1178=DIRECTION('center_axis',(0.,0.,1.));
#1179=DIRECTION('ref_axis',(1.,0.,0.));
#1180=DIRECTION('center_axis',(0.,0.,1.));
#1181=DIRECTION('ref_axis',(-1.,0.,0.));
#1182=DIRECTION('center_axis',(0.,0.,1.));
#1183=DIRECTION('ref_axis',(-1.,0.,0.));
#1184=DIRECTION('center_axis',(0.,0.,1.));
#1185=DIRECTION('ref_axis',(-1.,0.,0.));
#1186=DIRECTION('',(0.,0.,-1.));
#1187=DIRECTION('center_axis',(0.,0.,1.));
#1188=DIRECTION('ref_axis',(-1.,0.,0.));
#1189=DIRECTION('center_axis',(0.,0.,1.));
#1190=DIRECTION('ref_axis',(-1.,0.,0.));
#1191=DIRECTION('center_axis',(0.,0.,1.));
#1192=DIRECTION('ref_axis',(-1.,0.,0.));
#1193=DIRECTION('center_axis',(-1.,0.,0.));
#1194=DIRECTION('ref_axis',(0.,1.,0.));
#1195=DIRECTION('',(0.,-1.,0.));
#1196=DIRECTION('',(0.,0.,-1.));
#1197=DIRECTION('',(0.,1.,0.));
#1198=DIRECTION('',(0.,0.,-1.));
#1199=DIRECTION('center_axis',(-0.707106781186547,-0.707106781186548,0.));
#1200=DIRECTION('ref_axis',(-0.707106781186548,0.707106781186547,0.));
#1201=DIRECTION('',(0.707106781186548,-0.707106781186547,0.));
#1202=DIRECTION('',(-0.707106781186548,0.707106781186547,0.));
#1203=DIRECTION('',(0.,0.,-1.));
#1204=DIRECTION('center_axis',(0.,-1.,0.));
#1205=DIRECTION('ref_axis',(-1.,0.,0.));
#1206=DIRECTION('',(1.,0.,0.));
#1207=DIRECTION('',(-1.,0.,0.));
#1208=DIRECTION('',(0.,0.,-1.));
#1209=DIRECTION('center_axis',(1.,0.,0.));
#1210=DIRECTION('ref_axis',(0.,-1.,0.));
#1211=DIRECTION('',(0.,1.,0.));
#1212=DIRECTION('',(0.,-1.,0.));
#1213=DIRECTION('',(0.,0.,-1.));
#1214=DIRECTION('center_axis',(0.,0.,-1.));
#1215=DIRECTION('ref_axis',(5.55111512312578E-16,1.,0.));
#1216=DIRECTION('center_axis',(0.,0.,-1.));
#1217=DIRECTION('ref_axis',(5.55111512312578E-16,1.,0.));
#1218=DIRECTION('center_axis',(0.,0.,-1.));
#1219=DIRECTION('ref_axis',(5.55111512312578E-16,1.,0.));
#1220=DIRECTION('',(0.,0.,-1.));
#1221=DIRECTION('center_axis',(0.,1.,0.));
#1222=DIRECTION('ref_axis',(1.,0.,0.));
#1223=DIRECTION('',(-1.,0.,0.));
#1224=DIRECTION('',(1.,0.,0.));
#1225=DIRECTION('',(0.,0.,-1.));
#1226=DIRECTION('center_axis',(0.,0.,-1.));
#1227=DIRECTION('ref_axis',(-1.,5.55111512312578E-16,0.));
#1228=DIRECTION('center_axis',(0.,0.,-1.));
#1229=DIRECTION('ref_axis',(-1.,5.55111512312578E-16,0.));
#1230=DIRECTION('center_axis',(0.,0.,-1.));
#1231=DIRECTION('ref_axis',(-1.,5.55111512312578E-16,0.));
#1232=DIRECTION('center_axis',(0.,0.,-1.));
#1233=DIRECTION('ref_axis',(1.,0.,0.));
#1234=DIRECTION('center_axis',(0.,0.,-1.));
#1235=DIRECTION('ref_axis',(1.,0.,0.));
#1236=CARTESIAN_POINT('',(0.,0.,0.));
#1237=CARTESIAN_POINT('Origin',(4.25000007450581,7.50000011175871,1.));
#1238=CARTESIAN_POINT('',(4.25000007450581,6.50000009685755,1.));
#1239=CARTESIAN_POINT('',(4.25000007450581,7.50000011175871,1.));
#1240=CARTESIAN_POINT('',(4.25000007450581,3.75000005587935,1.));
#1241=CARTESIAN_POINT('',(4.25000007450581,6.50000009685755,1.5));
#1242=CARTESIAN_POINT('',(4.25000007450581,6.50000009685755,1.));
#1243=CARTESIAN_POINT('',(4.25000007450581,7.50000011175871,1.5));
#1244=CARTESIAN_POINT('',(4.25000007450581,6.50000009685755,1.5));
#1245=CARTESIAN_POINT('',(4.25000007450581,7.50000011175871,1.));
#1246=CARTESIAN_POINT('Origin',(5.75000007450581,7.50000011175871,1.));
#1247=CARTESIAN_POINT('',(5.75000007450581,7.50000011175871,1.));
#1248=CARTESIAN_POINT('',(2.8750000372529,7.50000011175871,1.));
#1249=CARTESIAN_POINT('',(5.75000007450581,7.50000011175871,1.5));
#1250=CARTESIAN_POINT('',(4.25000007450581,7.50000011175871,1.5));
#1251=CARTESIAN_POINT('',(5.75000007450581,7.50000011175871,1.));
#1252=CARTESIAN_POINT('Origin',(5.75000007450581,6.50000009685755,1.));
#1253=CARTESIAN_POINT('',(5.75000007450581,6.50000009685755,1.));
#1254=CARTESIAN_POINT('',(5.75000007450581,3.25000004842877,1.));
#1255=CARTESIAN_POINT('',(5.75000007450581,6.50000009685755,1.5));
#1256=CARTESIAN_POINT('',(5.75000007450581,7.50000011175871,1.5));
#1257=CARTESIAN_POINT('',(5.75000007450581,6.50000009685755,1.));
#1258=CARTESIAN_POINT('Origin',(4.25000007450581,6.50000009685755,1.));
#1259=CARTESIAN_POINT('',(2.1250000372529,6.50000009685755,1.));
#1260=CARTESIAN_POINT('',(5.75000007450581,6.50000009685755,1.5));
#1261=CARTESIAN_POINT('Origin',(5.00000007450581,7.00000010430813,1.5));
#1262=CARTESIAN_POINT('Origin',(6.75000011175871,7.50000010430813,1.));
#1263=CARTESIAN_POINT('',(6.75000011175871,6.50000010430813,1.));
#1264=CARTESIAN_POINT('',(6.75000011175871,7.50000010430813,1.));
#1265=CARTESIAN_POINT('',(6.75000011175871,3.75000005215406,1.));
#1266=CARTESIAN_POINT('',(6.75000011175871,6.50000010430813,1.5));
#1267=CARTESIAN_POINT('',(6.75000011175871,6.50000010430813,1.));
#1268=CARTESIAN_POINT('',(6.75000011175871,7.50000010430813,1.5));
#1269=CARTESIAN_POINT('',(6.75000011175871,6.50000010430813,1.5));
#1270=CARTESIAN_POINT('',(6.75000011175871,7.50000010430813,1.));
#1271=CARTESIAN_POINT('Origin',(8.25000011175871,7.50000010430813,1.));
#1272=CARTESIAN_POINT('',(8.25000011175871,7.50000010430813,1.));
#1273=CARTESIAN_POINT('',(4.12500005587935,7.50000010430813,1.));
#1274=CARTESIAN_POINT('',(8.25000011175871,7.50000010430813,1.5));
#1275=CARTESIAN_POINT('',(6.75000011175871,7.50000010430813,1.5));
#1276=CARTESIAN_POINT('',(8.25000011175871,7.50000010430813,1.));
#1277=CARTESIAN_POINT('Origin',(8.25000011175871,6.50000010430813,1.));
#1278=CARTESIAN_POINT('',(8.25000011175871,6.50000010430813,1.));
#1279=CARTESIAN_POINT('',(8.25000011175871,3.25000005215406,1.));
#1280=CARTESIAN_POINT('',(8.25000011175871,6.50000010430813,1.5));
#1281=CARTESIAN_POINT('',(8.25000011175871,7.50000010430813,1.5));
#1282=CARTESIAN_POINT('',(8.25000011175871,6.50000010430813,1.));
#1283=CARTESIAN_POINT('Origin',(6.75000011175871,6.50000010430813,1.));
#1284=CARTESIAN_POINT('',(3.37500005587935,6.50000010430813,1.));
#1285=CARTESIAN_POINT('',(8.25000011175871,6.50000010430813,1.5));
#1286=CARTESIAN_POINT('Origin',(7.50000011175871,7.00000010430813,1.5));
#1287=CARTESIAN_POINT('Origin',(9.25,9.25,0.));
#1288=CARTESIAN_POINT('',(9.25,9.25,0.));
#1289=CARTESIAN_POINT('',(-9.25,9.25,0.));
#1290=CARTESIAN_POINT('',(9.25,9.25,0.));
#1291=CARTESIAN_POINT('',(-9.25,9.25,1.));
#1292=CARTESIAN_POINT('',(-9.25,9.25,0.));
#1293=CARTESIAN_POINT('',(9.25,9.25,1.));
#1294=CARTESIAN_POINT('',(9.25,9.25,1.));
#1295=CARTESIAN_POINT('',(9.25,9.25,0.));
#1296=CARTESIAN_POINT('Origin',(9.25,-9.25,0.));
#1297=CARTESIAN_POINT('',(9.25,-9.25,0.));
#1298=CARTESIAN_POINT('',(9.25,-9.25,0.));
#1299=CARTESIAN_POINT('',(9.25,-9.25,1.));
#1300=CARTESIAN_POINT('',(9.25,-9.25,1.));
#1301=CARTESIAN_POINT('',(9.25,-9.25,0.));
#1302=CARTESIAN_POINT('Origin',(-9.25,-9.25,0.));
#1303=CARTESIAN_POINT('',(-9.25,-9.25,0.));
#1304=CARTESIAN_POINT('',(-9.25,-9.25,0.));
#1305=CARTESIAN_POINT('',(-9.25,-9.25,1.));
#1306=CARTESIAN_POINT('',(-9.25,-9.25,1.));
#1307=CARTESIAN_POINT('',(-9.25,-9.25,0.));
#1308=CARTESIAN_POINT('Origin',(-9.25,9.25,0.));
#1309=CARTESIAN_POINT('',(-9.25,9.25,0.));
#1310=CARTESIAN_POINT('',(-9.25,9.25,1.));
#1311=CARTESIAN_POINT('Origin',(0.,0.,1.));
#1312=CARTESIAN_POINT('Origin',(0.,0.,0.));
#1313=CARTESIAN_POINT('Origin',(9.25,1.75,1.));
#1314=CARTESIAN_POINT('',(9.25,1.75,1.));
#1315=CARTESIAN_POINT('',(-9.25,1.75,1.));
#1316=CARTESIAN_POINT('',(9.25,1.75,1.));
#1317=CARTESIAN_POINT('',(-9.25,1.75,4.));
#1318=CARTESIAN_POINT('',(-9.25,1.75,1.));
#1319=CARTESIAN_POINT('',(9.25,1.75,4.));
#1320=CARTESIAN_POINT('',(9.25,1.75,4.));
#1321=CARTESIAN_POINT('',(9.25,1.75,1.));
#1322=CARTESIAN_POINT('Origin',(9.25,-9.25,1.));
#1323=CARTESIAN_POINT('',(9.25,-9.25,1.));
#1324=CARTESIAN_POINT('',(9.25,-9.25,1.));
#1325=CARTESIAN_POINT('',(9.25,-9.25,4.));
#1326=CARTESIAN_POINT('',(9.25,-9.25,4.));
#1327=CARTESIAN_POINT('',(9.25,-9.25,1.));
#1328=CARTESIAN_POINT('Origin',(-9.25,-9.25,1.));
#1329=CARTESIAN_POINT('',(-9.25,-9.25,1.));
#1330=CARTESIAN_POINT('',(-9.25,-9.25,1.));
#1331=CARTESIAN_POINT('',(-9.25,-9.25,4.));
#1332=CARTESIAN_POINT('',(-9.25,-9.25,4.));
#1333=CARTESIAN_POINT('',(-9.25,-9.25,1.));
#1334=CARTESIAN_POINT('Origin',(-9.25,1.75,1.));
#1335=CARTESIAN_POINT('',(-9.25,1.75,1.));
#1336=CARTESIAN_POINT('',(-9.25,1.75,4.));
#1337=CARTESIAN_POINT('Origin',(0.,-3.75,4.));
#1338=CARTESIAN_POINT('Origin',(0.,-3.75,1.));
#1339=CARTESIAN_POINT('Origin',(2.6,9.25,1.4));
#1340=CARTESIAN_POINT('',(2.6,9.25,1.4));
#1341=CARTESIAN_POINT('',(2.6,9.25,2.5));
#1342=CARTESIAN_POINT('',(2.6,9.25,1.2));
#1343=CARTESIAN_POINT('',(2.6,5.75,1.4));
#1344=CARTESIAN_POINT('',(2.6,9.25,1.4));
#1345=CARTESIAN_POINT('',(2.6,5.75,2.5));
#1346=CARTESIAN_POINT('',(2.6,5.75,2.5));
#1347=CARTESIAN_POINT('',(2.6,9.25,2.5));
#1348=CARTESIAN_POINT('Origin',(-2.6,9.25,1.4));
#1349=CARTESIAN_POINT('',(-2.6,9.25,1.4));
#1350=CARTESIAN_POINT('',(0.2,9.25,1.4));
#1351=CARTESIAN_POINT('',(-2.6,5.75,1.4));
#1352=CARTESIAN_POINT('',(-2.6,9.25,1.4));
#1353=CARTESIAN_POINT('',(2.6,5.75,1.4));
#1354=CARTESIAN_POINT('Origin',(-2.6,9.25,2.5));
#1355=CARTESIAN_POINT('',(-2.6,9.25,2.5));
#1356=CARTESIAN_POINT('',(-2.6,9.25,1.75));
#1357=CARTESIAN_POINT('',(-2.6,5.75,2.5));
#1358=CARTESIAN_POINT('',(-2.6,9.25,2.5));
#1359=CARTESIAN_POINT('',(-2.6,5.75,1.4));
#1360=CARTESIAN_POINT('Origin',(-2.79999993741512,9.25,2.5));
#1361=CARTESIAN_POINT('',(-2.79999993741512,9.25,2.5));
#1362=CARTESIAN_POINT('',(0.100000031292439,9.25,2.5));
#1363=CARTESIAN_POINT('',(-2.79999993741512,5.75,2.5));
#1364=CARTESIAN_POINT('',(-2.79999993741512,9.25,2.5));
#1365=CARTESIAN_POINT('',(-2.6,5.75,2.5));
#1366=CARTESIAN_POINT('Origin',(-2.79999993741512,9.25,2.89999993517995));
#1367=CARTESIAN_POINT('',(-2.79999993741512,9.25,2.89999993517995));
#1368=CARTESIAN_POINT('',(-2.79999993741512,9.25,1.94999996758997));
#1369=CARTESIAN_POINT('',(-2.79999993741512,5.75,2.89999993517995));
#1370=CARTESIAN_POINT('',(-2.79999993741512,9.25,2.89999993517995));
#1371=CARTESIAN_POINT('',(-2.79999993741512,5.75,2.5));
#1372=CARTESIAN_POINT('Origin',(-2.6,9.25,2.89999993517995));
#1373=CARTESIAN_POINT('',(-2.6,9.25,2.89999993517995));
#1374=CARTESIAN_POINT('',(0.2,9.25,2.89999993517995));
#1375=CARTESIAN_POINT('',(-2.6,5.75,2.89999993517995));
#1376=CARTESIAN_POINT('',(-2.6,9.25,2.89999993517995));
#1377=CARTESIAN_POINT('',(-2.79999993741512,5.75,2.89999993517995));
#1378=CARTESIAN_POINT('Origin',(-2.6,9.25,3.6));
#1379=CARTESIAN_POINT('',(-2.6,9.25,3.6));
#1380=CARTESIAN_POINT('',(-2.6,9.25,2.3));
#1381=CARTESIAN_POINT('',(-2.6,5.75,3.6));
#1382=CARTESIAN_POINT('',(-2.6,9.25,3.6));
#1383=CARTESIAN_POINT('',(-2.6,5.75,2.89999993517995));
#1384=CARTESIAN_POINT('Origin',(2.6,9.25,3.6));
#1385=CARTESIAN_POINT('',(2.6,9.25,3.6));
#1386=CARTESIAN_POINT('',(2.8,9.25,3.6));
#1387=CARTESIAN_POINT('',(2.6,5.75,3.6));
#1388=CARTESIAN_POINT('',(2.6,9.25,3.6));
#1389=CARTESIAN_POINT('',(-2.6,5.75,3.6));
#1390=CARTESIAN_POINT('Origin',(2.6,9.25,2.89999993517995));
#1391=CARTESIAN_POINT('',(2.6,9.25,2.89999993517995));
#1392=CARTESIAN_POINT('',(2.6,9.25,1.94999996758997));
#1393=CARTESIAN_POINT('',(2.6,5.75,2.89999993517995));
#1394=CARTESIAN_POINT('',(2.6,9.25,2.89999993517995));
#1395=CARTESIAN_POINT('',(2.6,5.75,3.6));
#1396=CARTESIAN_POINT('Origin',(2.79999993741512,9.25,2.89999993517995));
#1397=CARTESIAN_POINT('',(2.79999993741512,9.25,2.89999993517995));
#1398=CARTESIAN_POINT('',(2.89999996870756,9.25,2.89999993517995));
#1399=CARTESIAN_POINT('',(2.79999993741512,5.75,2.89999993517995));
#1400=CARTESIAN_POINT('',(2.79999993741512,9.25,2.89999993517995));
#1401=CARTESIAN_POINT('',(2.79999993741512,5.75,2.89999993517995));
#1402=CARTESIAN_POINT('Origin',(2.79999993741512,9.25,2.5));
#1403=CARTESIAN_POINT('',(2.79999993741512,9.25,2.5));
#1404=CARTESIAN_POINT('',(2.79999993741512,9.25,1.75));
#1405=CARTESIAN_POINT('',(2.79999993741512,5.75,2.5));
#1406=CARTESIAN_POINT('',(2.79999993741512,9.25,2.5));
#1407=CARTESIAN_POINT('',(2.79999993741512,5.75,2.5));
#1408=CARTESIAN_POINT('Origin',(2.6,9.25,2.5));
#1409=CARTESIAN_POINT('',(2.8,9.25,2.5));
#1410=CARTESIAN_POINT('',(2.6,5.75,2.5));
#1411=CARTESIAN_POINT('Origin',(0.,5.75,2.5));
#1412=CARTESIAN_POINT('Origin',(-3.,4.75,1.));
#1413=CARTESIAN_POINT('',(3.,4.75,1.));
#1414=CARTESIAN_POINT('',(-3.,4.75,1.));
#1415=CARTESIAN_POINT('',(3.,4.75,1.));
#1416=CARTESIAN_POINT('',(3.,4.75,4.));
#1417=CARTESIAN_POINT('',(3.,4.75,1.));
#1418=CARTESIAN_POINT('',(-3.,4.75,4.));
#1419=CARTESIAN_POINT('',(3.,4.75,4.));
#1420=CARTESIAN_POINT('',(-3.,4.75,1.));
#1421=CARTESIAN_POINT('Origin',(-3.,9.25,1.));
#1422=CARTESIAN_POINT('',(-3.,9.25,1.));
#1423=CARTESIAN_POINT('',(-3.,4.75,1.));
#1424=CARTESIAN_POINT('',(-3.,9.25,4.));
#1425=CARTESIAN_POINT('',(-3.,4.75,4.));
#1426=CARTESIAN_POINT('',(-3.,9.25,1.));
#1427=CARTESIAN_POINT('Origin',(3.,9.25,1.));
#1428=CARTESIAN_POINT('',(3.,9.25,1.));
#1429=CARTESIAN_POINT('',(9.25,9.25,1.));
#1430=CARTESIAN_POINT('',(3.,9.25,4.));
#1431=CARTESIAN_POINT('',(9.25,9.25,4.));
#1432=CARTESIAN_POINT('',(3.,9.25,1.));
#1433=CARTESIAN_POINT('Origin',(3.,4.75,1.));
#1434=CARTESIAN_POINT('',(3.,13.75,1.));
#1435=CARTESIAN_POINT('',(3.,13.75,4.));
#1436=CARTESIAN_POINT('Origin',(-5.55111512312578E-16,7.,4.));
#1437=CARTESIAN_POINT('Origin',(-5.55111512312578E-16,7.,1.));
#1438=CARTESIAN_POINT('Origin',(-6.30000009685755,6.40000008940697,1.));
#1439=CARTESIAN_POINT('',(-3.80000009685755,6.40000008940697,3.));
#1440=CARTESIAN_POINT('Origin',(-6.30000009685755,6.40000008940697,3.));
#1441=CARTESIAN_POINT('',(-3.80000009685755,6.40000008940697,1.));
#1442=CARTESIAN_POINT('',(-3.80000009685755,6.40000008940697,1.));
#1443=CARTESIAN_POINT('Origin',(-6.30000009685755,6.40000008940697,1.));
#1444=CARTESIAN_POINT('Origin',(-6.30000009685755,6.40000008940697,3.));
#1445=CARTESIAN_POINT('Origin',(-6.30000009685755,6.40000008940697,1.));
#1446=CARTESIAN_POINT('Origin',(-9.25,-7.25,0.));
#1447=CARTESIAN_POINT('',(-9.25,7.25,0.));
#1448=CARTESIAN_POINT('',(-9.25,-7.25,0.));
#1449=CARTESIAN_POINT('',(-9.25,7.25,0.));
#1450=CARTESIAN_POINT('',(-9.25,7.25,-2.));
#1451=CARTESIAN_POINT('',(-9.25,7.25,0.));
#1452=CARTESIAN_POINT('',(-9.25,-7.25,-2.));
#1453=CARTESIAN_POINT('',(-9.25,7.25,-2.));
#1454=CARTESIAN_POINT('',(-9.25,-7.25,0.));
#1455=CARTESIAN_POINT('Origin',(-7.25,-9.25,0.));
#1456=CARTESIAN_POINT('',(-7.25,-9.25,0.));
#1457=CARTESIAN_POINT('',(-9.25,-7.25,0.));
#1458=CARTESIAN_POINT('',(-7.25,-9.25,-2.));
#1459=CARTESIAN_POINT('',(-9.25,-7.25,-2.));
#1460=CARTESIAN_POINT('',(-7.25,-9.25,0.));
#1461=CARTESIAN_POINT('Origin',(9.25,-9.25,0.));
#1462=CARTESIAN_POINT('',(9.25,-9.25,0.));
#1463=CARTESIAN_POINT('',(-7.25,-9.25,0.));
#1464=CARTESIAN_POINT('',(9.25,-9.25,-2.));
#1465=CARTESIAN_POINT('',(-7.25,-9.25,-2.));
#1466=CARTESIAN_POINT('',(9.25,-9.25,0.));
#1467=CARTESIAN_POINT('Origin',(9.25,7.25,0.));
#1468=CARTESIAN_POINT('',(9.25,7.25,0.));
#1469=CARTESIAN_POINT('',(9.25,-9.25,0.));
#1470=CARTESIAN_POINT('',(9.25,7.25,-2.));
#1471=CARTESIAN_POINT('',(9.25,-9.25,-2.));
#1472=CARTESIAN_POINT('',(9.25,7.25,0.));
#1473=CARTESIAN_POINT('Origin',(7.25,7.25,0.));
#1474=CARTESIAN_POINT('',(7.25,9.25,0.));
#1475=CARTESIAN_POINT('Origin',(7.25,7.25,0.));
#1476=CARTESIAN_POINT('',(7.25,9.25,-2.));
#1477=CARTESIAN_POINT('Origin',(7.25,7.25,-2.));
#1478=CARTESIAN_POINT('',(7.25,9.25,0.));
#1479=CARTESIAN_POINT('Origin',(-7.25,9.25,0.));
#1480=CARTESIAN_POINT('',(-7.25,9.25,0.));
#1481=CARTESIAN_POINT('',(7.25,9.25,0.));
#1482=CARTESIAN_POINT('',(-7.25,9.25,-2.));
#1483=CARTESIAN_POINT('',(7.25,9.25,-2.));
#1484=CARTESIAN_POINT('',(-7.25,9.25,0.));
#1485=CARTESIAN_POINT('Origin',(-7.25,7.25,0.));
#1486=CARTESIAN_POINT('Origin',(-7.25,7.25,0.));
#1487=CARTESIAN_POINT('Origin',(-7.25,7.25,-2.));
#1488=CARTESIAN_POINT('Origin',(1.11022302462516E-15,0.,-2.));
#1489=CARTESIAN_POINT('Origin',(1.11022302462516E-15,0.,0.));
#1490=UNCERTAINTY_MEASURE_WITH_UNIT(LENGTH_MEASURE(0.01),#1494,
'DISTANCE_ACCURACY_VALUE',
'Maximum model space distance between geometric entities at asserted c
onnectivities');
#1491=UNCERTAINTY_MEASURE_WITH_UNIT(LENGTH_MEASURE(0.01),#1494,
'DISTANCE_ACCURACY_VALUE',
'Maximum model space distance between geometric entities at asserted c
onnectivities');
#1492=(
GEOMETRIC_REPRESENTATION_CONTEXT(3)
GLOBAL_UNCERTAINTY_ASSIGNED_CONTEXT((#1490))
GLOBAL_UNIT_ASSIGNED_CONTEXT((#1494,#1496,#1497))
REPRESENTATION_CONTEXT('','3D')
);
#1493=(
GEOMETRIC_REPRESENTATION_CONTEXT(3)
GLOBAL_UNCERTAINTY_ASSIGNED_CONTEXT((#1491))
GLOBAL_UNIT_ASSIGNED_CONTEXT((#1494,#1496,#1497))
REPRESENTATION_CONTEXT('','3D')
);
#1494=(
LENGTH_UNIT()
NAMED_UNIT(*)
SI_UNIT(.MILLI.,.METRE.)
);
#1495=(
LENGTH_UNIT()
NAMED_UNIT(*)
SI_UNIT($,.METRE.)
);
#1496=(
NAMED_UNIT(*)
PLANE_ANGLE_UNIT()
SI_UNIT($,.RADIAN.)
);
#1497=(
NAMED_UNIT(*)
SI_UNIT($,.STERADIAN.)
SOLID_ANGLE_UNIT()
);
#1498=SHAPE_DEFINITION_REPRESENTATION(#1499,#1500);
#1499=PRODUCT_DEFINITION_SHAPE('',$,#1502);
#1500=SHAPE_REPRESENTATION('',(#942),#1492);
#1501=PRODUCT_DEFINITION_CONTEXT('part definition',#1506,'design');
#1502=PRODUCT_DEFINITION('(Unsaved)','(Unsaved)',#1503,#1501);
#1503=PRODUCT_DEFINITION_FORMATION('',$,#1508);
#1504=PRODUCT_RELATED_PRODUCT_CATEGORY('(Unsaved)','(Unsaved)',(#1508));
#1505=APPLICATION_PROTOCOL_DEFINITION('international standard',
'automotive_design',2009,#1506);
#1506=APPLICATION_CONTEXT(
'Core Data for Automotive Mechanical Design Process');
#1507=PRODUCT_CONTEXT('part definition',#1506,'mechanical');
#1508=PRODUCT('(Unsaved)','(Unsaved)',$,(#1507));
#1509=PRESENTATION_STYLE_ASSIGNMENT((#1516));
#1510=PRESENTATION_STYLE_ASSIGNMENT((#1517));
#1511=PRESENTATION_STYLE_ASSIGNMENT((#1518));
#1512=PRESENTATION_STYLE_ASSIGNMENT((#1519));
#1513=PRESENTATION_STYLE_ASSIGNMENT((#1520));
#1514=PRESENTATION_STYLE_ASSIGNMENT((#1521));
#1515=PRESENTATION_STYLE_ASSIGNMENT((#1522));
#1516=SURFACE_STYLE_USAGE(.BOTH.,#1523);
#1517=SURFACE_STYLE_USAGE(.BOTH.,#1524);
#1518=SURFACE_STYLE_USAGE(.BOTH.,#1525);
#1519=SURFACE_STYLE_USAGE(.BOTH.,#1526);
#1520=SURFACE_STYLE_USAGE(.BOTH.,#1527);
#1521=SURFACE_STYLE_USAGE(.BOTH.,#1528);
#1522=SURFACE_STYLE_USAGE(.BOTH.,#1529);
#1523=SURFACE_SIDE_STYLE('',(#1530));
#1524=SURFACE_SIDE_STYLE('',(#1531));
#1525=SURFACE_SIDE_STYLE('',(#1532));
#1526=SURFACE_SIDE_STYLE('',(#1533));
#1527=SURFACE_SIDE_STYLE('',(#1534));
#1528=SURFACE_SIDE_STYLE('',(#1535));
#1529=SURFACE_SIDE_STYLE('',(#1536));
#1530=SURFACE_STYLE_FILL_AREA(#1537);
#1531=SURFACE_STYLE_FILL_AREA(#1538);
#1532=SURFACE_STYLE_FILL_AREA(#1539);
#1533=SURFACE_STYLE_FILL_AREA(#1540);
#1534=SURFACE_STYLE_FILL_AREA(#1541);
#1535=SURFACE_STYLE_FILL_AREA(#1542);
#1536=SURFACE_STYLE_FILL_AREA(#1543);
#1537=FILL_AREA_STYLE('Steel - Satin',(#1544));
#1538=FILL_AREA_STYLE('FR4',(#1545));
#1539=FILL_AREA_STYLE('LED (Blue)',(#1546));
#1540=FILL_AREA_STYLE('LED (Red)',(#1547));
#1541=FILL_AREA_STYLE('Stainless Steel - Satin',(#1548));
#1542=FILL_AREA_STYLE('ABS (White)',(#1549));
#1543=FILL_AREA_STYLE('Aluminum nitride (AlN)',(#1550));
#1544=FILL_AREA_STYLE_COLOUR('Steel - Satin',#1551);
#1545=FILL_AREA_STYLE_COLOUR('FR4',#1552);
#1546=FILL_AREA_STYLE_COLOUR('LED (Blue)',#1553);
#1547=FILL_AREA_STYLE_COLOUR('LED (Red)',#1554);
#1548=FILL_AREA_STYLE_COLOUR('Stainless Steel - Satin',#1555);
#1549=FILL_AREA_STYLE_COLOUR('ABS (White)',#1556);
#1550=FILL_AREA_STYLE_COLOUR('Aluminum nitride (AlN)',#1557);
#1551=COLOUR_RGB('Steel - Satin',0.627450980392157,0.627450980392157,0.627450980392157);
#1552=COLOUR_RGB('FR4',0.266666666666667,0.466666666666667,0.4);
#1553=COLOUR_RGB('LED (Blue)',0.188235294117647,0.231372549019608,0.588235294117647);
#1554=COLOUR_RGB('LED (Red)',0.768627450980392,0.207843137254902,0.152941176470588);
#1555=COLOUR_RGB('Stainless Steel - Satin',0.796078431372549,0.796078431372549,
0.796078431372549);
#1556=COLOUR_RGB('ABS (White)',0.964705882352941,0.964705882352941,0.952941176470588);
#1557=COLOUR_RGB('Aluminum nitride (AlN)',0.850980392156863,0.827450980392157,
0.788235294117647);
ENDSEC;
END-ISO-10303-21;
