ISO-10303-21;
HEADER;
/* Generated by software containing ST-Developer
 * from STEP Tools, Inc. (www.steptools.com) 
 */

FILE_DESCRIPTION(
/* description */ (''),
/* implementation_level */ '2;1');

FILE_NAME(
/* name */ 'TP4056.step',
/* time_stamp */ '2026-03-12T20:41:04-05:00',
/* author */ (''),
/* organization */ (''),
/* preprocessor_version */ 'ST-DEVELOPER v20.1',
/* originating_system */ 'Autodesk Translation Framework v14.24.0.0',
/* authorisation */ '');

FILE_SCHEMA (('AUTOMOTIVE_DESIGN { 1 0 10303 214 3 1 1 }'));
ENDSEC;

DATA;
#10=MECHANICAL_DESIGN_GEOMETRIC_PRESENTATION_REPRESENTATION('',(#69,#70,
#71,#72,#73,#74,#75,#76,#77,#78,#79,#80,#81),#2331);
#11=SHAPE_REPRESENTATION_RELATIONSHIP('SRR','None',#2338,#12);
#12=ADVANCED_BREP_SHAPE_REPRESENTATION('',(#13,#14,#15,#16,#17,#18,#19),
#2330);
#13=MANIFOLD_SOLID_BREP('Body1',#1437);
#14=MANIFOLD_SOLID_BREP('Body2',#1438);
#15=MANIFOLD_SOLID_BREP('Body3',#1439);
#16=MANIFOLD_SOLID_BREP('Body4',#1440);
#17=MANIFOLD_SOLID_BREP('Body5',#1441);
#18=MANIFOLD_SOLID_BREP('Body6',#1442);
#19=MANIFOLD_SOLID_BREP('Body7',#1443);
#20=CYLINDRICAL_SURFACE('',#1493,0.5);
#21=CYLINDRICAL_SURFACE('',#1495,0.5);
#22=CYLINDRICAL_SURFACE('',#1497,0.5);
#23=CYLINDRICAL_SURFACE('',#1499,0.5);
#24=CYLINDRICAL_SURFACE('',#1501,0.5);
#25=CYLINDRICAL_SURFACE('',#1503,0.5);
#26=CYLINDRICAL_SURFACE('',#1512,1.25);
#27=CYLINDRICAL_SURFACE('',#1516,1.25);
#28=CYLINDRICAL_SURFACE('',#1523,1.5);
#29=CYLINDRICAL_SURFACE('',#1528,1.5);
#30=FACE_BOUND('',#170,.T.);
#31=FACE_BOUND('',#176,.T.);
#32=FACE_BOUND('',#182,.T.);
#33=FACE_BOUND('',#188,.T.);
#34=FACE_BOUND('',#194,.T.);
#35=FACE_BOUND('',#200,.T.);
#36=FACE_BOUND('',#212,.T.);
#37=FACE_BOUND('',#213,.T.);
#38=FACE_BOUND('',#214,.T.);
#39=FACE_BOUND('',#215,.T.);
#40=FACE_BOUND('',#216,.T.);
#41=FACE_BOUND('',#217,.T.);
#42=FACE_BOUND('',#219,.T.);
#43=FACE_BOUND('',#220,.T.);
#44=FACE_BOUND('',#221,.T.);
#45=FACE_BOUND('',#222,.T.);
#46=FACE_BOUND('',#223,.T.);
#47=FACE_BOUND('',#224,.T.);
#48=FACE_BOUND('',#234,.T.);
#49=CIRCLE('',#1462,0.5);
#50=CIRCLE('',#1468,0.5);
#51=CIRCLE('',#1474,0.5);
#52=CIRCLE('',#1480,0.5);
#53=CIRCLE('',#1486,0.5);
#54=CIRCLE('',#1492,0.5);
#55=CIRCLE('',#1494,0.5);
#56=CIRCLE('',#1496,0.5);
#57=CIRCLE('',#1498,0.5);
#58=CIRCLE('',#1500,0.5);
#59=CIRCLE('',#1502,0.5);
#60=CIRCLE('',#1504,0.5);
#61=CIRCLE('',#1513,1.25);
#62=CIRCLE('',#1514,1.25);
#63=CIRCLE('',#1517,1.25);
#64=CIRCLE('',#1518,1.25);
#65=CIRCLE('',#1521,1.5);
#66=CIRCLE('',#1522,1.5);
#67=CIRCLE('',#1524,1.5);
#68=CIRCLE('',#1527,1.5);
#69=STYLED_ITEM('',(#2349),#1358);
#70=STYLED_ITEM('',(#2349),#1363);
#71=STYLED_ITEM('',(#2349),#1368);
#72=STYLED_ITEM('',(#2349),#1373);
#73=STYLED_ITEM('',(#2349),#1378);
#74=STYLED_ITEM('',(#2349),#1383);
#75=STYLED_ITEM('',(#2348),#13);
#76=STYLED_ITEM('',(#2350),#14);
#77=STYLED_ITEM('',(#2351),#15);
#78=STYLED_ITEM('',(#2351),#16);
#79=STYLED_ITEM('',(#2351),#17);
#80=STYLED_ITEM('',(#2352),#18);
#81=STYLED_ITEM('',(#2353),#19);
#82=FACE_OUTER_BOUND('',#165,.T.);
#83=FACE_OUTER_BOUND('',#166,.T.);
#84=FACE_OUTER_BOUND('',#167,.T.);
#85=FACE_OUTER_BOUND('',#168,.T.);
#86=FACE_OUTER_BOUND('',#169,.T.);
#87=FACE_OUTER_BOUND('',#171,.T.);
#88=FACE_OUTER_BOUND('',#172,.T.);
#89=FACE_OUTER_BOUND('',#173,.T.);
#90=FACE_OUTER_BOUND('',#174,.T.);
#91=FACE_OUTER_BOUND('',#175,.T.);
#92=FACE_OUTER_BOUND('',#177,.T.);
#93=FACE_OUTER_BOUND('',#178,.T.);
#94=FACE_OUTER_BOUND('',#179,.T.);
#95=FACE_OUTER_BOUND('',#180,.T.);
#96=FACE_OUTER_BOUND('',#181,.T.);
#97=FACE_OUTER_BOUND('',#183,.T.);
#98=FACE_OUTER_BOUND('',#184,.T.);
#99=FACE_OUTER_BOUND('',#185,.T.);
#100=FACE_OUTER_BOUND('',#186,.T.);
#101=FACE_OUTER_BOUND('',#187,.T.);
#102=FACE_OUTER_BOUND('',#189,.T.);
#103=FACE_OUTER_BOUND('',#190,.T.);
#104=FACE_OUTER_BOUND('',#191,.T.);
#105=FACE_OUTER_BOUND('',#192,.T.);
#106=FACE_OUTER_BOUND('',#193,.T.);
#107=FACE_OUTER_BOUND('',#195,.T.);
#108=FACE_OUTER_BOUND('',#196,.T.);
#109=FACE_OUTER_BOUND('',#197,.T.);
#110=FACE_OUTER_BOUND('',#198,.T.);
#111=FACE_OUTER_BOUND('',#199,.T.);
#112=FACE_OUTER_BOUND('',#201,.T.);
#113=FACE_OUTER_BOUND('',#202,.T.);
#114=FACE_OUTER_BOUND('',#203,.T.);
#115=FACE_OUTER_BOUND('',#204,.T.);
#116=FACE_OUTER_BOUND('',#205,.T.);
#117=FACE_OUTER_BOUND('',#206,.T.);
#118=FACE_OUTER_BOUND('',#207,.T.);
#119=FACE_OUTER_BOUND('',#208,.T.);
#120=FACE_OUTER_BOUND('',#209,.T.);
#121=FACE_OUTER_BOUND('',#210,.T.);
#122=FACE_OUTER_BOUND('',#211,.T.);
#123=FACE_OUTER_BOUND('',#218,.T.);
#124=FACE_OUTER_BOUND('',#225,.T.);
#125=FACE_OUTER_BOUND('',#226,.T.);
#126=FACE_OUTER_BOUND('',#227,.T.);
#127=FACE_OUTER_BOUND('',#228,.T.);
#128=FACE_OUTER_BOUND('',#229,.T.);
#129=FACE_OUTER_BOUND('',#230,.T.);
#130=FACE_OUTER_BOUND('',#231,.T.);
#131=FACE_OUTER_BOUND('',#232,.T.);
#132=FACE_OUTER_BOUND('',#233,.T.);
#133=FACE_OUTER_BOUND('',#235,.T.);
#134=FACE_OUTER_BOUND('',#236,.T.);
#135=FACE_OUTER_BOUND('',#237,.T.);
#136=FACE_OUTER_BOUND('',#238,.T.);
#137=FACE_OUTER_BOUND('',#239,.T.);
#138=FACE_OUTER_BOUND('',#240,.T.);
#139=FACE_OUTER_BOUND('',#241,.T.);
#140=FACE_OUTER_BOUND('',#242,.T.);
#141=FACE_OUTER_BOUND('',#243,.T.);
#142=FACE_OUTER_BOUND('',#244,.T.);
#143=FACE_OUTER_BOUND('',#245,.T.);
#144=FACE_OUTER_BOUND('',#246,.T.);
#145=FACE_OUTER_BOUND('',#247,.T.);
#146=FACE_OUTER_BOUND('',#248,.T.);
#147=FACE_OUTER_BOUND('',#249,.T.);
#148=FACE_OUTER_BOUND('',#250,.T.);
#149=FACE_OUTER_BOUND('',#251,.T.);
#150=FACE_OUTER_BOUND('',#252,.T.);
#151=FACE_OUTER_BOUND('',#253,.T.);
#152=FACE_OUTER_BOUND('',#254,.T.);
#153=FACE_OUTER_BOUND('',#255,.T.);
#154=FACE_OUTER_BOUND('',#256,.T.);
#155=FACE_OUTER_BOUND('',#257,.T.);
#156=FACE_OUTER_BOUND('',#258,.T.);
#157=FACE_OUTER_BOUND('',#259,.T.);
#158=FACE_OUTER_BOUND('',#260,.T.);
#159=FACE_OUTER_BOUND('',#261,.T.);
#160=FACE_OUTER_BOUND('',#262,.T.);
#161=FACE_OUTER_BOUND('',#263,.T.);
#162=FACE_OUTER_BOUND('',#264,.T.);
#163=FACE_OUTER_BOUND('',#265,.T.);
#164=FACE_OUTER_BOUND('',#266,.T.);
#165=EDGE_LOOP('',(#909,#910,#911,#912));
#166=EDGE_LOOP('',(#913,#914,#915,#916));
#167=EDGE_LOOP('',(#917,#918,#919,#920));
#168=EDGE_LOOP('',(#921,#922,#923,#924));
#169=EDGE_LOOP('',(#925,#926,#927,#928));
#170=EDGE_LOOP('',(#929));
#171=EDGE_LOOP('',(#930,#931,#932,#933));
#172=EDGE_LOOP('',(#934,#935,#936,#937));
#173=EDGE_LOOP('',(#938,#939,#940,#941));
#174=EDGE_LOOP('',(#942,#943,#944,#945));
#175=EDGE_LOOP('',(#946,#947,#948,#949));
#176=EDGE_LOOP('',(#950));
#177=EDGE_LOOP('',(#951,#952,#953,#954));
#178=EDGE_LOOP('',(#955,#956,#957,#958));
#179=EDGE_LOOP('',(#959,#960,#961,#962));
#180=EDGE_LOOP('',(#963,#964,#965,#966));
#181=EDGE_LOOP('',(#967,#968,#969,#970));
#182=EDGE_LOOP('',(#971));
#183=EDGE_LOOP('',(#972,#973,#974,#975));
#184=EDGE_LOOP('',(#976,#977,#978,#979));
#185=EDGE_LOOP('',(#980,#981,#982,#983));
#186=EDGE_LOOP('',(#984,#985,#986,#987));
#187=EDGE_LOOP('',(#988,#989,#990,#991));
#188=EDGE_LOOP('',(#992));
#189=EDGE_LOOP('',(#993,#994,#995,#996));
#190=EDGE_LOOP('',(#997,#998,#999,#1000));
#191=EDGE_LOOP('',(#1001,#1002,#1003,#1004));
#192=EDGE_LOOP('',(#1005,#1006,#1007,#1008));
#193=EDGE_LOOP('',(#1009,#1010,#1011,#1012));
#194=EDGE_LOOP('',(#1013));
#195=EDGE_LOOP('',(#1014,#1015,#1016,#1017));
#196=EDGE_LOOP('',(#1018,#1019,#1020,#1021));
#197=EDGE_LOOP('',(#1022,#1023,#1024,#1025));
#198=EDGE_LOOP('',(#1026,#1027,#1028,#1029));
#199=EDGE_LOOP('',(#1030,#1031,#1032,#1033));
#200=EDGE_LOOP('',(#1034));
#201=EDGE_LOOP('',(#1035,#1036,#1037,#1038));
#202=EDGE_LOOP('',(#1039,#1040,#1041,#1042));
#203=EDGE_LOOP('',(#1043,#1044,#1045,#1046));
#204=EDGE_LOOP('',(#1047,#1048,#1049,#1050));
#205=EDGE_LOOP('',(#1051,#1052,#1053,#1054));
#206=EDGE_LOOP('',(#1055,#1056,#1057,#1058));
#207=EDGE_LOOP('',(#1059,#1060,#1061,#1062));
#208=EDGE_LOOP('',(#1063,#1064,#1065,#1066));
#209=EDGE_LOOP('',(#1067,#1068,#1069,#1070));
#210=EDGE_LOOP('',(#1071,#1072,#1073,#1074));
#211=EDGE_LOOP('',(#1075,#1076,#1077,#1078));
#212=EDGE_LOOP('',(#1079,#1080,#1081,#1082));
#213=EDGE_LOOP('',(#1083,#1084,#1085,#1086));
#214=EDGE_LOOP('',(#1087,#1088,#1089,#1090));
#215=EDGE_LOOP('',(#1091,#1092,#1093,#1094));
#216=EDGE_LOOP('',(#1095,#1096,#1097,#1098));
#217=EDGE_LOOP('',(#1099,#1100,#1101,#1102));
#218=EDGE_LOOP('',(#1103,#1104,#1105,#1106));
#219=EDGE_LOOP('',(#1107));
#220=EDGE_LOOP('',(#1108));
#221=EDGE_LOOP('',(#1109));
#222=EDGE_LOOP('',(#1110));
#223=EDGE_LOOP('',(#1111));
#224=EDGE_LOOP('',(#1112));
#225=EDGE_LOOP('',(#1113,#1114,#1115,#1116));
#226=EDGE_LOOP('',(#1117,#1118,#1119,#1120));
#227=EDGE_LOOP('',(#1121,#1122,#1123,#1124));
#228=EDGE_LOOP('',(#1125,#1126,#1127,#1128));
#229=EDGE_LOOP('',(#1129,#1130,#1131,#1132));
#230=EDGE_LOOP('',(#1133,#1134,#1135,#1136));
#231=EDGE_LOOP('',(#1137,#1138,#1139,#1140));
#232=EDGE_LOOP('',(#1141,#1142,#1143,#1144));
#233=EDGE_LOOP('',(#1145,#1146,#1147,#1148));
#234=EDGE_LOOP('',(#1149,#1150,#1151,#1152));
#235=EDGE_LOOP('',(#1153,#1154,#1155,#1156));
#236=EDGE_LOOP('',(#1157,#1158,#1159,#1160));
#237=EDGE_LOOP('',(#1161,#1162,#1163,#1164));
#238=EDGE_LOOP('',(#1165,#1166,#1167,#1168));
#239=EDGE_LOOP('',(#1169,#1170,#1171,#1172));
#240=EDGE_LOOP('',(#1173,#1174,#1175,#1176));
#241=EDGE_LOOP('',(#1177,#1178,#1179,#1180));
#242=EDGE_LOOP('',(#1181,#1182,#1183,#1184));
#243=EDGE_LOOP('',(#1185,#1186,#1187,#1188));
#244=EDGE_LOOP('',(#1189,#1190,#1191,#1192));
#245=EDGE_LOOP('',(#1193,#1194,#1195,#1196));
#246=EDGE_LOOP('',(#1197,#1198,#1199,#1200));
#247=EDGE_LOOP('',(#1201,#1202,#1203,#1204));
#248=EDGE_LOOP('',(#1205,#1206,#1207,#1208));
#249=EDGE_LOOP('',(#1209,#1210,#1211,#1212));
#250=EDGE_LOOP('',(#1213,#1214,#1215,#1216));
#251=EDGE_LOOP('',(#1217,#1218,#1219,#1220));
#252=EDGE_LOOP('',(#1221,#1222,#1223,#1224));
#253=EDGE_LOOP('',(#1225,#1226,#1227,#1228));
#254=EDGE_LOOP('',(#1229,#1230,#1231,#1232));
#255=EDGE_LOOP('',(#1233,#1234,#1235,#1236));
#256=EDGE_LOOP('',(#1237,#1238,#1239,#1240));
#257=EDGE_LOOP('',(#1241,#1242,#1243,#1244));
#258=EDGE_LOOP('',(#1245,#1246,#1247,#1248));
#259=EDGE_LOOP('',(#1249,#1250,#1251,#1252));
#260=EDGE_LOOP('',(#1253,#1254,#1255,#1256));
#261=EDGE_LOOP('',(#1257,#1258,#1259,#1260));
#262=EDGE_LOOP('',(#1261,#1262,#1263,#1264));
#263=EDGE_LOOP('',(#1265,#1266,#1267,#1268));
#264=EDGE_LOOP('',(#1269,#1270,#1271,#1272));
#265=EDGE_LOOP('',(#1273,#1274,#1275,#1276));
#266=EDGE_LOOP('',(#1277,#1278,#1279,#1280));
#267=LINE('',#1938,#433);
#268=LINE('',#1940,#434);
#269=LINE('',#1942,#435);
#270=LINE('',#1943,#436);
#271=LINE('',#1946,#437);
#272=LINE('',#1948,#438);
#273=LINE('',#1949,#439);
#274=LINE('',#1952,#440);
#275=LINE('',#1954,#441);
#276=LINE('',#1955,#442);
#277=LINE('',#1957,#443);
#278=LINE('',#1958,#444);
#279=LINE('',#1965,#445);
#280=LINE('',#1967,#446);
#281=LINE('',#1969,#447);
#282=LINE('',#1970,#448);
#283=LINE('',#1973,#449);
#284=LINE('',#1975,#450);
#285=LINE('',#1976,#451);
#286=LINE('',#1979,#452);
#287=LINE('',#1981,#453);
#288=LINE('',#1982,#454);
#289=LINE('',#1984,#455);
#290=LINE('',#1985,#456);
#291=LINE('',#1992,#457);
#292=LINE('',#1994,#458);
#293=LINE('',#1996,#459);
#294=LINE('',#1997,#460);
#295=LINE('',#2000,#461);
#296=LINE('',#2002,#462);
#297=LINE('',#2003,#463);
#298=LINE('',#2006,#464);
#299=LINE('',#2008,#465);
#300=LINE('',#2009,#466);
#301=LINE('',#2011,#467);
#302=LINE('',#2012,#468);
#303=LINE('',#2019,#469);
#304=LINE('',#2021,#470);
#305=LINE('',#2023,#471);
#306=LINE('',#2024,#472);
#307=LINE('',#2027,#473);
#308=LINE('',#2029,#474);
#309=LINE('',#2030,#475);
#310=LINE('',#2033,#476);
#311=LINE('',#2035,#477);
#312=LINE('',#2036,#478);
#313=LINE('',#2038,#479);
#314=LINE('',#2039,#480);
#315=LINE('',#2046,#481);
#316=LINE('',#2048,#482);
#317=LINE('',#2050,#483);
#318=LINE('',#2051,#484);
#319=LINE('',#2054,#485);
#320=LINE('',#2056,#486);
#321=LINE('',#2057,#487);
#322=LINE('',#2060,#488);
#323=LINE('',#2062,#489);
#324=LINE('',#2063,#490);
#325=LINE('',#2065,#491);
#326=LINE('',#2066,#492);
#327=LINE('',#2073,#493);
#328=LINE('',#2075,#494);
#329=LINE('',#2077,#495);
#330=LINE('',#2078,#496);
#331=LINE('',#2081,#497);
#332=LINE('',#2083,#498);
#333=LINE('',#2084,#499);
#334=LINE('',#2087,#500);
#335=LINE('',#2089,#501);
#336=LINE('',#2090,#502);
#337=LINE('',#2092,#503);
#338=LINE('',#2093,#504);
#339=LINE('',#2099,#505);
#340=LINE('',#2103,#506);
#341=LINE('',#2107,#507);
#342=LINE('',#2111,#508);
#343=LINE('',#2115,#509);
#344=LINE('',#2119,#510);
#345=LINE('',#2124,#511);
#346=LINE('',#2126,#512);
#347=LINE('',#2128,#513);
#348=LINE('',#2129,#514);
#349=LINE('',#2132,#515);
#350=LINE('',#2134,#516);
#351=LINE('',#2135,#517);
#352=LINE('',#2138,#518);
#353=LINE('',#2140,#519);
#354=LINE('',#2141,#520);
#355=LINE('',#2143,#521);
#356=LINE('',#2144,#522);
#357=LINE('',#2150,#523);
#358=LINE('',#2152,#524);
#359=LINE('',#2154,#525);
#360=LINE('',#2155,#526);
#361=LINE('',#2160,#527);
#362=LINE('',#2164,#528);
#363=LINE('',#2166,#529);
#364=LINE('',#2167,#530);
#365=LINE('',#2177,#531);
#366=LINE('',#2180,#532);
#367=LINE('',#2185,#533);
#368=LINE('',#2186,#534);
#369=LINE('',#2189,#535);
#370=LINE('',#2190,#536);
#371=LINE('',#2193,#537);
#372=LINE('',#2196,#538);
#373=LINE('',#2201,#539);
#374=LINE('',#2203,#540);
#375=LINE('',#2205,#541);
#376=LINE('',#2206,#542);
#377=LINE('',#2209,#543);
#378=LINE('',#2211,#544);
#379=LINE('',#2212,#545);
#380=LINE('',#2215,#546);
#381=LINE('',#2217,#547);
#382=LINE('',#2218,#548);
#383=LINE('',#2220,#549);
#384=LINE('',#2221,#550);
#385=LINE('',#2227,#551);
#386=LINE('',#2229,#552);
#387=LINE('',#2231,#553);
#388=LINE('',#2232,#554);
#389=LINE('',#2235,#555);
#390=LINE('',#2237,#556);
#391=LINE('',#2238,#557);
#392=LINE('',#2241,#558);
#393=LINE('',#2243,#559);
#394=LINE('',#2244,#560);
#395=LINE('',#2246,#561);
#396=LINE('',#2247,#562);
#397=LINE('',#2253,#563);
#398=LINE('',#2255,#564);
#399=LINE('',#2257,#565);
#400=LINE('',#2258,#566);
#401=LINE('',#2261,#567);
#402=LINE('',#2263,#568);
#403=LINE('',#2264,#569);
#404=LINE('',#2267,#570);
#405=LINE('',#2269,#571);
#406=LINE('',#2270,#572);
#407=LINE('',#2272,#573);
#408=LINE('',#2273,#574);
#409=LINE('',#2279,#575);
#410=LINE('',#2281,#576);
#411=LINE('',#2283,#577);
#412=LINE('',#2284,#578);
#413=LINE('',#2287,#579);
#414=LINE('',#2289,#580);
#415=LINE('',#2290,#581);
#416=LINE('',#2293,#582);
#417=LINE('',#2295,#583);
#418=LINE('',#2296,#584);
#419=LINE('',#2298,#585);
#420=LINE('',#2299,#586);
#421=LINE('',#2305,#587);
#422=LINE('',#2307,#588);
#423=LINE('',#2309,#589);
#424=LINE('',#2310,#590);
#425=LINE('',#2313,#591);
#426=LINE('',#2315,#592);
#427=LINE('',#2316,#593);
#428=LINE('',#2319,#594);
#429=LINE('',#2321,#595);
#430=LINE('',#2322,#596);
#431=LINE('',#2324,#597);
#432=LINE('',#2325,#598);
#433=VECTOR('',#1564,10.);
#434=VECTOR('',#1565,10.);
#435=VECTOR('',#1566,10.);
#436=VECTOR('',#1567,10.);
#437=VECTOR('',#1570,10.);
#438=VECTOR('',#1571,10.);
#439=VECTOR('',#1572,10.);
#440=VECTOR('',#1575,10.);
#441=VECTOR('',#1576,10.);
#442=VECTOR('',#1577,10.);
#443=VECTOR('',#1580,10.);
#444=VECTOR('',#1581,10.);
#445=VECTOR('',#1588,10.);
#446=VECTOR('',#1589,10.);
#447=VECTOR('',#1590,10.);
#448=VECTOR('',#1591,10.);
#449=VECTOR('',#1594,10.);
#450=VECTOR('',#1595,10.);
#451=VECTOR('',#1596,10.);
#452=VECTOR('',#1599,10.);
#453=VECTOR('',#1600,10.);
#454=VECTOR('',#1601,10.);
#455=VECTOR('',#1604,10.);
#456=VECTOR('',#1605,10.);
#457=VECTOR('',#1612,10.);
#458=VECTOR('',#1613,10.);
#459=VECTOR('',#1614,10.);
#460=VECTOR('',#1615,10.);
#461=VECTOR('',#1618,10.);
#462=VECTOR('',#1619,10.);
#463=VECTOR('',#1620,10.);
#464=VECTOR('',#1623,10.);
#465=VECTOR('',#1624,10.);
#466=VECTOR('',#1625,10.);
#467=VECTOR('',#1628,10.);
#468=VECTOR('',#1629,10.);
#469=VECTOR('',#1636,10.);
#470=VECTOR('',#1637,10.);
#471=VECTOR('',#1638,10.);
#472=VECTOR('',#1639,10.);
#473=VECTOR('',#1642,10.);
#474=VECTOR('',#1643,10.);
#475=VECTOR('',#1644,10.);
#476=VECTOR('',#1647,10.);
#477=VECTOR('',#1648,10.);
#478=VECTOR('',#1649,10.);
#479=VECTOR('',#1652,10.);
#480=VECTOR('',#1653,10.);
#481=VECTOR('',#1660,10.);
#482=VECTOR('',#1661,10.);
#483=VECTOR('',#1662,10.);
#484=VECTOR('',#1663,10.);
#485=VECTOR('',#1666,10.);
#486=VECTOR('',#1667,10.);
#487=VECTOR('',#1668,10.);
#488=VECTOR('',#1671,10.);
#489=VECTOR('',#1672,10.);
#490=VECTOR('',#1673,10.);
#491=VECTOR('',#1676,10.);
#492=VECTOR('',#1677,10.);
#493=VECTOR('',#1684,10.);
#494=VECTOR('',#1685,10.);
#495=VECTOR('',#1686,10.);
#496=VECTOR('',#1687,10.);
#497=VECTOR('',#1690,10.);
#498=VECTOR('',#1691,10.);
#499=VECTOR('',#1692,10.);
#500=VECTOR('',#1695,10.);
#501=VECTOR('',#1696,10.);
#502=VECTOR('',#1697,10.);
#503=VECTOR('',#1700,10.);
#504=VECTOR('',#1701,10.);
#505=VECTOR('',#1708,0.5);
#506=VECTOR('',#1713,0.5);
#507=VECTOR('',#1718,0.5);
#508=VECTOR('',#1723,0.5);
#509=VECTOR('',#1728,0.5);
#510=VECTOR('',#1733,0.5);
#511=VECTOR('',#1738,10.);
#512=VECTOR('',#1739,10.);
#513=VECTOR('',#1740,10.);
#514=VECTOR('',#1741,10.);
#515=VECTOR('',#1744,10.);
#516=VECTOR('',#1745,10.);
#517=VECTOR('',#1746,10.);
#518=VECTOR('',#1749,10.);
#519=VECTOR('',#1750,10.);
#520=VECTOR('',#1751,10.);
#521=VECTOR('',#1754,10.);
#522=VECTOR('',#1755,10.);
#523=VECTOR('',#1762,10.);
#524=VECTOR('',#1763,10.);
#525=VECTOR('',#1764,10.);
#526=VECTOR('',#1765,10.);
#527=VECTOR('',#1770,10.);
#528=VECTOR('',#1775,10.);
#529=VECTOR('',#1776,10.);
#530=VECTOR('',#1777,10.);
#531=VECTOR('',#1790,10.);
#532=VECTOR('',#1793,10.);
#533=VECTOR('',#1798,10.);
#534=VECTOR('',#1799,10.);
#535=VECTOR('',#1802,10.);
#536=VECTOR('',#1803,10.);
#537=VECTOR('',#1806,10.);
#538=VECTOR('',#1811,10.);
#539=VECTOR('',#1816,10.);
#540=VECTOR('',#1817,10.);
#541=VECTOR('',#1818,10.);
#542=VECTOR('',#1819,10.);
#543=VECTOR('',#1822,10.);
#544=VECTOR('',#1823,10.);
#545=VECTOR('',#1824,10.);
#546=VECTOR('',#1827,10.);
#547=VECTOR('',#1828,10.);
#548=VECTOR('',#1829,10.);
#549=VECTOR('',#1832,10.);
#550=VECTOR('',#1833,10.);
#551=VECTOR('',#1840,10.);
#552=VECTOR('',#1841,10.);
#553=VECTOR('',#1842,10.);
#554=VECTOR('',#1843,10.);
#555=VECTOR('',#1846,10.);
#556=VECTOR('',#1847,10.);
#557=VECTOR('',#1848,10.);
#558=VECTOR('',#1851,10.);
#559=VECTOR('',#1852,10.);
#560=VECTOR('',#1853,10.);
#561=VECTOR('',#1856,10.);
#562=VECTOR('',#1857,10.);
#563=VECTOR('',#1864,10.);
#564=VECTOR('',#1865,10.);
#565=VECTOR('',#1866,10.);
#566=VECTOR('',#1867,10.);
#567=VECTOR('',#1870,10.);
#568=VECTOR('',#1871,10.);
#569=VECTOR('',#1872,10.);
#570=VECTOR('',#1875,10.);
#571=VECTOR('',#1876,10.);
#572=VECTOR('',#1877,10.);
#573=VECTOR('',#1880,10.);
#574=VECTOR('',#1881,10.);
#575=VECTOR('',#1888,10.);
#576=VECTOR('',#1889,10.);
#577=VECTOR('',#1890,10.);
#578=VECTOR('',#1891,10.);
#579=VECTOR('',#1894,10.);
#580=VECTOR('',#1895,10.);
#581=VECTOR('',#1896,10.);
#582=VECTOR('',#1899,10.);
#583=VECTOR('',#1900,10.);
#584=VECTOR('',#1901,10.);
#585=VECTOR('',#1904,10.);
#586=VECTOR('',#1905,10.);
#587=VECTOR('',#1912,10.);
#588=VECTOR('',#1913,10.);
#589=VECTOR('',#1914,10.);
#590=VECTOR('',#1915,10.);
#591=VECTOR('',#1918,10.);
#592=VECTOR('',#1919,10.);
#593=VECTOR('',#1920,10.);
#594=VECTOR('',#1923,10.);
#595=VECTOR('',#1924,10.);
#596=VECTOR('',#1925,10.);
#597=VECTOR('',#1928,10.);
#598=VECTOR('',#1929,10.);
#599=VERTEX_POINT('',#1936);
#600=VERTEX_POINT('',#1937);
#601=VERTEX_POINT('',#1939);
#602=VERTEX_POINT('',#1941);
#603=VERTEX_POINT('',#1945);
#604=VERTEX_POINT('',#1947);
#605=VERTEX_POINT('',#1951);
#606=VERTEX_POINT('',#1953);
#607=VERTEX_POINT('',#1960);
#608=VERTEX_POINT('',#1963);
#609=VERTEX_POINT('',#1964);
#610=VERTEX_POINT('',#1966);
#611=VERTEX_POINT('',#1968);
#612=VERTEX_POINT('',#1972);
#613=VERTEX_POINT('',#1974);
#614=VERTEX_POINT('',#1978);
#615=VERTEX_POINT('',#1980);
#616=VERTEX_POINT('',#1987);
#617=VERTEX_POINT('',#1990);
#618=VERTEX_POINT('',#1991);
#619=VERTEX_POINT('',#1993);
#620=VERTEX_POINT('',#1995);
#621=VERTEX_POINT('',#1999);
#622=VERTEX_POINT('',#2001);
#623=VERTEX_POINT('',#2005);
#624=VERTEX_POINT('',#2007);
#625=VERTEX_POINT('',#2014);
#626=VERTEX_POINT('',#2017);
#627=VERTEX_POINT('',#2018);
#628=VERTEX_POINT('',#2020);
#629=VERTEX_POINT('',#2022);
#630=VERTEX_POINT('',#2026);
#631=VERTEX_POINT('',#2028);
#632=VERTEX_POINT('',#2032);
#633=VERTEX_POINT('',#2034);
#634=VERTEX_POINT('',#2041);
#635=VERTEX_POINT('',#2044);
#636=VERTEX_POINT('',#2045);
#637=VERTEX_POINT('',#2047);
#638=VERTEX_POINT('',#2049);
#639=VERTEX_POINT('',#2053);
#640=VERTEX_POINT('',#2055);
#641=VERTEX_POINT('',#2059);
#642=VERTEX_POINT('',#2061);
#643=VERTEX_POINT('',#2068);
#644=VERTEX_POINT('',#2071);
#645=VERTEX_POINT('',#2072);
#646=VERTEX_POINT('',#2074);
#647=VERTEX_POINT('',#2076);
#648=VERTEX_POINT('',#2080);
#649=VERTEX_POINT('',#2082);
#650=VERTEX_POINT('',#2086);
#651=VERTEX_POINT('',#2088);
#652=VERTEX_POINT('',#2095);
#653=VERTEX_POINT('',#2098);
#654=VERTEX_POINT('',#2102);
#655=VERTEX_POINT('',#2106);
#656=VERTEX_POINT('',#2110);
#657=VERTEX_POINT('',#2114);
#658=VERTEX_POINT('',#2118);
#659=VERTEX_POINT('',#2122);
#660=VERTEX_POINT('',#2123);
#661=VERTEX_POINT('',#2125);
#662=VERTEX_POINT('',#2127);
#663=VERTEX_POINT('',#2131);
#664=VERTEX_POINT('',#2133);
#665=VERTEX_POINT('',#2137);
#666=VERTEX_POINT('',#2139);
#667=VERTEX_POINT('',#2148);
#668=VERTEX_POINT('',#2149);
#669=VERTEX_POINT('',#2151);
#670=VERTEX_POINT('',#2153);
#671=VERTEX_POINT('',#2157);
#672=VERTEX_POINT('',#2159);
#673=VERTEX_POINT('',#2163);
#674=VERTEX_POINT('',#2165);
#675=VERTEX_POINT('',#2173);
#676=VERTEX_POINT('',#2174);
#677=VERTEX_POINT('',#2176);
#678=VERTEX_POINT('',#2178);
#679=VERTEX_POINT('',#2182);
#680=VERTEX_POINT('',#2183);
#681=VERTEX_POINT('',#2188);
#682=VERTEX_POINT('',#2192);
#683=VERTEX_POINT('',#2199);
#684=VERTEX_POINT('',#2200);
#685=VERTEX_POINT('',#2202);
#686=VERTEX_POINT('',#2204);
#687=VERTEX_POINT('',#2208);
#688=VERTEX_POINT('',#2210);
#689=VERTEX_POINT('',#2214);
#690=VERTEX_POINT('',#2216);
#691=VERTEX_POINT('',#2225);
#692=VERTEX_POINT('',#2226);
#693=VERTEX_POINT('',#2228);
#694=VERTEX_POINT('',#2230);
#695=VERTEX_POINT('',#2234);
#696=VERTEX_POINT('',#2236);
#697=VERTEX_POINT('',#2240);
#698=VERTEX_POINT('',#2242);
#699=VERTEX_POINT('',#2251);
#700=VERTEX_POINT('',#2252);
#701=VERTEX_POINT('',#2254);
#702=VERTEX_POINT('',#2256);
#703=VERTEX_POINT('',#2260);
#704=VERTEX_POINT('',#2262);
#705=VERTEX_POINT('',#2266);
#706=VERTEX_POINT('',#2268);
#707=VERTEX_POINT('',#2277);
#708=VERTEX_POINT('',#2278);
#709=VERTEX_POINT('',#2280);
#710=VERTEX_POINT('',#2282);
#711=VERTEX_POINT('',#2286);
#712=VERTEX_POINT('',#2288);
#713=VERTEX_POINT('',#2292);
#714=VERTEX_POINT('',#2294);
#715=VERTEX_POINT('',#2303);
#716=VERTEX_POINT('',#2304);
#717=VERTEX_POINT('',#2306);
#718=VERTEX_POINT('',#2308);
#719=VERTEX_POINT('',#2312);
#720=VERTEX_POINT('',#2314);
#721=VERTEX_POINT('',#2318);
#722=VERTEX_POINT('',#2320);
#723=EDGE_CURVE('',#599,#600,#267,.T.);
#724=EDGE_CURVE('',#599,#601,#268,.T.);
#725=EDGE_CURVE('',#602,#601,#269,.T.);
#726=EDGE_CURVE('',#600,#602,#270,.T.);
#727=EDGE_CURVE('',#600,#603,#271,.T.);
#728=EDGE_CURVE('',#604,#602,#272,.T.);
#729=EDGE_CURVE('',#603,#604,#273,.T.);
#730=EDGE_CURVE('',#603,#605,#274,.T.);
#731=EDGE_CURVE('',#606,#604,#275,.T.);
#732=EDGE_CURVE('',#605,#606,#276,.T.);
#733=EDGE_CURVE('',#605,#599,#277,.T.);
#734=EDGE_CURVE('',#601,#606,#278,.T.);
#735=EDGE_CURVE('',#607,#607,#49,.T.);
#736=EDGE_CURVE('',#608,#609,#279,.T.);
#737=EDGE_CURVE('',#608,#610,#280,.T.);
#738=EDGE_CURVE('',#611,#610,#281,.T.);
#739=EDGE_CURVE('',#609,#611,#282,.T.);
#740=EDGE_CURVE('',#609,#612,#283,.T.);
#741=EDGE_CURVE('',#613,#611,#284,.T.);
#742=EDGE_CURVE('',#612,#613,#285,.T.);
#743=EDGE_CURVE('',#612,#614,#286,.T.);
#744=EDGE_CURVE('',#615,#613,#287,.T.);
#745=EDGE_CURVE('',#614,#615,#288,.T.);
#746=EDGE_CURVE('',#614,#608,#289,.T.);
#747=EDGE_CURVE('',#610,#615,#290,.T.);
#748=EDGE_CURVE('',#616,#616,#50,.T.);
#749=EDGE_CURVE('',#617,#618,#291,.T.);
#750=EDGE_CURVE('',#617,#619,#292,.T.);
#751=EDGE_CURVE('',#620,#619,#293,.T.);
#752=EDGE_CURVE('',#618,#620,#294,.T.);
#753=EDGE_CURVE('',#618,#621,#295,.T.);
#754=EDGE_CURVE('',#622,#620,#296,.T.);
#755=EDGE_CURVE('',#621,#622,#297,.T.);
#756=EDGE_CURVE('',#621,#623,#298,.T.);
#757=EDGE_CURVE('',#624,#622,#299,.T.);
#758=EDGE_CURVE('',#623,#624,#300,.T.);
#759=EDGE_CURVE('',#623,#617,#301,.T.);
#760=EDGE_CURVE('',#619,#624,#302,.T.);
#761=EDGE_CURVE('',#625,#625,#51,.T.);
#762=EDGE_CURVE('',#626,#627,#303,.T.);
#763=EDGE_CURVE('',#626,#628,#304,.T.);
#764=EDGE_CURVE('',#629,#628,#305,.T.);
#765=EDGE_CURVE('',#627,#629,#306,.T.);
#766=EDGE_CURVE('',#627,#630,#307,.T.);
#767=EDGE_CURVE('',#631,#629,#308,.T.);
#768=EDGE_CURVE('',#630,#631,#309,.T.);
#769=EDGE_CURVE('',#630,#632,#310,.T.);
#770=EDGE_CURVE('',#633,#631,#311,.T.);
#771=EDGE_CURVE('',#632,#633,#312,.T.);
#772=EDGE_CURVE('',#632,#626,#313,.T.);
#773=EDGE_CURVE('',#628,#633,#314,.T.);
#774=EDGE_CURVE('',#634,#634,#52,.T.);
#775=EDGE_CURVE('',#635,#636,#315,.T.);
#776=EDGE_CURVE('',#635,#637,#316,.T.);
#777=EDGE_CURVE('',#638,#637,#317,.T.);
#778=EDGE_CURVE('',#636,#638,#318,.T.);
#779=EDGE_CURVE('',#636,#639,#319,.T.);
#780=EDGE_CURVE('',#640,#638,#320,.T.);
#781=EDGE_CURVE('',#639,#640,#321,.T.);
#782=EDGE_CURVE('',#639,#641,#322,.T.);
#783=EDGE_CURVE('',#642,#640,#323,.T.);
#784=EDGE_CURVE('',#641,#642,#324,.T.);
#785=EDGE_CURVE('',#641,#635,#325,.T.);
#786=EDGE_CURVE('',#637,#642,#326,.T.);
#787=EDGE_CURVE('',#643,#643,#53,.T.);
#788=EDGE_CURVE('',#644,#645,#327,.T.);
#789=EDGE_CURVE('',#644,#646,#328,.T.);
#790=EDGE_CURVE('',#647,#646,#329,.T.);
#791=EDGE_CURVE('',#645,#647,#330,.T.);
#792=EDGE_CURVE('',#645,#648,#331,.T.);
#793=EDGE_CURVE('',#649,#647,#332,.T.);
#794=EDGE_CURVE('',#648,#649,#333,.T.);
#795=EDGE_CURVE('',#648,#650,#334,.T.);
#796=EDGE_CURVE('',#651,#649,#335,.T.);
#797=EDGE_CURVE('',#650,#651,#336,.T.);
#798=EDGE_CURVE('',#650,#644,#337,.T.);
#799=EDGE_CURVE('',#646,#651,#338,.T.);
#800=EDGE_CURVE('',#652,#652,#54,.T.);
#801=EDGE_CURVE('',#625,#653,#339,.T.);
#802=EDGE_CURVE('',#653,#653,#55,.T.);
#803=EDGE_CURVE('',#607,#654,#340,.T.);
#804=EDGE_CURVE('',#654,#654,#56,.T.);
#805=EDGE_CURVE('',#616,#655,#341,.T.);
#806=EDGE_CURVE('',#655,#655,#57,.T.);
#807=EDGE_CURVE('',#652,#656,#342,.T.);
#808=EDGE_CURVE('',#656,#656,#58,.T.);
#809=EDGE_CURVE('',#634,#657,#343,.T.);
#810=EDGE_CURVE('',#657,#657,#59,.T.);
#811=EDGE_CURVE('',#643,#658,#344,.T.);
#812=EDGE_CURVE('',#658,#658,#60,.T.);
#813=EDGE_CURVE('',#659,#660,#345,.T.);
#814=EDGE_CURVE('',#659,#661,#346,.T.);
#815=EDGE_CURVE('',#662,#661,#347,.T.);
#816=EDGE_CURVE('',#660,#662,#348,.T.);
#817=EDGE_CURVE('',#660,#663,#349,.T.);
#818=EDGE_CURVE('',#664,#662,#350,.T.);
#819=EDGE_CURVE('',#663,#664,#351,.T.);
#820=EDGE_CURVE('',#663,#665,#352,.T.);
#821=EDGE_CURVE('',#666,#664,#353,.T.);
#822=EDGE_CURVE('',#665,#666,#354,.T.);
#823=EDGE_CURVE('',#665,#659,#355,.T.);
#824=EDGE_CURVE('',#661,#666,#356,.T.);
#825=EDGE_CURVE('',#667,#668,#357,.T.);
#826=EDGE_CURVE('',#667,#669,#358,.T.);
#827=EDGE_CURVE('',#669,#670,#359,.T.);
#828=EDGE_CURVE('',#668,#670,#360,.T.);
#829=EDGE_CURVE('',#671,#667,#61,.T.);
#830=EDGE_CURVE('',#671,#672,#361,.T.);
#831=EDGE_CURVE('',#672,#669,#62,.T.);
#832=EDGE_CURVE('',#673,#671,#362,.T.);
#833=EDGE_CURVE('',#673,#674,#363,.T.);
#834=EDGE_CURVE('',#674,#672,#364,.T.);
#835=EDGE_CURVE('',#668,#673,#63,.T.);
#836=EDGE_CURVE('',#670,#674,#64,.T.);
#837=EDGE_CURVE('',#675,#676,#65,.T.);
#838=EDGE_CURVE('',#677,#675,#365,.T.);
#839=EDGE_CURVE('',#678,#677,#66,.T.);
#840=EDGE_CURVE('',#678,#676,#366,.T.);
#841=EDGE_CURVE('',#679,#680,#67,.T.);
#842=EDGE_CURVE('',#680,#675,#367,.T.);
#843=EDGE_CURVE('',#676,#679,#368,.T.);
#844=EDGE_CURVE('',#680,#681,#369,.T.);
#845=EDGE_CURVE('',#677,#681,#370,.T.);
#846=EDGE_CURVE('',#679,#682,#371,.T.);
#847=EDGE_CURVE('',#681,#682,#68,.T.);
#848=EDGE_CURVE('',#682,#678,#372,.T.);
#849=EDGE_CURVE('',#683,#684,#373,.T.);
#850=EDGE_CURVE('',#684,#685,#374,.T.);
#851=EDGE_CURVE('',#686,#685,#375,.T.);
#852=EDGE_CURVE('',#683,#686,#376,.T.);
#853=EDGE_CURVE('',#687,#683,#377,.T.);
#854=EDGE_CURVE('',#688,#686,#378,.T.);
#855=EDGE_CURVE('',#687,#688,#379,.T.);
#856=EDGE_CURVE('',#689,#687,#380,.T.);
#857=EDGE_CURVE('',#690,#688,#381,.T.);
#858=EDGE_CURVE('',#689,#690,#382,.T.);
#859=EDGE_CURVE('',#684,#689,#383,.T.);
#860=EDGE_CURVE('',#685,#690,#384,.T.);
#861=EDGE_CURVE('',#691,#692,#385,.T.);
#862=EDGE_CURVE('',#692,#693,#386,.T.);
#863=EDGE_CURVE('',#694,#693,#387,.T.);
#864=EDGE_CURVE('',#691,#694,#388,.T.);
#865=EDGE_CURVE('',#695,#691,#389,.T.);
#866=EDGE_CURVE('',#696,#694,#390,.T.);
#867=EDGE_CURVE('',#695,#696,#391,.T.);
#868=EDGE_CURVE('',#697,#695,#392,.T.);
#869=EDGE_CURVE('',#698,#696,#393,.T.);
#870=EDGE_CURVE('',#697,#698,#394,.T.);
#871=EDGE_CURVE('',#692,#697,#395,.T.);
#872=EDGE_CURVE('',#693,#698,#396,.T.);
#873=EDGE_CURVE('',#699,#700,#397,.T.);
#874=EDGE_CURVE('',#700,#701,#398,.T.);
#875=EDGE_CURVE('',#702,#701,#399,.T.);
#876=EDGE_CURVE('',#699,#702,#400,.T.);
#877=EDGE_CURVE('',#703,#699,#401,.T.);
#878=EDGE_CURVE('',#704,#702,#402,.T.);
#879=EDGE_CURVE('',#703,#704,#403,.T.);
#880=EDGE_CURVE('',#705,#703,#404,.T.);
#881=EDGE_CURVE('',#706,#704,#405,.T.);
#882=EDGE_CURVE('',#705,#706,#406,.T.);
#883=EDGE_CURVE('',#700,#705,#407,.T.);
#884=EDGE_CURVE('',#701,#706,#408,.T.);
#885=EDGE_CURVE('',#707,#708,#409,.T.);
#886=EDGE_CURVE('',#708,#709,#410,.T.);
#887=EDGE_CURVE('',#710,#709,#411,.T.);
#888=EDGE_CURVE('',#707,#710,#412,.T.);
#889=EDGE_CURVE('',#711,#707,#413,.T.);
#890=EDGE_CURVE('',#712,#710,#414,.T.);
#891=EDGE_CURVE('',#711,#712,#415,.T.);
#892=EDGE_CURVE('',#713,#711,#416,.T.);
#893=EDGE_CURVE('',#714,#712,#417,.T.);
#894=EDGE_CURVE('',#713,#714,#418,.T.);
#895=EDGE_CURVE('',#708,#713,#419,.T.);
#896=EDGE_CURVE('',#709,#714,#420,.T.);
#897=EDGE_CURVE('',#715,#716,#421,.T.);
#898=EDGE_CURVE('',#715,#717,#422,.T.);
#899=EDGE_CURVE('',#718,#717,#423,.T.);
#900=EDGE_CURVE('',#716,#718,#424,.T.);
#901=EDGE_CURVE('',#716,#719,#425,.T.);
#902=EDGE_CURVE('',#720,#718,#426,.T.);
#903=EDGE_CURVE('',#719,#720,#427,.T.);
#904=EDGE_CURVE('',#719,#721,#428,.T.);
#905=EDGE_CURVE('',#722,#720,#429,.T.);
#906=EDGE_CURVE('',#721,#722,#430,.T.);
#907=EDGE_CURVE('',#721,#715,#431,.T.);
#908=EDGE_CURVE('',#717,#722,#432,.T.);
#909=ORIENTED_EDGE('',*,*,#723,.F.);
#910=ORIENTED_EDGE('',*,*,#724,.T.);
#911=ORIENTED_EDGE('',*,*,#725,.F.);
#912=ORIENTED_EDGE('',*,*,#726,.F.);
#913=ORIENTED_EDGE('',*,*,#727,.F.);
#914=ORIENTED_EDGE('',*,*,#726,.T.);
#915=ORIENTED_EDGE('',*,*,#728,.F.);
#916=ORIENTED_EDGE('',*,*,#729,.F.);
#917=ORIENTED_EDGE('',*,*,#730,.F.);
#918=ORIENTED_EDGE('',*,*,#729,.T.);
#919=ORIENTED_EDGE('',*,*,#731,.F.);
#920=ORIENTED_EDGE('',*,*,#732,.F.);
#921=ORIENTED_EDGE('',*,*,#733,.F.);
#922=ORIENTED_EDGE('',*,*,#732,.T.);
#923=ORIENTED_EDGE('',*,*,#734,.F.);
#924=ORIENTED_EDGE('',*,*,#724,.F.);
#925=ORIENTED_EDGE('',*,*,#734,.T.);
#926=ORIENTED_EDGE('',*,*,#731,.T.);
#927=ORIENTED_EDGE('',*,*,#728,.T.);
#928=ORIENTED_EDGE('',*,*,#725,.T.);
#929=ORIENTED_EDGE('',*,*,#735,.T.);
#930=ORIENTED_EDGE('',*,*,#736,.F.);
#931=ORIENTED_EDGE('',*,*,#737,.T.);
#932=ORIENTED_EDGE('',*,*,#738,.F.);
#933=ORIENTED_EDGE('',*,*,#739,.F.);
#934=ORIENTED_EDGE('',*,*,#740,.F.);
#935=ORIENTED_EDGE('',*,*,#739,.T.);
#936=ORIENTED_EDGE('',*,*,#741,.F.);
#937=ORIENTED_EDGE('',*,*,#742,.F.);
#938=ORIENTED_EDGE('',*,*,#743,.F.);
#939=ORIENTED_EDGE('',*,*,#742,.T.);
#940=ORIENTED_EDGE('',*,*,#744,.F.);
#941=ORIENTED_EDGE('',*,*,#745,.F.);
#942=ORIENTED_EDGE('',*,*,#746,.F.);
#943=ORIENTED_EDGE('',*,*,#745,.T.);
#944=ORIENTED_EDGE('',*,*,#747,.F.);
#945=ORIENTED_EDGE('',*,*,#737,.F.);
#946=ORIENTED_EDGE('',*,*,#747,.T.);
#947=ORIENTED_EDGE('',*,*,#744,.T.);
#948=ORIENTED_EDGE('',*,*,#741,.T.);
#949=ORIENTED_EDGE('',*,*,#738,.T.);
#950=ORIENTED_EDGE('',*,*,#748,.T.);
#951=ORIENTED_EDGE('',*,*,#749,.F.);
#952=ORIENTED_EDGE('',*,*,#750,.T.);
#953=ORIENTED_EDGE('',*,*,#751,.F.);
#954=ORIENTED_EDGE('',*,*,#752,.F.);
#955=ORIENTED_EDGE('',*,*,#753,.F.);
#956=ORIENTED_EDGE('',*,*,#752,.T.);
#957=ORIENTED_EDGE('',*,*,#754,.F.);
#958=ORIENTED_EDGE('',*,*,#755,.F.);
#959=ORIENTED_EDGE('',*,*,#756,.F.);
#960=ORIENTED_EDGE('',*,*,#755,.T.);
#961=ORIENTED_EDGE('',*,*,#757,.F.);
#962=ORIENTED_EDGE('',*,*,#758,.F.);
#963=ORIENTED_EDGE('',*,*,#759,.F.);
#964=ORIENTED_EDGE('',*,*,#758,.T.);
#965=ORIENTED_EDGE('',*,*,#760,.F.);
#966=ORIENTED_EDGE('',*,*,#750,.F.);
#967=ORIENTED_EDGE('',*,*,#760,.T.);
#968=ORIENTED_EDGE('',*,*,#757,.T.);
#969=ORIENTED_EDGE('',*,*,#754,.T.);
#970=ORIENTED_EDGE('',*,*,#751,.T.);
#971=ORIENTED_EDGE('',*,*,#761,.T.);
#972=ORIENTED_EDGE('',*,*,#762,.F.);
#973=ORIENTED_EDGE('',*,*,#763,.T.);
#974=ORIENTED_EDGE('',*,*,#764,.F.);
#975=ORIENTED_EDGE('',*,*,#765,.F.);
#976=ORIENTED_EDGE('',*,*,#766,.F.);
#977=ORIENTED_EDGE('',*,*,#765,.T.);
#978=ORIENTED_EDGE('',*,*,#767,.F.);
#979=ORIENTED_EDGE('',*,*,#768,.F.);
#980=ORIENTED_EDGE('',*,*,#769,.F.);
#981=ORIENTED_EDGE('',*,*,#768,.T.);
#982=ORIENTED_EDGE('',*,*,#770,.F.);
#983=ORIENTED_EDGE('',*,*,#771,.F.);
#984=ORIENTED_EDGE('',*,*,#772,.F.);
#985=ORIENTED_EDGE('',*,*,#771,.T.);
#986=ORIENTED_EDGE('',*,*,#773,.F.);
#987=ORIENTED_EDGE('',*,*,#763,.F.);
#988=ORIENTED_EDGE('',*,*,#773,.T.);
#989=ORIENTED_EDGE('',*,*,#770,.T.);
#990=ORIENTED_EDGE('',*,*,#767,.T.);
#991=ORIENTED_EDGE('',*,*,#764,.T.);
#992=ORIENTED_EDGE('',*,*,#774,.T.);
#993=ORIENTED_EDGE('',*,*,#775,.F.);
#994=ORIENTED_EDGE('',*,*,#776,.T.);
#995=ORIENTED_EDGE('',*,*,#777,.F.);
#996=ORIENTED_EDGE('',*,*,#778,.F.);
#997=ORIENTED_EDGE('',*,*,#779,.F.);
#998=ORIENTED_EDGE('',*,*,#778,.T.);
#999=ORIENTED_EDGE('',*,*,#780,.F.);
#1000=ORIENTED_EDGE('',*,*,#781,.F.);
#1001=ORIENTED_EDGE('',*,*,#782,.F.);
#1002=ORIENTED_EDGE('',*,*,#781,.T.);
#1003=ORIENTED_EDGE('',*,*,#783,.F.);
#1004=ORIENTED_EDGE('',*,*,#784,.F.);
#1005=ORIENTED_EDGE('',*,*,#785,.F.);
#1006=ORIENTED_EDGE('',*,*,#784,.T.);
#1007=ORIENTED_EDGE('',*,*,#786,.F.);
#1008=ORIENTED_EDGE('',*,*,#776,.F.);
#1009=ORIENTED_EDGE('',*,*,#786,.T.);
#1010=ORIENTED_EDGE('',*,*,#783,.T.);
#1011=ORIENTED_EDGE('',*,*,#780,.T.);
#1012=ORIENTED_EDGE('',*,*,#777,.T.);
#1013=ORIENTED_EDGE('',*,*,#787,.T.);
#1014=ORIENTED_EDGE('',*,*,#788,.F.);
#1015=ORIENTED_EDGE('',*,*,#789,.T.);
#1016=ORIENTED_EDGE('',*,*,#790,.F.);
#1017=ORIENTED_EDGE('',*,*,#791,.F.);
#1018=ORIENTED_EDGE('',*,*,#792,.F.);
#1019=ORIENTED_EDGE('',*,*,#791,.T.);
#1020=ORIENTED_EDGE('',*,*,#793,.F.);
#1021=ORIENTED_EDGE('',*,*,#794,.F.);
#1022=ORIENTED_EDGE('',*,*,#795,.F.);
#1023=ORIENTED_EDGE('',*,*,#794,.T.);
#1024=ORIENTED_EDGE('',*,*,#796,.F.);
#1025=ORIENTED_EDGE('',*,*,#797,.F.);
#1026=ORIENTED_EDGE('',*,*,#798,.F.);
#1027=ORIENTED_EDGE('',*,*,#797,.T.);
#1028=ORIENTED_EDGE('',*,*,#799,.F.);
#1029=ORIENTED_EDGE('',*,*,#789,.F.);
#1030=ORIENTED_EDGE('',*,*,#799,.T.);
#1031=ORIENTED_EDGE('',*,*,#796,.T.);
#1032=ORIENTED_EDGE('',*,*,#793,.T.);
#1033=ORIENTED_EDGE('',*,*,#790,.T.);
#1034=ORIENTED_EDGE('',*,*,#800,.T.);
#1035=ORIENTED_EDGE('',*,*,#761,.F.);
#1036=ORIENTED_EDGE('',*,*,#801,.T.);
#1037=ORIENTED_EDGE('',*,*,#802,.F.);
#1038=ORIENTED_EDGE('',*,*,#801,.F.);
#1039=ORIENTED_EDGE('',*,*,#735,.F.);
#1040=ORIENTED_EDGE('',*,*,#803,.T.);
#1041=ORIENTED_EDGE('',*,*,#804,.F.);
#1042=ORIENTED_EDGE('',*,*,#803,.F.);
#1043=ORIENTED_EDGE('',*,*,#748,.F.);
#1044=ORIENTED_EDGE('',*,*,#805,.T.);
#1045=ORIENTED_EDGE('',*,*,#806,.F.);
#1046=ORIENTED_EDGE('',*,*,#805,.F.);
#1047=ORIENTED_EDGE('',*,*,#800,.F.);
#1048=ORIENTED_EDGE('',*,*,#807,.T.);
#1049=ORIENTED_EDGE('',*,*,#808,.F.);
#1050=ORIENTED_EDGE('',*,*,#807,.F.);
#1051=ORIENTED_EDGE('',*,*,#774,.F.);
#1052=ORIENTED_EDGE('',*,*,#809,.T.);
#1053=ORIENTED_EDGE('',*,*,#810,.F.);
#1054=ORIENTED_EDGE('',*,*,#809,.F.);
#1055=ORIENTED_EDGE('',*,*,#787,.F.);
#1056=ORIENTED_EDGE('',*,*,#811,.T.);
#1057=ORIENTED_EDGE('',*,*,#812,.F.);
#1058=ORIENTED_EDGE('',*,*,#811,.F.);
#1059=ORIENTED_EDGE('',*,*,#813,.F.);
#1060=ORIENTED_EDGE('',*,*,#814,.T.);
#1061=ORIENTED_EDGE('',*,*,#815,.F.);
#1062=ORIENTED_EDGE('',*,*,#816,.F.);
#1063=ORIENTED_EDGE('',*,*,#817,.F.);
#1064=ORIENTED_EDGE('',*,*,#816,.T.);
#1065=ORIENTED_EDGE('',*,*,#818,.F.);
#1066=ORIENTED_EDGE('',*,*,#819,.F.);
#1067=ORIENTED_EDGE('',*,*,#820,.F.);
#1068=ORIENTED_EDGE('',*,*,#819,.T.);
#1069=ORIENTED_EDGE('',*,*,#821,.F.);
#1070=ORIENTED_EDGE('',*,*,#822,.F.);
#1071=ORIENTED_EDGE('',*,*,#823,.F.);
#1072=ORIENTED_EDGE('',*,*,#822,.T.);
#1073=ORIENTED_EDGE('',*,*,#824,.F.);
#1074=ORIENTED_EDGE('',*,*,#814,.F.);
#1075=ORIENTED_EDGE('',*,*,#824,.T.);
#1076=ORIENTED_EDGE('',*,*,#821,.T.);
#1077=ORIENTED_EDGE('',*,*,#818,.T.);
#1078=ORIENTED_EDGE('',*,*,#815,.T.);
#1079=ORIENTED_EDGE('',*,*,#723,.T.);
#1080=ORIENTED_EDGE('',*,*,#727,.T.);
#1081=ORIENTED_EDGE('',*,*,#730,.T.);
#1082=ORIENTED_EDGE('',*,*,#733,.T.);
#1083=ORIENTED_EDGE('',*,*,#736,.T.);
#1084=ORIENTED_EDGE('',*,*,#740,.T.);
#1085=ORIENTED_EDGE('',*,*,#743,.T.);
#1086=ORIENTED_EDGE('',*,*,#746,.T.);
#1087=ORIENTED_EDGE('',*,*,#749,.T.);
#1088=ORIENTED_EDGE('',*,*,#753,.T.);
#1089=ORIENTED_EDGE('',*,*,#756,.T.);
#1090=ORIENTED_EDGE('',*,*,#759,.T.);
#1091=ORIENTED_EDGE('',*,*,#762,.T.);
#1092=ORIENTED_EDGE('',*,*,#766,.T.);
#1093=ORIENTED_EDGE('',*,*,#769,.T.);
#1094=ORIENTED_EDGE('',*,*,#772,.T.);
#1095=ORIENTED_EDGE('',*,*,#775,.T.);
#1096=ORIENTED_EDGE('',*,*,#779,.T.);
#1097=ORIENTED_EDGE('',*,*,#782,.T.);
#1098=ORIENTED_EDGE('',*,*,#785,.T.);
#1099=ORIENTED_EDGE('',*,*,#788,.T.);
#1100=ORIENTED_EDGE('',*,*,#792,.T.);
#1101=ORIENTED_EDGE('',*,*,#795,.T.);
#1102=ORIENTED_EDGE('',*,*,#798,.T.);
#1103=ORIENTED_EDGE('',*,*,#823,.T.);
#1104=ORIENTED_EDGE('',*,*,#813,.T.);
#1105=ORIENTED_EDGE('',*,*,#817,.T.);
#1106=ORIENTED_EDGE('',*,*,#820,.T.);
#1107=ORIENTED_EDGE('',*,*,#802,.T.);
#1108=ORIENTED_EDGE('',*,*,#804,.T.);
#1109=ORIENTED_EDGE('',*,*,#806,.T.);
#1110=ORIENTED_EDGE('',*,*,#808,.T.);
#1111=ORIENTED_EDGE('',*,*,#810,.T.);
#1112=ORIENTED_EDGE('',*,*,#812,.T.);
#1113=ORIENTED_EDGE('',*,*,#825,.F.);
#1114=ORIENTED_EDGE('',*,*,#826,.T.);
#1115=ORIENTED_EDGE('',*,*,#827,.T.);
#1116=ORIENTED_EDGE('',*,*,#828,.F.);
#1117=ORIENTED_EDGE('',*,*,#829,.F.);
#1118=ORIENTED_EDGE('',*,*,#830,.T.);
#1119=ORIENTED_EDGE('',*,*,#831,.T.);
#1120=ORIENTED_EDGE('',*,*,#826,.F.);
#1121=ORIENTED_EDGE('',*,*,#832,.F.);
#1122=ORIENTED_EDGE('',*,*,#833,.T.);
#1123=ORIENTED_EDGE('',*,*,#834,.T.);
#1124=ORIENTED_EDGE('',*,*,#830,.F.);
#1125=ORIENTED_EDGE('',*,*,#835,.F.);
#1126=ORIENTED_EDGE('',*,*,#828,.T.);
#1127=ORIENTED_EDGE('',*,*,#836,.T.);
#1128=ORIENTED_EDGE('',*,*,#833,.F.);
#1129=ORIENTED_EDGE('',*,*,#836,.F.);
#1130=ORIENTED_EDGE('',*,*,#827,.F.);
#1131=ORIENTED_EDGE('',*,*,#831,.F.);
#1132=ORIENTED_EDGE('',*,*,#834,.F.);
#1133=ORIENTED_EDGE('',*,*,#837,.F.);
#1134=ORIENTED_EDGE('',*,*,#838,.F.);
#1135=ORIENTED_EDGE('',*,*,#839,.F.);
#1136=ORIENTED_EDGE('',*,*,#840,.T.);
#1137=ORIENTED_EDGE('',*,*,#841,.T.);
#1138=ORIENTED_EDGE('',*,*,#842,.T.);
#1139=ORIENTED_EDGE('',*,*,#837,.T.);
#1140=ORIENTED_EDGE('',*,*,#843,.T.);
#1141=ORIENTED_EDGE('',*,*,#842,.F.);
#1142=ORIENTED_EDGE('',*,*,#844,.T.);
#1143=ORIENTED_EDGE('',*,*,#845,.F.);
#1144=ORIENTED_EDGE('',*,*,#838,.T.);
#1145=ORIENTED_EDGE('',*,*,#841,.F.);
#1146=ORIENTED_EDGE('',*,*,#846,.T.);
#1147=ORIENTED_EDGE('',*,*,#847,.F.);
#1148=ORIENTED_EDGE('',*,*,#844,.F.);
#1149=ORIENTED_EDGE('',*,*,#825,.T.);
#1150=ORIENTED_EDGE('',*,*,#835,.T.);
#1151=ORIENTED_EDGE('',*,*,#832,.T.);
#1152=ORIENTED_EDGE('',*,*,#829,.T.);
#1153=ORIENTED_EDGE('',*,*,#839,.T.);
#1154=ORIENTED_EDGE('',*,*,#845,.T.);
#1155=ORIENTED_EDGE('',*,*,#847,.T.);
#1156=ORIENTED_EDGE('',*,*,#848,.T.);
#1157=ORIENTED_EDGE('',*,*,#843,.F.);
#1158=ORIENTED_EDGE('',*,*,#840,.F.);
#1159=ORIENTED_EDGE('',*,*,#848,.F.);
#1160=ORIENTED_EDGE('',*,*,#846,.F.);
#1161=ORIENTED_EDGE('',*,*,#849,.T.);
#1162=ORIENTED_EDGE('',*,*,#850,.T.);
#1163=ORIENTED_EDGE('',*,*,#851,.F.);
#1164=ORIENTED_EDGE('',*,*,#852,.F.);
#1165=ORIENTED_EDGE('',*,*,#853,.T.);
#1166=ORIENTED_EDGE('',*,*,#852,.T.);
#1167=ORIENTED_EDGE('',*,*,#854,.F.);
#1168=ORIENTED_EDGE('',*,*,#855,.F.);
#1169=ORIENTED_EDGE('',*,*,#856,.T.);
#1170=ORIENTED_EDGE('',*,*,#855,.T.);
#1171=ORIENTED_EDGE('',*,*,#857,.F.);
#1172=ORIENTED_EDGE('',*,*,#858,.F.);
#1173=ORIENTED_EDGE('',*,*,#859,.T.);
#1174=ORIENTED_EDGE('',*,*,#858,.T.);
#1175=ORIENTED_EDGE('',*,*,#860,.F.);
#1176=ORIENTED_EDGE('',*,*,#850,.F.);
#1177=ORIENTED_EDGE('',*,*,#860,.T.);
#1178=ORIENTED_EDGE('',*,*,#857,.T.);
#1179=ORIENTED_EDGE('',*,*,#854,.T.);
#1180=ORIENTED_EDGE('',*,*,#851,.T.);
#1181=ORIENTED_EDGE('',*,*,#859,.F.);
#1182=ORIENTED_EDGE('',*,*,#849,.F.);
#1183=ORIENTED_EDGE('',*,*,#853,.F.);
#1184=ORIENTED_EDGE('',*,*,#856,.F.);
#1185=ORIENTED_EDGE('',*,*,#861,.T.);
#1186=ORIENTED_EDGE('',*,*,#862,.T.);
#1187=ORIENTED_EDGE('',*,*,#863,.F.);
#1188=ORIENTED_EDGE('',*,*,#864,.F.);
#1189=ORIENTED_EDGE('',*,*,#865,.T.);
#1190=ORIENTED_EDGE('',*,*,#864,.T.);
#1191=ORIENTED_EDGE('',*,*,#866,.F.);
#1192=ORIENTED_EDGE('',*,*,#867,.F.);
#1193=ORIENTED_EDGE('',*,*,#868,.T.);
#1194=ORIENTED_EDGE('',*,*,#867,.T.);
#1195=ORIENTED_EDGE('',*,*,#869,.F.);
#1196=ORIENTED_EDGE('',*,*,#870,.F.);
#1197=ORIENTED_EDGE('',*,*,#871,.T.);
#1198=ORIENTED_EDGE('',*,*,#870,.T.);
#1199=ORIENTED_EDGE('',*,*,#872,.F.);
#1200=ORIENTED_EDGE('',*,*,#862,.F.);
#1201=ORIENTED_EDGE('',*,*,#872,.T.);
#1202=ORIENTED_EDGE('',*,*,#869,.T.);
#1203=ORIENTED_EDGE('',*,*,#866,.T.);
#1204=ORIENTED_EDGE('',*,*,#863,.T.);
#1205=ORIENTED_EDGE('',*,*,#871,.F.);
#1206=ORIENTED_EDGE('',*,*,#861,.F.);
#1207=ORIENTED_EDGE('',*,*,#865,.F.);
#1208=ORIENTED_EDGE('',*,*,#868,.F.);
#1209=ORIENTED_EDGE('',*,*,#873,.T.);
#1210=ORIENTED_EDGE('',*,*,#874,.T.);
#1211=ORIENTED_EDGE('',*,*,#875,.F.);
#1212=ORIENTED_EDGE('',*,*,#876,.F.);
#1213=ORIENTED_EDGE('',*,*,#877,.T.);
#1214=ORIENTED_EDGE('',*,*,#876,.T.);
#1215=ORIENTED_EDGE('',*,*,#878,.F.);
#1216=ORIENTED_EDGE('',*,*,#879,.F.);
#1217=ORIENTED_EDGE('',*,*,#880,.T.);
#1218=ORIENTED_EDGE('',*,*,#879,.T.);
#1219=ORIENTED_EDGE('',*,*,#881,.F.);
#1220=ORIENTED_EDGE('',*,*,#882,.F.);
#1221=ORIENTED_EDGE('',*,*,#883,.T.);
#1222=ORIENTED_EDGE('',*,*,#882,.T.);
#1223=ORIENTED_EDGE('',*,*,#884,.F.);
#1224=ORIENTED_EDGE('',*,*,#874,.F.);
#1225=ORIENTED_EDGE('',*,*,#884,.T.);
#1226=ORIENTED_EDGE('',*,*,#881,.T.);
#1227=ORIENTED_EDGE('',*,*,#878,.T.);
#1228=ORIENTED_EDGE('',*,*,#875,.T.);
#1229=ORIENTED_EDGE('',*,*,#883,.F.);
#1230=ORIENTED_EDGE('',*,*,#873,.F.);
#1231=ORIENTED_EDGE('',*,*,#877,.F.);
#1232=ORIENTED_EDGE('',*,*,#880,.F.);
#1233=ORIENTED_EDGE('',*,*,#885,.T.);
#1234=ORIENTED_EDGE('',*,*,#886,.T.);
#1235=ORIENTED_EDGE('',*,*,#887,.F.);
#1236=ORIENTED_EDGE('',*,*,#888,.F.);
#1237=ORIENTED_EDGE('',*,*,#889,.T.);
#1238=ORIENTED_EDGE('',*,*,#888,.T.);
#1239=ORIENTED_EDGE('',*,*,#890,.F.);
#1240=ORIENTED_EDGE('',*,*,#891,.F.);
#1241=ORIENTED_EDGE('',*,*,#892,.T.);
#1242=ORIENTED_EDGE('',*,*,#891,.T.);
#1243=ORIENTED_EDGE('',*,*,#893,.F.);
#1244=ORIENTED_EDGE('',*,*,#894,.F.);
#1245=ORIENTED_EDGE('',*,*,#895,.T.);
#1246=ORIENTED_EDGE('',*,*,#894,.T.);
#1247=ORIENTED_EDGE('',*,*,#896,.F.);
#1248=ORIENTED_EDGE('',*,*,#886,.F.);
#1249=ORIENTED_EDGE('',*,*,#896,.T.);
#1250=ORIENTED_EDGE('',*,*,#893,.T.);
#1251=ORIENTED_EDGE('',*,*,#890,.T.);
#1252=ORIENTED_EDGE('',*,*,#887,.T.);
#1253=ORIENTED_EDGE('',*,*,#895,.F.);
#1254=ORIENTED_EDGE('',*,*,#885,.F.);
#1255=ORIENTED_EDGE('',*,*,#889,.F.);
#1256=ORIENTED_EDGE('',*,*,#892,.F.);
#1257=ORIENTED_EDGE('',*,*,#897,.F.);
#1258=ORIENTED_EDGE('',*,*,#898,.T.);
#1259=ORIENTED_EDGE('',*,*,#899,.F.);
#1260=ORIENTED_EDGE('',*,*,#900,.F.);
#1261=ORIENTED_EDGE('',*,*,#901,.F.);
#1262=ORIENTED_EDGE('',*,*,#900,.T.);
#1263=ORIENTED_EDGE('',*,*,#902,.F.);
#1264=ORIENTED_EDGE('',*,*,#903,.F.);
#1265=ORIENTED_EDGE('',*,*,#904,.F.);
#1266=ORIENTED_EDGE('',*,*,#903,.T.);
#1267=ORIENTED_EDGE('',*,*,#905,.F.);
#1268=ORIENTED_EDGE('',*,*,#906,.F.);
#1269=ORIENTED_EDGE('',*,*,#907,.F.);
#1270=ORIENTED_EDGE('',*,*,#906,.T.);
#1271=ORIENTED_EDGE('',*,*,#908,.F.);
#1272=ORIENTED_EDGE('',*,*,#898,.F.);
#1273=ORIENTED_EDGE('',*,*,#908,.T.);
#1274=ORIENTED_EDGE('',*,*,#905,.T.);
#1275=ORIENTED_EDGE('',*,*,#902,.T.);
#1276=ORIENTED_EDGE('',*,*,#899,.T.);
#1277=ORIENTED_EDGE('',*,*,#907,.T.);
#1278=ORIENTED_EDGE('',*,*,#897,.T.);
#1279=ORIENTED_EDGE('',*,*,#901,.T.);
#1280=ORIENTED_EDGE('',*,*,#904,.T.);
#1281=PLANE('',#1457);
#1282=PLANE('',#1458);
#1283=PLANE('',#1459);
#1284=PLANE('',#1460);
#1285=PLANE('',#1461);
#1286=PLANE('',#1463);
#1287=PLANE('',#1464);
#1288=PLANE('',#1465);
#1289=PLANE('',#1466);
#1290=PLANE('',#1467);
#1291=PLANE('',#1469);
#1292=PLANE('',#1470);
#1293=PLANE('',#1471);
#1294=PLANE('',#1472);
#1295=PLANE('',#1473);
#1296=PLANE('',#1475);
#1297=PLANE('',#1476);
#1298=PLANE('',#1477);
#1299=PLANE('',#1478);
#1300=PLANE('',#1479);
#1301=PLANE('',#1481);
#1302=PLANE('',#1482);
#1303=PLANE('',#1483);
#1304=PLANE('',#1484);
#1305=PLANE('',#1485);
#1306=PLANE('',#1487);
#1307=PLANE('',#1488);
#1308=PLANE('',#1489);
#1309=PLANE('',#1490);
#1310=PLANE('',#1491);
#1311=PLANE('',#1505);
#1312=PLANE('',#1506);
#1313=PLANE('',#1507);
#1314=PLANE('',#1508);
#1315=PLANE('',#1509);
#1316=PLANE('',#1510);
#1317=PLANE('',#1511);
#1318=PLANE('',#1515);
#1319=PLANE('',#1519);
#1320=PLANE('',#1520);
#1321=PLANE('',#1525);
#1322=PLANE('',#1526);
#1323=PLANE('',#1529);
#1324=PLANE('',#1530);
#1325=PLANE('',#1531);
#1326=PLANE('',#1532);
#1327=PLANE('',#1533);
#1328=PLANE('',#1534);
#1329=PLANE('',#1535);
#1330=PLANE('',#1536);
#1331=PLANE('',#1537);
#1332=PLANE('',#1538);
#1333=PLANE('',#1539);
#1334=PLANE('',#1540);
#1335=PLANE('',#1541);
#1336=PLANE('',#1542);
#1337=PLANE('',#1543);
#1338=PLANE('',#1544);
#1339=PLANE('',#1545);
#1340=PLANE('',#1546);
#1341=PLANE('',#1547);
#1342=PLANE('',#1548);
#1343=PLANE('',#1549);
#1344=PLANE('',#1550);
#1345=PLANE('',#1551);
#1346=PLANE('',#1552);
#1347=PLANE('',#1553);
#1348=PLANE('',#1554);
#1349=PLANE('',#1555);
#1350=PLANE('',#1556);
#1351=PLANE('',#1557);
#1352=PLANE('',#1558);
#1353=PLANE('',#1559);
#1354=ADVANCED_FACE('',(#82),#1281,.T.);
#1355=ADVANCED_FACE('',(#83),#1282,.T.);
#1356=ADVANCED_FACE('',(#84),#1283,.T.);
#1357=ADVANCED_FACE('',(#85),#1284,.T.);
#1358=ADVANCED_FACE('',(#86,#30),#1285,.T.);
#1359=ADVANCED_FACE('',(#87),#1286,.T.);
#1360=ADVANCED_FACE('',(#88),#1287,.T.);
#1361=ADVANCED_FACE('',(#89),#1288,.T.);
#1362=ADVANCED_FACE('',(#90),#1289,.T.);
#1363=ADVANCED_FACE('',(#91,#31),#1290,.T.);
#1364=ADVANCED_FACE('',(#92),#1291,.T.);
#1365=ADVANCED_FACE('',(#93),#1292,.T.);
#1366=ADVANCED_FACE('',(#94),#1293,.T.);
#1367=ADVANCED_FACE('',(#95),#1294,.T.);
#1368=ADVANCED_FACE('',(#96,#32),#1295,.T.);
#1369=ADVANCED_FACE('',(#97),#1296,.T.);
#1370=ADVANCED_FACE('',(#98),#1297,.T.);
#1371=ADVANCED_FACE('',(#99),#1298,.T.);
#1372=ADVANCED_FACE('',(#100),#1299,.T.);
#1373=ADVANCED_FACE('',(#101,#33),#1300,.T.);
#1374=ADVANCED_FACE('',(#102),#1301,.T.);
#1375=ADVANCED_FACE('',(#103),#1302,.T.);
#1376=ADVANCED_FACE('',(#104),#1303,.T.);
#1377=ADVANCED_FACE('',(#105),#1304,.T.);
#1378=ADVANCED_FACE('',(#106,#34),#1305,.T.);
#1379=ADVANCED_FACE('',(#107),#1306,.T.);
#1380=ADVANCED_FACE('',(#108),#1307,.T.);
#1381=ADVANCED_FACE('',(#109),#1308,.T.);
#1382=ADVANCED_FACE('',(#110),#1309,.T.);
#1383=ADVANCED_FACE('',(#111,#35),#1310,.T.);
#1384=ADVANCED_FACE('',(#112),#20,.F.);
#1385=ADVANCED_FACE('',(#113),#21,.F.);
#1386=ADVANCED_FACE('',(#114),#22,.F.);
#1387=ADVANCED_FACE('',(#115),#23,.F.);
#1388=ADVANCED_FACE('',(#116),#24,.F.);
#1389=ADVANCED_FACE('',(#117),#25,.F.);
#1390=ADVANCED_FACE('',(#118),#1311,.T.);
#1391=ADVANCED_FACE('',(#119),#1312,.T.);
#1392=ADVANCED_FACE('',(#120),#1313,.T.);
#1393=ADVANCED_FACE('',(#121),#1314,.T.);
#1394=ADVANCED_FACE('',(#122,#36,#37,#38,#39,#40,#41),#1315,.T.);
#1395=ADVANCED_FACE('',(#123,#42,#43,#44,#45,#46,#47),#1316,.F.);
#1396=ADVANCED_FACE('',(#124),#1317,.F.);
#1397=ADVANCED_FACE('',(#125),#26,.F.);
#1398=ADVANCED_FACE('',(#126),#1318,.F.);
#1399=ADVANCED_FACE('',(#127),#27,.F.);
#1400=ADVANCED_FACE('',(#128),#1319,.T.);
#1401=ADVANCED_FACE('',(#129),#1320,.T.);
#1402=ADVANCED_FACE('',(#130),#28,.T.);
#1403=ADVANCED_FACE('',(#131),#1321,.T.);
#1404=ADVANCED_FACE('',(#132,#48),#1322,.T.);
#1405=ADVANCED_FACE('',(#133),#29,.T.);
#1406=ADVANCED_FACE('',(#134),#1323,.F.);
#1407=ADVANCED_FACE('',(#135),#1324,.T.);
#1408=ADVANCED_FACE('',(#136),#1325,.T.);
#1409=ADVANCED_FACE('',(#137),#1326,.T.);
#1410=ADVANCED_FACE('',(#138),#1327,.T.);
#1411=ADVANCED_FACE('',(#139),#1328,.T.);
#1412=ADVANCED_FACE('',(#140),#1329,.F.);
#1413=ADVANCED_FACE('',(#141),#1330,.T.);
#1414=ADVANCED_FACE('',(#142),#1331,.T.);
#1415=ADVANCED_FACE('',(#143),#1332,.T.);
#1416=ADVANCED_FACE('',(#144),#1333,.T.);
#1417=ADVANCED_FACE('',(#145),#1334,.T.);
#1418=ADVANCED_FACE('',(#146),#1335,.F.);
#1419=ADVANCED_FACE('',(#147),#1336,.T.);
#1420=ADVANCED_FACE('',(#148),#1337,.T.);
#1421=ADVANCED_FACE('',(#149),#1338,.T.);
#1422=ADVANCED_FACE('',(#150),#1339,.T.);
#1423=ADVANCED_FACE('',(#151),#1340,.T.);
#1424=ADVANCED_FACE('',(#152),#1341,.F.);
#1425=ADVANCED_FACE('',(#153),#1342,.T.);
#1426=ADVANCED_FACE('',(#154),#1343,.T.);
#1427=ADVANCED_FACE('',(#155),#1344,.T.);
#1428=ADVANCED_FACE('',(#156),#1345,.T.);
#1429=ADVANCED_FACE('',(#157),#1346,.T.);
#1430=ADVANCED_FACE('',(#158),#1347,.F.);
#1431=ADVANCED_FACE('',(#159),#1348,.T.);
#1432=ADVANCED_FACE('',(#160),#1349,.T.);
#1433=ADVANCED_FACE('',(#161),#1350,.T.);
#1434=ADVANCED_FACE('',(#162),#1351,.T.);
#1435=ADVANCED_FACE('',(#163),#1352,.T.);
#1436=ADVANCED_FACE('',(#164),#1353,.F.);
#1437=CLOSED_SHELL('',(#1354,#1355,#1356,#1357,#1358,#1359,#1360,#1361,
#1362,#1363,#1364,#1365,#1366,#1367,#1368,#1369,#1370,#1371,#1372,#1373,
#1374,#1375,#1376,#1377,#1378,#1379,#1380,#1381,#1382,#1383,#1384,#1385,
#1386,#1387,#1388,#1389,#1390,#1391,#1392,#1393,#1394,#1395));
#1438=CLOSED_SHELL('',(#1396,#1397,#1398,#1399,#1400,#1401,#1402,#1403,
#1404,#1405,#1406));
#1439=CLOSED_SHELL('',(#1407,#1408,#1409,#1410,#1411,#1412));
#1440=CLOSED_SHELL('',(#1413,#1414,#1415,#1416,#1417,#1418));
#1441=CLOSED_SHELL('',(#1419,#1420,#1421,#1422,#1423,#1424));
#1442=CLOSED_SHELL('',(#1425,#1426,#1427,#1428,#1429,#1430));
#1443=CLOSED_SHELL('',(#1431,#1432,#1433,#1434,#1435,#1436));
#1444=DERIVED_UNIT_ELEMENT(#1446,1.);
#1445=DERIVED_UNIT_ELEMENT(#2333,-3.);
#1446=(
MASS_UNIT()
NAMED_UNIT(*)
SI_UNIT(.KILO.,.GRAM.)
);
#1447=DERIVED_UNIT((#1444,#1445));
#1448=MEASURE_REPRESENTATION_ITEM('density measure',
POSITIVE_RATIO_MEASURE(7850.),#1447);
#1449=PROPERTY_DEFINITION_REPRESENTATION(#1454,#1451);
#1450=PROPERTY_DEFINITION_REPRESENTATION(#1455,#1452);
#1451=REPRESENTATION('material name',(#1453),#2330);
#1452=REPRESENTATION('density',(#1448),#2330);
#1453=DESCRIPTIVE_REPRESENTATION_ITEM('Steel','Steel');
#1454=PROPERTY_DEFINITION('material property','material name',#2340);
#1455=PROPERTY_DEFINITION('material property','density of part',#2340);
#1456=AXIS2_PLACEMENT_3D('',#1934,#1560,#1561);
#1457=AXIS2_PLACEMENT_3D('',#1935,#1562,#1563);
#1458=AXIS2_PLACEMENT_3D('',#1944,#1568,#1569);
#1459=AXIS2_PLACEMENT_3D('',#1950,#1573,#1574);
#1460=AXIS2_PLACEMENT_3D('',#1956,#1578,#1579);
#1461=AXIS2_PLACEMENT_3D('',#1959,#1582,#1583);
#1462=AXIS2_PLACEMENT_3D('',#1961,#1584,#1585);
#1463=AXIS2_PLACEMENT_3D('',#1962,#1586,#1587);
#1464=AXIS2_PLACEMENT_3D('',#1971,#1592,#1593);
#1465=AXIS2_PLACEMENT_3D('',#1977,#1597,#1598);
#1466=AXIS2_PLACEMENT_3D('',#1983,#1602,#1603);
#1467=AXIS2_PLACEMENT_3D('',#1986,#1606,#1607);
#1468=AXIS2_PLACEMENT_3D('',#1988,#1608,#1609);
#1469=AXIS2_PLACEMENT_3D('',#1989,#1610,#1611);
#1470=AXIS2_PLACEMENT_3D('',#1998,#1616,#1617);
#1471=AXIS2_PLACEMENT_3D('',#2004,#1621,#1622);
#1472=AXIS2_PLACEMENT_3D('',#2010,#1626,#1627);
#1473=AXIS2_PLACEMENT_3D('',#2013,#1630,#1631);
#1474=AXIS2_PLACEMENT_3D('',#2015,#1632,#1633);
#1475=AXIS2_PLACEMENT_3D('',#2016,#1634,#1635);
#1476=AXIS2_PLACEMENT_3D('',#2025,#1640,#1641);
#1477=AXIS2_PLACEMENT_3D('',#2031,#1645,#1646);
#1478=AXIS2_PLACEMENT_3D('',#2037,#1650,#1651);
#1479=AXIS2_PLACEMENT_3D('',#2040,#1654,#1655);
#1480=AXIS2_PLACEMENT_3D('',#2042,#1656,#1657);
#1481=AXIS2_PLACEMENT_3D('',#2043,#1658,#1659);
#1482=AXIS2_PLACEMENT_3D('',#2052,#1664,#1665);
#1483=AXIS2_PLACEMENT_3D('',#2058,#1669,#1670);
#1484=AXIS2_PLACEMENT_3D('',#2064,#1674,#1675);
#1485=AXIS2_PLACEMENT_3D('',#2067,#1678,#1679);
#1486=AXIS2_PLACEMENT_3D('',#2069,#1680,#1681);
#1487=AXIS2_PLACEMENT_3D('',#2070,#1682,#1683);
#1488=AXIS2_PLACEMENT_3D('',#2079,#1688,#1689);
#1489=AXIS2_PLACEMENT_3D('',#2085,#1693,#1694);
#1490=AXIS2_PLACEMENT_3D('',#2091,#1698,#1699);
#1491=AXIS2_PLACEMENT_3D('',#2094,#1702,#1703);
#1492=AXIS2_PLACEMENT_3D('',#2096,#1704,#1705);
#1493=AXIS2_PLACEMENT_3D('',#2097,#1706,#1707);
#1494=AXIS2_PLACEMENT_3D('',#2100,#1709,#1710);
#1495=AXIS2_PLACEMENT_3D('',#2101,#1711,#1712);
#1496=AXIS2_PLACEMENT_3D('',#2104,#1714,#1715);
#1497=AXIS2_PLACEMENT_3D('',#2105,#1716,#1717);
#1498=AXIS2_PLACEMENT_3D('',#2108,#1719,#1720);
#1499=AXIS2_PLACEMENT_3D('',#2109,#1721,#1722);
#1500=AXIS2_PLACEMENT_3D('',#2112,#1724,#1725);
#1501=AXIS2_PLACEMENT_3D('',#2113,#1726,#1727);
#1502=AXIS2_PLACEMENT_3D('',#2116,#1729,#1730);
#1503=AXIS2_PLACEMENT_3D('',#2117,#1731,#1732);
#1504=AXIS2_PLACEMENT_3D('',#2120,#1734,#1735);
#1505=AXIS2_PLACEMENT_3D('',#2121,#1736,#1737);
#1506=AXIS2_PLACEMENT_3D('',#2130,#1742,#1743);
#1507=AXIS2_PLACEMENT_3D('',#2136,#1747,#1748);
#1508=AXIS2_PLACEMENT_3D('',#2142,#1752,#1753);
#1509=AXIS2_PLACEMENT_3D('',#2145,#1756,#1757);
#1510=AXIS2_PLACEMENT_3D('',#2146,#1758,#1759);
#1511=AXIS2_PLACEMENT_3D('',#2147,#1760,#1761);
#1512=AXIS2_PLACEMENT_3D('',#2156,#1766,#1767);
#1513=AXIS2_PLACEMENT_3D('',#2158,#1768,#1769);
#1514=AXIS2_PLACEMENT_3D('',#2161,#1771,#1772);
#1515=AXIS2_PLACEMENT_3D('',#2162,#1773,#1774);
#1516=AXIS2_PLACEMENT_3D('',#2168,#1778,#1779);
#1517=AXIS2_PLACEMENT_3D('',#2169,#1780,#1781);
#1518=AXIS2_PLACEMENT_3D('',#2170,#1782,#1783);
#1519=AXIS2_PLACEMENT_3D('',#2171,#1784,#1785);
#1520=AXIS2_PLACEMENT_3D('',#2172,#1786,#1787);
#1521=AXIS2_PLACEMENT_3D('',#2175,#1788,#1789);
#1522=AXIS2_PLACEMENT_3D('',#2179,#1791,#1792);
#1523=AXIS2_PLACEMENT_3D('',#2181,#1794,#1795);
#1524=AXIS2_PLACEMENT_3D('',#2184,#1796,#1797);
#1525=AXIS2_PLACEMENT_3D('',#2187,#1800,#1801);
#1526=AXIS2_PLACEMENT_3D('',#2191,#1804,#1805);
#1527=AXIS2_PLACEMENT_3D('',#2194,#1807,#1808);
#1528=AXIS2_PLACEMENT_3D('',#2195,#1809,#1810);
#1529=AXIS2_PLACEMENT_3D('',#2197,#1812,#1813);
#1530=AXIS2_PLACEMENT_3D('',#2198,#1814,#1815);
#1531=AXIS2_PLACEMENT_3D('',#2207,#1820,#1821);
#1532=AXIS2_PLACEMENT_3D('',#2213,#1825,#1826);
#1533=AXIS2_PLACEMENT_3D('',#2219,#1830,#1831);
#1534=AXIS2_PLACEMENT_3D('',#2222,#1834,#1835);
#1535=AXIS2_PLACEMENT_3D('',#2223,#1836,#1837);
#1536=AXIS2_PLACEMENT_3D('',#2224,#1838,#1839);
#1537=AXIS2_PLACEMENT_3D('',#2233,#1844,#1845);
#1538=AXIS2_PLACEMENT_3D('',#2239,#1849,#1850);
#1539=AXIS2_PLACEMENT_3D('',#2245,#1854,#1855);
#1540=AXIS2_PLACEMENT_3D('',#2248,#1858,#1859);
#1541=AXIS2_PLACEMENT_3D('',#2249,#1860,#1861);
#1542=AXIS2_PLACEMENT_3D('',#2250,#1862,#1863);
#1543=AXIS2_PLACEMENT_3D('',#2259,#1868,#1869);
#1544=AXIS2_PLACEMENT_3D('',#2265,#1873,#1874);
#1545=AXIS2_PLACEMENT_3D('',#2271,#1878,#1879);
#1546=AXIS2_PLACEMENT_3D('',#2274,#1882,#1883);
#1547=AXIS2_PLACEMENT_3D('',#2275,#1884,#1885);
#1548=AXIS2_PLACEMENT_3D('',#2276,#1886,#1887);
#1549=AXIS2_PLACEMENT_3D('',#2285,#1892,#1893);
#1550=AXIS2_PLACEMENT_3D('',#2291,#1897,#1898);
#1551=AXIS2_PLACEMENT_3D('',#2297,#1902,#1903);
#1552=AXIS2_PLACEMENT_3D('',#2300,#1906,#1907);
#1553=AXIS2_PLACEMENT_3D('',#2301,#1908,#1909);
#1554=AXIS2_PLACEMENT_3D('',#2302,#1910,#1911);
#1555=AXIS2_PLACEMENT_3D('',#2311,#1916,#1917);
#1556=AXIS2_PLACEMENT_3D('',#2317,#1921,#1922);
#1557=AXIS2_PLACEMENT_3D('',#2323,#1926,#1927);
#1558=AXIS2_PLACEMENT_3D('',#2326,#1930,#1931);
#1559=AXIS2_PLACEMENT_3D('',#2327,#1932,#1933);
#1560=DIRECTION('axis',(0.,0.,1.));
#1561=DIRECTION('refdir',(1.,0.,0.));
#1562=DIRECTION('center_axis',(1.,0.,0.));
#1563=DIRECTION('ref_axis',(0.,1.,0.));
#1564=DIRECTION('',(0.,-1.,0.));
#1565=DIRECTION('',(0.,0.,1.));
#1566=DIRECTION('',(0.,1.,0.));
#1567=DIRECTION('',(0.,0.,1.));
#1568=DIRECTION('center_axis',(0.,-1.,0.));
#1569=DIRECTION('ref_axis',(1.,0.,0.));
#1570=DIRECTION('',(-1.,0.,0.));
#1571=DIRECTION('',(1.,0.,0.));
#1572=DIRECTION('',(0.,0.,1.));
#1573=DIRECTION('center_axis',(-1.,0.,0.));
#1574=DIRECTION('ref_axis',(0.,-1.,0.));
#1575=DIRECTION('',(0.,1.,0.));
#1576=DIRECTION('',(0.,-1.,0.));
#1577=DIRECTION('',(0.,0.,1.));
#1578=DIRECTION('center_axis',(0.,1.,0.));
#1579=DIRECTION('ref_axis',(-1.,0.,0.));
#1580=DIRECTION('',(1.,0.,0.));
#1581=DIRECTION('',(-1.,0.,0.));
#1582=DIRECTION('center_axis',(0.,0.,1.));
#1583=DIRECTION('ref_axis',(-1.,0.,0.));
#1584=DIRECTION('center_axis',(0.,0.,-1.));
#1585=DIRECTION('ref_axis',(-1.,0.,0.));
#1586=DIRECTION('center_axis',(1.,0.,0.));
#1587=DIRECTION('ref_axis',(0.,1.,0.));
#1588=DIRECTION('',(0.,-1.,0.));
#1589=DIRECTION('',(0.,0.,1.));
#1590=DIRECTION('',(0.,1.,0.));
#1591=DIRECTION('',(0.,0.,1.));
#1592=DIRECTION('center_axis',(0.,-1.,0.));
#1593=DIRECTION('ref_axis',(1.,0.,0.));
#1594=DIRECTION('',(-1.,0.,0.));
#1595=DIRECTION('',(1.,0.,0.));
#1596=DIRECTION('',(0.,0.,1.));
#1597=DIRECTION('center_axis',(-1.,0.,0.));
#1598=DIRECTION('ref_axis',(0.,-1.,0.));
#1599=DIRECTION('',(0.,1.,0.));
#1600=DIRECTION('',(0.,-1.,0.));
#1601=DIRECTION('',(0.,0.,1.));
#1602=DIRECTION('center_axis',(0.,1.,0.));
#1603=DIRECTION('ref_axis',(-1.,0.,0.));
#1604=DIRECTION('',(1.,0.,0.));
#1605=DIRECTION('',(-1.,0.,0.));
#1606=DIRECTION('center_axis',(0.,0.,1.));
#1607=DIRECTION('ref_axis',(-1.,0.,0.));
#1608=DIRECTION('center_axis',(0.,0.,-1.));
#1609=DIRECTION('ref_axis',(-1.,0.,0.));
#1610=DIRECTION('center_axis',(1.,0.,0.));
#1611=DIRECTION('ref_axis',(0.,1.,0.));
#1612=DIRECTION('',(0.,-1.,0.));
#1613=DIRECTION('',(0.,0.,1.));
#1614=DIRECTION('',(0.,1.,0.));
#1615=DIRECTION('',(0.,0.,1.));
#1616=DIRECTION('center_axis',(0.,-1.,0.));
#1617=DIRECTION('ref_axis',(1.,0.,0.));
#1618=DIRECTION('',(-1.,0.,0.));
#1619=DIRECTION('',(1.,0.,0.));
#1620=DIRECTION('',(0.,0.,1.));
#1621=DIRECTION('center_axis',(-1.,0.,0.));
#1622=DIRECTION('ref_axis',(0.,-1.,0.));
#1623=DIRECTION('',(0.,1.,0.));
#1624=DIRECTION('',(0.,-1.,0.));
#1625=DIRECTION('',(0.,0.,1.));
#1626=DIRECTION('center_axis',(0.,1.,0.));
#1627=DIRECTION('ref_axis',(-1.,0.,0.));
#1628=DIRECTION('',(1.,0.,0.));
#1629=DIRECTION('',(-1.,0.,0.));
#1630=DIRECTION('center_axis',(0.,0.,1.));
#1631=DIRECTION('ref_axis',(-1.,0.,0.));
#1632=DIRECTION('center_axis',(0.,0.,-1.));
#1633=DIRECTION('ref_axis',(-1.,0.,0.));
#1634=DIRECTION('center_axis',(1.,0.,0.));
#1635=DIRECTION('ref_axis',(0.,1.,0.));
#1636=DIRECTION('',(0.,-1.,0.));
#1637=DIRECTION('',(0.,0.,1.));
#1638=DIRECTION('',(0.,1.,0.));
#1639=DIRECTION('',(0.,0.,1.));
#1640=DIRECTION('center_axis',(0.,-1.,0.));
#1641=DIRECTION('ref_axis',(1.,0.,0.));
#1642=DIRECTION('',(-1.,0.,0.));
#1643=DIRECTION('',(1.,0.,0.));
#1644=DIRECTION('',(0.,0.,1.));
#1645=DIRECTION('center_axis',(-1.,0.,0.));
#1646=DIRECTION('ref_axis',(0.,-1.,0.));
#1647=DIRECTION('',(0.,1.,0.));
#1648=DIRECTION('',(0.,-1.,0.));
#1649=DIRECTION('',(0.,0.,1.));
#1650=DIRECTION('center_axis',(0.,1.,0.));
#1651=DIRECTION('ref_axis',(-1.,0.,0.));
#1652=DIRECTION('',(1.,0.,0.));
#1653=DIRECTION('',(-1.,0.,0.));
#1654=DIRECTION('center_axis',(0.,0.,1.));
#1655=DIRECTION('ref_axis',(-1.,0.,0.));
#1656=DIRECTION('center_axis',(0.,0.,-1.));
#1657=DIRECTION('ref_axis',(-1.,0.,0.));
#1658=DIRECTION('center_axis',(1.,0.,0.));
#1659=DIRECTION('ref_axis',(0.,1.,0.));
#1660=DIRECTION('',(0.,-1.,0.));
#1661=DIRECTION('',(0.,0.,1.));
#1662=DIRECTION('',(0.,1.,0.));
#1663=DIRECTION('',(0.,0.,1.));
#1664=DIRECTION('center_axis',(0.,-1.,0.));
#1665=DIRECTION('ref_axis',(1.,0.,0.));
#1666=DIRECTION('',(-1.,0.,0.));
#1667=DIRECTION('',(1.,0.,0.));
#1668=DIRECTION('',(0.,0.,1.));
#1669=DIRECTION('center_axis',(-1.,0.,0.));
#1670=DIRECTION('ref_axis',(0.,-1.,0.));
#1671=DIRECTION('',(0.,1.,0.));
#1672=DIRECTION('',(0.,-1.,0.));
#1673=DIRECTION('',(0.,0.,1.));
#1674=DIRECTION('center_axis',(0.,1.,0.));
#1675=DIRECTION('ref_axis',(-1.,0.,0.));
#1676=DIRECTION('',(1.,0.,0.));
#1677=DIRECTION('',(-1.,0.,0.));
#1678=DIRECTION('center_axis',(0.,0.,1.));
#1679=DIRECTION('ref_axis',(-1.,0.,0.));
#1680=DIRECTION('center_axis',(0.,0.,-1.));
#1681=DIRECTION('ref_axis',(-1.,0.,0.));
#1682=DIRECTION('center_axis',(0.,1.,0.));
#1683=DIRECTION('ref_axis',(-1.,0.,0.));
#1684=DIRECTION('',(1.,0.,0.));
#1685=DIRECTION('',(0.,0.,1.));
#1686=DIRECTION('',(-1.,0.,0.));
#1687=DIRECTION('',(0.,0.,1.));
#1688=DIRECTION('center_axis',(1.,0.,0.));
#1689=DIRECTION('ref_axis',(0.,1.,0.));
#1690=DIRECTION('',(0.,-1.,0.));
#1691=DIRECTION('',(0.,1.,0.));
#1692=DIRECTION('',(0.,0.,1.));
#1693=DIRECTION('center_axis',(0.,-1.,0.));
#1694=DIRECTION('ref_axis',(1.,0.,0.));
#1695=DIRECTION('',(-1.,0.,0.));
#1696=DIRECTION('',(1.,0.,0.));
#1697=DIRECTION('',(0.,0.,1.));
#1698=DIRECTION('center_axis',(-1.,0.,0.));
#1699=DIRECTION('ref_axis',(0.,-1.,0.));
#1700=DIRECTION('',(0.,1.,0.));
#1701=DIRECTION('',(0.,-1.,0.));
#1702=DIRECTION('center_axis',(0.,0.,1.));
#1703=DIRECTION('ref_axis',(-1.,0.,0.));
#1704=DIRECTION('center_axis',(0.,0.,-1.));
#1705=DIRECTION('ref_axis',(-1.,0.,0.));
#1706=DIRECTION('center_axis',(0.,0.,-1.));
#1707=DIRECTION('ref_axis',(-1.,0.,0.));
#1708=DIRECTION('',(0.,0.,-1.));
#1709=DIRECTION('center_axis',(0.,0.,1.));
#1710=DIRECTION('ref_axis',(-1.,0.,0.));
#1711=DIRECTION('center_axis',(0.,0.,-1.));
#1712=DIRECTION('ref_axis',(-1.,0.,0.));
#1713=DIRECTION('',(0.,0.,-1.));
#1714=DIRECTION('center_axis',(0.,0.,1.));
#1715=DIRECTION('ref_axis',(-1.,0.,0.));
#1716=DIRECTION('center_axis',(0.,0.,-1.));
#1717=DIRECTION('ref_axis',(-1.,0.,0.));
#1718=DIRECTION('',(0.,0.,-1.));
#1719=DIRECTION('center_axis',(0.,0.,1.));
#1720=DIRECTION('ref_axis',(-1.,0.,0.));
#1721=DIRECTION('center_axis',(0.,0.,-1.));
#1722=DIRECTION('ref_axis',(-1.,0.,0.));
#1723=DIRECTION('',(0.,0.,-1.));
#1724=DIRECTION('center_axis',(0.,0.,1.));
#1725=DIRECTION('ref_axis',(-1.,0.,0.));
#1726=DIRECTION('center_axis',(0.,0.,-1.));
#1727=DIRECTION('ref_axis',(-1.,0.,0.));
#1728=DIRECTION('',(0.,0.,-1.));
#1729=DIRECTION('center_axis',(0.,0.,1.));
#1730=DIRECTION('ref_axis',(-1.,0.,0.));
#1731=DIRECTION('center_axis',(0.,0.,-1.));
#1732=DIRECTION('ref_axis',(-1.,0.,0.));
#1733=DIRECTION('',(0.,0.,-1.));
#1734=DIRECTION('center_axis',(0.,0.,1.));
#1735=DIRECTION('ref_axis',(-1.,0.,0.));
#1736=DIRECTION('center_axis',(1.,0.,0.));
#1737=DIRECTION('ref_axis',(0.,1.,0.));
#1738=DIRECTION('',(0.,-1.,0.));
#1739=DIRECTION('',(0.,0.,1.));
#1740=DIRECTION('',(0.,1.,0.));
#1741=DIRECTION('',(0.,0.,1.));
#1742=DIRECTION('center_axis',(0.,-1.,0.));
#1743=DIRECTION('ref_axis',(1.,0.,0.));
#1744=DIRECTION('',(-1.,0.,0.));
#1745=DIRECTION('',(1.,0.,0.));
#1746=DIRECTION('',(0.,0.,1.));
#1747=DIRECTION('center_axis',(-1.,0.,0.));
#1748=DIRECTION('ref_axis',(0.,-1.,0.));
#1749=DIRECTION('',(0.,1.,0.));
#1750=DIRECTION('',(0.,-1.,0.));
#1751=DIRECTION('',(0.,0.,1.));
#1752=DIRECTION('center_axis',(0.,1.,0.));
#1753=DIRECTION('ref_axis',(-1.,0.,0.));
#1754=DIRECTION('',(1.,0.,0.));
#1755=DIRECTION('',(-1.,0.,0.));
#1756=DIRECTION('center_axis',(0.,0.,1.));
#1757=DIRECTION('ref_axis',(1.,0.,0.));
#1758=DIRECTION('center_axis',(0.,0.,1.));
#1759=DIRECTION('ref_axis',(1.,0.,0.));
#1760=DIRECTION('center_axis',(4.62592916587391E-17,0.,-1.));
#1761=DIRECTION('ref_axis',(-1.,0.,-4.62592916587391E-17));
#1762=DIRECTION('',(-1.,0.,-4.62592916587391E-17));
#1763=DIRECTION('',(0.,1.,0.));
#1764=DIRECTION('',(-1.,0.,-4.62592916587391E-17));
#1765=DIRECTION('',(0.,1.,0.));
#1766=DIRECTION('center_axis',(0.,1.,0.));
#1767=DIRECTION('ref_axis',(0.,0.,-1.));
#1768=DIRECTION('center_axis',(0.,1.,0.));
#1769=DIRECTION('ref_axis',(0.,0.,-1.));
#1770=DIRECTION('',(0.,1.,0.));
#1771=DIRECTION('center_axis',(0.,1.,0.));
#1772=DIRECTION('ref_axis',(0.,0.,-1.));
#1773=DIRECTION('center_axis',(0.,0.,1.));
#1774=DIRECTION('ref_axis',(1.,0.,0.));
#1775=DIRECTION('',(1.,0.,0.));
#1776=DIRECTION('',(0.,1.,0.));
#1777=DIRECTION('',(1.,0.,0.));
#1778=DIRECTION('center_axis',(0.,1.,0.));
#1779=DIRECTION('ref_axis',(0.,0.,1.));
#1780=DIRECTION('center_axis',(0.,1.,0.));
#1781=DIRECTION('ref_axis',(0.,0.,1.));
#1782=DIRECTION('center_axis',(0.,1.,0.));
#1783=DIRECTION('ref_axis',(0.,0.,1.));
#1784=DIRECTION('center_axis',(0.,-1.,0.));
#1785=DIRECTION('ref_axis',(1.,0.,0.));
#1786=DIRECTION('center_axis',(0.,1.,0.));
#1787=DIRECTION('ref_axis',(-1.,0.,0.));
#1788=DIRECTION('center_axis',(0.,-1.,0.));
#1789=DIRECTION('ref_axis',(-0.707106781186548,0.,-0.707106781186548));
#1790=DIRECTION('',(-1.,0.,0.));
#1791=DIRECTION('center_axis',(0.,-1.,0.));
#1792=DIRECTION('ref_axis',(0.707106781186548,0.,0.707106781186548));
#1793=DIRECTION('',(-1.,0.,0.));
#1794=DIRECTION('center_axis',(0.,-1.,0.));
#1795=DIRECTION('ref_axis',(-0.707106781186548,0.,0.707106781186548));
#1796=DIRECTION('center_axis',(0.,1.,0.));
#1797=DIRECTION('ref_axis',(-0.707106781186548,0.,0.707106781186548));
#1798=DIRECTION('',(0.,1.,0.));
#1799=DIRECTION('',(0.,-1.,0.));
#1800=DIRECTION('center_axis',(0.,0.,1.));
#1801=DIRECTION('ref_axis',(1.,0.,0.));
#1802=DIRECTION('',(1.,0.,0.));
#1803=DIRECTION('',(0.,-1.,0.));
#1804=DIRECTION('center_axis',(0.,-1.,0.));
#1805=DIRECTION('ref_axis',(1.,0.,0.));
#1806=DIRECTION('',(1.,0.,0.));
#1807=DIRECTION('center_axis',(0.,1.,0.));
#1808=DIRECTION('ref_axis',(0.707106781186548,0.,0.707106781186548));
#1809=DIRECTION('center_axis',(0.,1.,0.));
#1810=DIRECTION('ref_axis',(0.707106781186548,0.,-0.707106781186548));
#1811=DIRECTION('',(0.,1.,0.));
#1812=DIRECTION('center_axis',(0.,0.,1.));
#1813=DIRECTION('ref_axis',(-1.,0.,0.));
#1814=DIRECTION('center_axis',(0.,-1.,0.));
#1815=DIRECTION('ref_axis',(1.,0.,0.));
#1816=DIRECTION('',(1.,0.,0.));
#1817=DIRECTION('',(0.,0.,1.));
#1818=DIRECTION('',(1.,0.,0.));
#1819=DIRECTION('',(0.,0.,1.));
#1820=DIRECTION('center_axis',(-1.,0.,0.));
#1821=DIRECTION('ref_axis',(0.,-1.,0.));
#1822=DIRECTION('',(0.,-1.,0.));
#1823=DIRECTION('',(0.,-1.,0.));
#1824=DIRECTION('',(0.,0.,1.));
#1825=DIRECTION('center_axis',(0.,1.,0.));
#1826=DIRECTION('ref_axis',(-1.,0.,0.));
#1827=DIRECTION('',(-1.,0.,0.));
#1828=DIRECTION('',(-1.,0.,0.));
#1829=DIRECTION('',(0.,0.,1.));
#1830=DIRECTION('center_axis',(1.,0.,0.));
#1831=DIRECTION('ref_axis',(0.,1.,0.));
#1832=DIRECTION('',(0.,1.,0.));
#1833=DIRECTION('',(0.,1.,0.));
#1834=DIRECTION('center_axis',(0.,0.,1.));
#1835=DIRECTION('ref_axis',(1.,0.,0.));
#1836=DIRECTION('center_axis',(0.,0.,1.));
#1837=DIRECTION('ref_axis',(-1.,0.,0.));
#1838=DIRECTION('center_axis',(0.,-1.,0.));
#1839=DIRECTION('ref_axis',(1.,0.,0.));
#1840=DIRECTION('',(1.,0.,0.));
#1841=DIRECTION('',(0.,0.,1.));
#1842=DIRECTION('',(1.,0.,0.));
#1843=DIRECTION('',(0.,0.,1.));
#1844=DIRECTION('center_axis',(-1.,0.,0.));
#1845=DIRECTION('ref_axis',(0.,-1.,0.));
#1846=DIRECTION('',(0.,-1.,0.));
#1847=DIRECTION('',(0.,-1.,0.));
#1848=DIRECTION('',(0.,0.,1.));
#1849=DIRECTION('center_axis',(0.,1.,0.));
#1850=DIRECTION('ref_axis',(-1.,0.,0.));
#1851=DIRECTION('',(-1.,0.,0.));
#1852=DIRECTION('',(-1.,0.,0.));
#1853=DIRECTION('',(0.,0.,1.));
#1854=DIRECTION('center_axis',(1.,0.,0.));
#1855=DIRECTION('ref_axis',(0.,1.,0.));
#1856=DIRECTION('',(0.,1.,0.));
#1857=DIRECTION('',(0.,1.,0.));
#1858=DIRECTION('center_axis',(0.,0.,1.));
#1859=DIRECTION('ref_axis',(1.,0.,0.));
#1860=DIRECTION('center_axis',(0.,0.,1.));
#1861=DIRECTION('ref_axis',(-1.,0.,0.));
#1862=DIRECTION('center_axis',(0.,-1.,0.));
#1863=DIRECTION('ref_axis',(1.,0.,0.));
#1864=DIRECTION('',(1.,0.,0.));
#1865=DIRECTION('',(0.,0.,1.));
#1866=DIRECTION('',(1.,0.,0.));
#1867=DIRECTION('',(0.,0.,1.));
#1868=DIRECTION('center_axis',(-1.,0.,0.));
#1869=DIRECTION('ref_axis',(0.,-1.,0.));
#1870=DIRECTION('',(0.,-1.,0.));
#1871=DIRECTION('',(0.,-1.,0.));
#1872=DIRECTION('',(0.,0.,1.));
#1873=DIRECTION('center_axis',(0.,1.,0.));
#1874=DIRECTION('ref_axis',(-1.,0.,0.));
#1875=DIRECTION('',(-1.,0.,0.));
#1876=DIRECTION('',(-1.,0.,0.));
#1877=DIRECTION('',(0.,0.,1.));
#1878=DIRECTION('center_axis',(1.,0.,0.));
#1879=DIRECTION('ref_axis',(0.,1.,0.));
#1880=DIRECTION('',(0.,1.,0.));
#1881=DIRECTION('',(0.,1.,0.));
#1882=DIRECTION('center_axis',(0.,0.,1.));
#1883=DIRECTION('ref_axis',(1.,0.,0.));
#1884=DIRECTION('center_axis',(0.,0.,1.));
#1885=DIRECTION('ref_axis',(-1.,0.,0.));
#1886=DIRECTION('center_axis',(0.,1.,0.));
#1887=DIRECTION('ref_axis',(-1.,0.,0.));
#1888=DIRECTION('',(-1.,0.,0.));
#1889=DIRECTION('',(0.,0.,1.));
#1890=DIRECTION('',(-1.,0.,0.));
#1891=DIRECTION('',(0.,0.,1.));
#1892=DIRECTION('center_axis',(1.,0.,0.));
#1893=DIRECTION('ref_axis',(0.,1.,0.));
#1894=DIRECTION('',(0.,1.,0.));
#1895=DIRECTION('',(0.,1.,0.));
#1896=DIRECTION('',(0.,0.,1.));
#1897=DIRECTION('center_axis',(0.,-1.,0.));
#1898=DIRECTION('ref_axis',(1.,0.,0.));
#1899=DIRECTION('',(1.,0.,0.));
#1900=DIRECTION('',(1.,0.,0.));
#1901=DIRECTION('',(0.,0.,1.));
#1902=DIRECTION('center_axis',(-1.,0.,0.));
#1903=DIRECTION('ref_axis',(0.,-1.,0.));
#1904=DIRECTION('',(0.,-1.,0.));
#1905=DIRECTION('',(0.,-1.,0.));
#1906=DIRECTION('center_axis',(0.,0.,1.));
#1907=DIRECTION('ref_axis',(1.,0.,0.));
#1908=DIRECTION('center_axis',(0.,0.,1.));
#1909=DIRECTION('ref_axis',(-1.,0.,0.));
#1910=DIRECTION('center_axis',(-1.,0.,0.));
#1911=DIRECTION('ref_axis',(0.,-1.,0.));
#1912=DIRECTION('',(0.,1.,0.));
#1913=DIRECTION('',(0.,0.,1.));
#1914=DIRECTION('',(0.,-1.,0.));
#1915=DIRECTION('',(0.,0.,1.));
#1916=DIRECTION('center_axis',(0.,1.,0.));
#1917=DIRECTION('ref_axis',(-1.,0.,0.));
#1918=DIRECTION('',(1.,0.,0.));
#1919=DIRECTION('',(-1.,0.,0.));
#1920=DIRECTION('',(0.,0.,1.));
#1921=DIRECTION('center_axis',(1.,0.,0.));
#1922=DIRECTION('ref_axis',(0.,1.,0.));
#1923=DIRECTION('',(0.,-1.,0.));
#1924=DIRECTION('',(0.,1.,0.));
#1925=DIRECTION('',(0.,0.,1.));
#1926=DIRECTION('center_axis',(0.,-1.,0.));
#1927=DIRECTION('ref_axis',(1.,0.,0.));
#1928=DIRECTION('',(-1.,0.,0.));
#1929=DIRECTION('',(1.,0.,0.));
#1930=DIRECTION('center_axis',(0.,0.,1.));
#1931=DIRECTION('ref_axis',(1.,0.,0.));
#1932=DIRECTION('center_axis',(0.,0.,1.));
#1933=DIRECTION('ref_axis',(-1.,0.,0.));
#1934=CARTESIAN_POINT('',(0.,0.,0.));
#1935=CARTESIAN_POINT('Origin',(-6.25,-12.5,1.));
#1936=CARTESIAN_POINT('',(-6.25,-10.5,1.));
#1937=CARTESIAN_POINT('',(-6.25,-12.5,1.));
#1938=CARTESIAN_POINT('',(-6.25,-6.25,1.));
#1939=CARTESIAN_POINT('',(-6.25,-10.5,1.0001));
#1940=CARTESIAN_POINT('',(-6.25,-10.5,1.));
#1941=CARTESIAN_POINT('',(-6.25,-12.5,1.0001));
#1942=CARTESIAN_POINT('',(-6.25,-10.5,1.0001));
#1943=CARTESIAN_POINT('',(-6.25,-12.5,1.));
#1944=CARTESIAN_POINT('Origin',(-8.25,-12.5,1.));
#1945=CARTESIAN_POINT('',(-8.25,-12.5,1.));
#1946=CARTESIAN_POINT('',(-4.125,-12.5,1.));
#1947=CARTESIAN_POINT('',(-8.25,-12.5,1.0001));
#1948=CARTESIAN_POINT('',(-6.25,-12.5,1.0001));
#1949=CARTESIAN_POINT('',(-8.25,-12.5,1.));
#1950=CARTESIAN_POINT('Origin',(-8.25,-10.5,1.));
#1951=CARTESIAN_POINT('',(-8.25,-10.5,1.));
#1952=CARTESIAN_POINT('',(-8.25,-5.25,1.));
#1953=CARTESIAN_POINT('',(-8.25,-10.5,1.0001));
#1954=CARTESIAN_POINT('',(-8.25,-12.5,1.0001));
#1955=CARTESIAN_POINT('',(-8.25,-10.5,1.));
#1956=CARTESIAN_POINT('Origin',(-6.25,-10.5,1.));
#1957=CARTESIAN_POINT('',(-3.125,-10.5,1.));
#1958=CARTESIAN_POINT('',(-8.25,-10.5,1.0001));
#1959=CARTESIAN_POINT('Origin',(-7.25,-11.5,1.0001));
#1960=CARTESIAN_POINT('',(-6.75,-11.5,1.0001));
#1961=CARTESIAN_POINT('Origin',(-7.25,-11.5,1.0001));
#1962=CARTESIAN_POINT('Origin',(-2.75,10.5,1.));
#1963=CARTESIAN_POINT('',(-2.75,12.5,1.));
#1964=CARTESIAN_POINT('',(-2.75,10.5,1.));
#1965=CARTESIAN_POINT('',(-2.75,5.25,1.));
#1966=CARTESIAN_POINT('',(-2.75,12.5,1.0001));
#1967=CARTESIAN_POINT('',(-2.75,12.5,1.));
#1968=CARTESIAN_POINT('',(-2.75,10.5,1.0001));
#1969=CARTESIAN_POINT('',(-2.75,12.5,1.0001));
#1970=CARTESIAN_POINT('',(-2.75,10.5,1.));
#1971=CARTESIAN_POINT('Origin',(-4.75,10.5,1.));
#1972=CARTESIAN_POINT('',(-4.75,10.5,1.));
#1973=CARTESIAN_POINT('',(-2.375,10.5,1.));
#1974=CARTESIAN_POINT('',(-4.75,10.5,1.0001));
#1975=CARTESIAN_POINT('',(-2.75,10.5,1.0001));
#1976=CARTESIAN_POINT('',(-4.75,10.5,1.));
#1977=CARTESIAN_POINT('Origin',(-4.75,12.5,1.));
#1978=CARTESIAN_POINT('',(-4.75,12.5,1.));
#1979=CARTESIAN_POINT('',(-4.75,6.25,1.));
#1980=CARTESIAN_POINT('',(-4.75,12.5,1.0001));
#1981=CARTESIAN_POINT('',(-4.75,10.5,1.0001));
#1982=CARTESIAN_POINT('',(-4.75,12.5,1.));
#1983=CARTESIAN_POINT('Origin',(-2.75,12.5,1.));
#1984=CARTESIAN_POINT('',(-1.375,12.5,1.));
#1985=CARTESIAN_POINT('',(-4.75,12.5,1.0001));
#1986=CARTESIAN_POINT('Origin',(-3.75,11.5,1.0001));
#1987=CARTESIAN_POINT('',(-3.25,11.5,1.0001));
#1988=CARTESIAN_POINT('Origin',(-3.75,11.5,1.0001));
#1989=CARTESIAN_POINT('Origin',(4.75,10.5,1.));
#1990=CARTESIAN_POINT('',(4.75,12.5,1.));
#1991=CARTESIAN_POINT('',(4.75,10.5,1.));
#1992=CARTESIAN_POINT('',(4.75,5.25,1.));
#1993=CARTESIAN_POINT('',(4.75,12.5,1.0001));
#1994=CARTESIAN_POINT('',(4.75,12.5,1.));
#1995=CARTESIAN_POINT('',(4.75,10.5,1.0001));
#1996=CARTESIAN_POINT('',(4.75,12.5,1.0001));
#1997=CARTESIAN_POINT('',(4.75,10.5,1.));
#1998=CARTESIAN_POINT('Origin',(2.75,10.5,1.));
#1999=CARTESIAN_POINT('',(2.75,10.5,1.));
#2000=CARTESIAN_POINT('',(1.375,10.5,1.));
#2001=CARTESIAN_POINT('',(2.75,10.5,1.0001));
#2002=CARTESIAN_POINT('',(4.75,10.5,1.0001));
#2003=CARTESIAN_POINT('',(2.75,10.5,1.));
#2004=CARTESIAN_POINT('Origin',(2.75,12.5,1.));
#2005=CARTESIAN_POINT('',(2.75,12.5,1.));
#2006=CARTESIAN_POINT('',(2.75,6.25,1.));
#2007=CARTESIAN_POINT('',(2.75,12.5,1.0001));
#2008=CARTESIAN_POINT('',(2.75,10.5,1.0001));
#2009=CARTESIAN_POINT('',(2.75,12.5,1.));
#2010=CARTESIAN_POINT('Origin',(4.75,12.5,1.));
#2011=CARTESIAN_POINT('',(2.375,12.5,1.));
#2012=CARTESIAN_POINT('',(2.75,12.5,1.0001));
#2013=CARTESIAN_POINT('Origin',(3.75,11.5,1.0001));
#2014=CARTESIAN_POINT('',(4.25,11.5,1.0001));
#2015=CARTESIAN_POINT('Origin',(3.75,11.5,1.0001));
#2016=CARTESIAN_POINT('Origin',(8.25,-12.5,1.));
#2017=CARTESIAN_POINT('',(8.25,-10.5,1.));
#2018=CARTESIAN_POINT('',(8.25,-12.5,1.));
#2019=CARTESIAN_POINT('',(8.25,-6.25,1.));
#2020=CARTESIAN_POINT('',(8.25,-10.5,1.0001));
#2021=CARTESIAN_POINT('',(8.25,-10.5,1.));
#2022=CARTESIAN_POINT('',(8.25,-12.5,1.0001));
#2023=CARTESIAN_POINT('',(8.25,-10.5,1.0001));
#2024=CARTESIAN_POINT('',(8.25,-12.5,1.));
#2025=CARTESIAN_POINT('Origin',(6.25,-12.5,1.));
#2026=CARTESIAN_POINT('',(6.25,-12.5,1.));
#2027=CARTESIAN_POINT('',(3.125,-12.5,1.));
#2028=CARTESIAN_POINT('',(6.25,-12.5,1.0001));
#2029=CARTESIAN_POINT('',(8.25,-12.5,1.0001));
#2030=CARTESIAN_POINT('',(6.25,-12.5,1.));
#2031=CARTESIAN_POINT('Origin',(6.25,-10.5,1.));
#2032=CARTESIAN_POINT('',(6.25,-10.5,1.));
#2033=CARTESIAN_POINT('',(6.25,-5.25,1.));
#2034=CARTESIAN_POINT('',(6.25,-10.5,1.0001));
#2035=CARTESIAN_POINT('',(6.25,-12.5,1.0001));
#2036=CARTESIAN_POINT('',(6.25,-10.5,1.));
#2037=CARTESIAN_POINT('Origin',(8.25,-10.5,1.));
#2038=CARTESIAN_POINT('',(4.125,-10.5,1.));
#2039=CARTESIAN_POINT('',(6.25,-10.5,1.0001));
#2040=CARTESIAN_POINT('Origin',(7.25,-11.5,1.0001));
#2041=CARTESIAN_POINT('',(7.75,-11.5,1.0001));
#2042=CARTESIAN_POINT('Origin',(7.25,-11.5,1.0001));
#2043=CARTESIAN_POINT('Origin',(-6.25,10.5,1.));
#2044=CARTESIAN_POINT('',(-6.25,12.5,1.));
#2045=CARTESIAN_POINT('',(-6.25,10.5,1.));
#2046=CARTESIAN_POINT('',(-6.25,5.25,1.));
#2047=CARTESIAN_POINT('',(-6.25,12.5,1.0001));
#2048=CARTESIAN_POINT('',(-6.25,12.5,1.));
#2049=CARTESIAN_POINT('',(-6.25,10.5,1.0001));
#2050=CARTESIAN_POINT('',(-6.25,12.5,1.0001));
#2051=CARTESIAN_POINT('',(-6.25,10.5,1.));
#2052=CARTESIAN_POINT('Origin',(-8.25,10.5,1.));
#2053=CARTESIAN_POINT('',(-8.25,10.5,1.));
#2054=CARTESIAN_POINT('',(-4.125,10.5,1.));
#2055=CARTESIAN_POINT('',(-8.25,10.5,1.0001));
#2056=CARTESIAN_POINT('',(-6.25,10.5,1.0001));
#2057=CARTESIAN_POINT('',(-8.25,10.5,1.));
#2058=CARTESIAN_POINT('Origin',(-8.25,12.5,1.));
#2059=CARTESIAN_POINT('',(-8.25,12.5,1.));
#2060=CARTESIAN_POINT('',(-8.25,6.25,1.));
#2061=CARTESIAN_POINT('',(-8.25,12.5,1.0001));
#2062=CARTESIAN_POINT('',(-8.25,10.5,1.0001));
#2063=CARTESIAN_POINT('',(-8.25,12.5,1.));
#2064=CARTESIAN_POINT('Origin',(-6.25,12.5,1.));
#2065=CARTESIAN_POINT('',(-3.125,12.5,1.));
#2066=CARTESIAN_POINT('',(-8.25,12.5,1.0001));
#2067=CARTESIAN_POINT('Origin',(-7.25,11.5,1.0001));
#2068=CARTESIAN_POINT('',(-6.75,11.5,1.0001));
#2069=CARTESIAN_POINT('Origin',(-7.25,11.5,1.0001));
#2070=CARTESIAN_POINT('Origin',(8.25,12.5,1.));
#2071=CARTESIAN_POINT('',(6.25,12.5,1.));
#2072=CARTESIAN_POINT('',(8.25,12.5,1.));
#2073=CARTESIAN_POINT('',(4.125,12.5,1.));
#2074=CARTESIAN_POINT('',(6.25,12.5,1.0001));
#2075=CARTESIAN_POINT('',(6.25,12.5,1.));
#2076=CARTESIAN_POINT('',(8.25,12.5,1.0001));
#2077=CARTESIAN_POINT('',(8.25,12.5,1.0001));
#2078=CARTESIAN_POINT('',(8.25,12.5,1.));
#2079=CARTESIAN_POINT('Origin',(8.25,10.5,1.));
#2080=CARTESIAN_POINT('',(8.25,10.5,1.));
#2081=CARTESIAN_POINT('',(8.25,5.25,1.));
#2082=CARTESIAN_POINT('',(8.25,10.5,1.0001));
#2083=CARTESIAN_POINT('',(8.25,10.5,1.0001));
#2084=CARTESIAN_POINT('',(8.25,10.5,1.));
#2085=CARTESIAN_POINT('Origin',(6.25,10.5,1.));
#2086=CARTESIAN_POINT('',(6.25,10.5,1.));
#2087=CARTESIAN_POINT('',(3.125,10.5,1.));
#2088=CARTESIAN_POINT('',(6.25,10.5,1.0001));
#2089=CARTESIAN_POINT('',(6.25,10.5,1.0001));
#2090=CARTESIAN_POINT('',(6.25,10.5,1.));
#2091=CARTESIAN_POINT('Origin',(6.25,12.5,1.));
#2092=CARTESIAN_POINT('',(6.25,6.25,1.));
#2093=CARTESIAN_POINT('',(6.25,12.5,1.0001));
#2094=CARTESIAN_POINT('Origin',(7.25,11.5,1.0001));
#2095=CARTESIAN_POINT('',(7.75,11.5,1.0001));
#2096=CARTESIAN_POINT('Origin',(7.25,11.5,1.0001));
#2097=CARTESIAN_POINT('Origin',(3.75,11.5,1.));
#2098=CARTESIAN_POINT('',(4.25,11.5,0.));
#2099=CARTESIAN_POINT('',(4.25,11.5,1.));
#2100=CARTESIAN_POINT('Origin',(3.75,11.5,0.));
#2101=CARTESIAN_POINT('Origin',(-7.25,-11.5,1.));
#2102=CARTESIAN_POINT('',(-6.75,-11.5,0.));
#2103=CARTESIAN_POINT('',(-6.75,-11.5,1.));
#2104=CARTESIAN_POINT('Origin',(-7.25,-11.5,0.));
#2105=CARTESIAN_POINT('Origin',(-3.75,11.5,1.));
#2106=CARTESIAN_POINT('',(-3.25,11.5,0.));
#2107=CARTESIAN_POINT('',(-3.25,11.5,1.));
#2108=CARTESIAN_POINT('Origin',(-3.75,11.5,0.));
#2109=CARTESIAN_POINT('Origin',(7.25,11.5,1.));
#2110=CARTESIAN_POINT('',(7.75,11.5,0.));
#2111=CARTESIAN_POINT('',(7.75,11.5,1.));
#2112=CARTESIAN_POINT('Origin',(7.25,11.5,0.));
#2113=CARTESIAN_POINT('Origin',(7.25,-11.5,1.));
#2114=CARTESIAN_POINT('',(7.75,-11.5,0.));
#2115=CARTESIAN_POINT('',(7.75,-11.5,1.));
#2116=CARTESIAN_POINT('Origin',(7.25,-11.5,0.));
#2117=CARTESIAN_POINT('Origin',(-7.25,11.5,1.));
#2118=CARTESIAN_POINT('',(-6.75,11.5,0.));
#2119=CARTESIAN_POINT('',(-6.75,11.5,1.));
#2120=CARTESIAN_POINT('Origin',(-7.25,11.5,0.));
#2121=CARTESIAN_POINT('Origin',(8.75,-13.,0.));
#2122=CARTESIAN_POINT('',(8.75,13.,0.));
#2123=CARTESIAN_POINT('',(8.75,-13.,0.));
#2124=CARTESIAN_POINT('',(8.75,13.,0.));
#2125=CARTESIAN_POINT('',(8.75,13.,1.));
#2126=CARTESIAN_POINT('',(8.75,13.,0.));
#2127=CARTESIAN_POINT('',(8.75,-13.,1.));
#2128=CARTESIAN_POINT('',(8.75,13.,1.));
#2129=CARTESIAN_POINT('',(8.75,-13.,0.));
#2130=CARTESIAN_POINT('Origin',(-8.75,-13.,0.));
#2131=CARTESIAN_POINT('',(-8.75,-13.,0.));
#2132=CARTESIAN_POINT('',(8.75,-13.,0.));
#2133=CARTESIAN_POINT('',(-8.75,-13.,1.));
#2134=CARTESIAN_POINT('',(8.75,-13.,1.));
#2135=CARTESIAN_POINT('',(-8.75,-13.,0.));
#2136=CARTESIAN_POINT('Origin',(-8.75,13.,0.));
#2137=CARTESIAN_POINT('',(-8.75,13.,0.));
#2138=CARTESIAN_POINT('',(-8.75,-13.,0.));
#2139=CARTESIAN_POINT('',(-8.75,13.,1.));
#2140=CARTESIAN_POINT('',(-8.75,-13.,1.));
#2141=CARTESIAN_POINT('',(-8.75,13.,0.));
#2142=CARTESIAN_POINT('Origin',(8.75,13.,0.));
#2143=CARTESIAN_POINT('',(-8.75,13.,0.));
#2144=CARTESIAN_POINT('',(-8.75,13.,1.));
#2145=CARTESIAN_POINT('Origin',(0.,0.,1.));
#2146=CARTESIAN_POINT('Origin',(0.,0.,0.));
#2147=CARTESIAN_POINT('Origin',(3.00000008195639,-14.0000002011657,1.25));
#2148=CARTESIAN_POINT('',(3.00000008195639,-14.0000002011657,1.25));
#2149=CARTESIAN_POINT('',(-3.00000005215406,-14.0000002011657,1.25));
#2150=CARTESIAN_POINT('',(-0.749999985098839,-14.0000002011657,1.25));
#2151=CARTESIAN_POINT('',(3.00000008195639,-8.75000020116568,1.25));
#2152=CARTESIAN_POINT('',(3.00000008195639,-14.0000002011657,1.25));
#2153=CARTESIAN_POINT('',(-3.00000005215406,-8.75000020116568,1.25));
#2154=CARTESIAN_POINT('',(-3.00000005215406,-8.75000020116568,1.25));
#2155=CARTESIAN_POINT('',(-3.00000005215406,-14.0000002011657,1.25));
#2156=CARTESIAN_POINT('Origin',(3.00000008195639,-14.0000002011657,2.5));
#2157=CARTESIAN_POINT('',(3.00000008195639,-14.0000002011657,3.75));
#2158=CARTESIAN_POINT('Origin',(3.00000008195639,-14.0000002011657,2.5));
#2159=CARTESIAN_POINT('',(3.00000008195639,-8.75000020116568,3.75));
#2160=CARTESIAN_POINT('',(3.00000008195639,-14.0000002011657,3.75));
#2161=CARTESIAN_POINT('Origin',(3.00000008195639,-8.75000020116568,2.5));
#2162=CARTESIAN_POINT('Origin',(-3.00000005215406,-14.0000002011657,3.75));
#2163=CARTESIAN_POINT('',(-3.00000005215406,-14.0000002011657,3.75));
#2164=CARTESIAN_POINT('',(-3.75000005215406,-14.0000002011657,3.75));
#2165=CARTESIAN_POINT('',(-3.00000005215406,-8.75000020116568,3.75));
#2166=CARTESIAN_POINT('',(-3.00000005215406,-14.0000002011657,3.75));
#2167=CARTESIAN_POINT('',(3.00000008195639,-8.75000020116568,3.75));
#2168=CARTESIAN_POINT('Origin',(-3.00000005215406,-14.0000002011657,2.5));
#2169=CARTESIAN_POINT('Origin',(-3.00000005215406,-14.0000002011657,2.5));
#2170=CARTESIAN_POINT('Origin',(-3.00000005215406,-8.75000020116568,2.5));
#2171=CARTESIAN_POINT('Origin',(1.49011614158923E-8,-8.75000020116568,2.5));
#2172=CARTESIAN_POINT('Origin',(4.50000008195639,-8.00000011175871,1.));
#2173=CARTESIAN_POINT('',(-3.00000005215406,-8.00000011175871,4.));
#2174=CARTESIAN_POINT('',(-3.00000005215406,-8.00000011175871,1.));
#2175=CARTESIAN_POINT('Origin',(-3.00000005215406,-8.00000011175871,2.5));
#2176=CARTESIAN_POINT('',(3.00000008195639,-8.00000011175871,4.));
#2177=CARTESIAN_POINT('',(4.50000008195639,-8.00000011175871,4.));
#2178=CARTESIAN_POINT('',(3.00000008195639,-8.00000011175871,1.));
#2179=CARTESIAN_POINT('Origin',(3.00000008195639,-8.00000011175871,2.5));
#2180=CARTESIAN_POINT('',(4.50000008195639,-8.00000011175871,1.));
#2181=CARTESIAN_POINT('Origin',(-3.00000005215406,-9.50000013411045,2.5));
#2182=CARTESIAN_POINT('',(-3.00000005215406,-14.0000002011657,1.));
#2183=CARTESIAN_POINT('',(-3.00000005215406,-14.0000002011657,4.));
#2184=CARTESIAN_POINT('Origin',(-3.00000005215406,-14.0000002011657,2.5));
#2185=CARTESIAN_POINT('',(-3.00000005215406,-9.50000013411045,4.));
#2186=CARTESIAN_POINT('',(-3.00000005215406,-9.50000013411045,1.));
#2187=CARTESIAN_POINT('Origin',(1.49011614158923E-8,-11.0000001564622,4.));
#2188=CARTESIAN_POINT('',(3.00000008195639,-14.0000002011657,4.));
#2189=CARTESIAN_POINT('',(-4.50000005215406,-14.0000002011657,4.));
#2190=CARTESIAN_POINT('',(3.00000008195639,-12.5000001788139,4.));
#2191=CARTESIAN_POINT('Origin',(-4.50000005215406,-14.0000002011657,1.));
#2192=CARTESIAN_POINT('',(3.00000008195639,-14.0000002011657,1.));
#2193=CARTESIAN_POINT('',(-4.50000005215406,-14.0000002011657,1.));
#2194=CARTESIAN_POINT('Origin',(3.00000008195639,-14.0000002011657,2.5));
#2195=CARTESIAN_POINT('Origin',(3.00000008195639,-12.5000001788139,2.5));
#2196=CARTESIAN_POINT('',(3.00000008195639,-12.5000001788139,1.));
#2197=CARTESIAN_POINT('Origin',(1.49011614158923E-8,-11.0000001564622,1.));
#2198=CARTESIAN_POINT('Origin',(-1.05,-2.6,1.));
#2199=CARTESIAN_POINT('',(-1.05,-2.6,1.));
#2200=CARTESIAN_POINT('',(2.75,-2.6,1.));
#2201=CARTESIAN_POINT('',(-1.05,-2.6,1.));
#2202=CARTESIAN_POINT('',(2.75,-2.6,2.25));
#2203=CARTESIAN_POINT('',(2.75,-2.6,1.));
#2204=CARTESIAN_POINT('',(-1.05,-2.6,2.25));
#2205=CARTESIAN_POINT('',(-1.05,-2.6,2.25));
#2206=CARTESIAN_POINT('',(-1.05,-2.6,1.));
#2207=CARTESIAN_POINT('Origin',(-1.05,2.,1.));
#2208=CARTESIAN_POINT('',(-1.05,2.,1.));
#2209=CARTESIAN_POINT('',(-1.05,2.,1.));
#2210=CARTESIAN_POINT('',(-1.05,2.,2.25));
#2211=CARTESIAN_POINT('',(-1.05,2.,2.25));
#2212=CARTESIAN_POINT('',(-1.05,2.,1.));
#2213=CARTESIAN_POINT('Origin',(2.75,2.,1.));
#2214=CARTESIAN_POINT('',(2.75,2.,1.));
#2215=CARTESIAN_POINT('',(2.75,2.,1.));
#2216=CARTESIAN_POINT('',(2.75,2.,2.25));
#2217=CARTESIAN_POINT('',(2.75,2.,2.25));
#2218=CARTESIAN_POINT('',(2.75,2.,1.));
#2219=CARTESIAN_POINT('Origin',(2.75,-2.6,1.));
#2220=CARTESIAN_POINT('',(2.75,-2.6,1.));
#2221=CARTESIAN_POINT('',(2.75,-2.6,2.25));
#2222=CARTESIAN_POINT('Origin',(0.85,-0.3,2.25));
#2223=CARTESIAN_POINT('Origin',(0.85,-0.3,1.));
#2224=CARTESIAN_POINT('Origin',(0.192505032242801,5.69958920428327,1.));
#2225=CARTESIAN_POINT('',(0.192505032242801,5.69958920428327,1.));
#2226=CARTESIAN_POINT('',(4.4925050322428,5.69958920428327,1.));
#2227=CARTESIAN_POINT('',(0.192505032242801,5.69958920428327,1.));
#2228=CARTESIAN_POINT('',(4.4925050322428,5.69958920428327,2.25));
#2229=CARTESIAN_POINT('',(4.4925050322428,5.69958920428327,1.));
#2230=CARTESIAN_POINT('',(0.192505032242801,5.69958920428327,2.25));
#2231=CARTESIAN_POINT('',(0.192505032242801,5.69958920428327,2.25));
#2232=CARTESIAN_POINT('',(0.192505032242801,5.69958920428327,1.));
#2233=CARTESIAN_POINT('Origin',(0.192505032242801,8.69958920428327,1.));
#2234=CARTESIAN_POINT('',(0.192505032242801,8.69958920428327,1.));
#2235=CARTESIAN_POINT('',(0.192505032242801,8.69958920428327,1.));
#2236=CARTESIAN_POINT('',(0.192505032242801,8.69958920428327,2.25));
#2237=CARTESIAN_POINT('',(0.192505032242801,8.69958920428327,2.25));
#2238=CARTESIAN_POINT('',(0.192505032242801,8.69958920428327,1.));
#2239=CARTESIAN_POINT('Origin',(4.4925050322428,8.69958920428327,1.));
#2240=CARTESIAN_POINT('',(4.4925050322428,8.69958920428327,1.));
#2241=CARTESIAN_POINT('',(4.4925050322428,8.69958920428327,1.));
#2242=CARTESIAN_POINT('',(4.4925050322428,8.69958920428327,2.25));
#2243=CARTESIAN_POINT('',(4.4925050322428,8.69958920428327,2.25));
#2244=CARTESIAN_POINT('',(4.4925050322428,8.69958920428327,1.));
#2245=CARTESIAN_POINT('Origin',(4.4925050322428,5.69958920428327,1.));
#2246=CARTESIAN_POINT('',(4.4925050322428,5.69958920428327,1.));
#2247=CARTESIAN_POINT('',(4.4925050322428,5.69958920428327,2.25));
#2248=CARTESIAN_POINT('Origin',(2.3425050322428,7.19958920428327,2.25));
#2249=CARTESIAN_POINT('Origin',(2.3425050322428,7.19958920428327,1.));
#2250=CARTESIAN_POINT('Origin',(-4.8074949677572,6.00000008940697,1.));
#2251=CARTESIAN_POINT('',(-4.8074949677572,6.00000008940697,1.));
#2252=CARTESIAN_POINT('',(-2.8074949677572,6.00000008940697,1.));
#2253=CARTESIAN_POINT('',(-4.8074949677572,6.00000008940697,1.));
#2254=CARTESIAN_POINT('',(-2.8074949677572,6.00000008940697,2.25));
#2255=CARTESIAN_POINT('',(-2.8074949677572,6.00000008940697,1.));
#2256=CARTESIAN_POINT('',(-4.8074949677572,6.00000008940697,2.25));
#2257=CARTESIAN_POINT('',(-4.8074949677572,6.00000008940697,2.25));
#2258=CARTESIAN_POINT('',(-4.8074949677572,6.00000008940697,1.));
#2259=CARTESIAN_POINT('Origin',(-4.8074949677572,8.69958920428327,1.));
#2260=CARTESIAN_POINT('',(-4.8074949677572,8.69958920428327,1.));
#2261=CARTESIAN_POINT('',(-4.8074949677572,8.69958920428327,1.));
#2262=CARTESIAN_POINT('',(-4.8074949677572,8.69958920428327,2.25));
#2263=CARTESIAN_POINT('',(-4.8074949677572,8.69958920428327,2.25));
#2264=CARTESIAN_POINT('',(-4.8074949677572,8.69958920428327,1.));
#2265=CARTESIAN_POINT('Origin',(-2.8074949677572,8.69958920428327,1.));
#2266=CARTESIAN_POINT('',(-2.8074949677572,8.69958920428327,1.));
#2267=CARTESIAN_POINT('',(-2.8074949677572,8.69958920428327,1.));
#2268=CARTESIAN_POINT('',(-2.8074949677572,8.69958920428327,2.25));
#2269=CARTESIAN_POINT('',(-2.8074949677572,8.69958920428327,2.25));
#2270=CARTESIAN_POINT('',(-2.8074949677572,8.69958920428327,1.));
#2271=CARTESIAN_POINT('Origin',(-2.8074949677572,6.00000008940697,1.));
#2272=CARTESIAN_POINT('',(-2.8074949677572,6.00000008940697,1.));
#2273=CARTESIAN_POINT('',(-2.8074949677572,6.00000008940697,2.25));
#2274=CARTESIAN_POINT('Origin',(-3.8074949677572,7.34979464684512,2.25));
#2275=CARTESIAN_POINT('Origin',(-3.8074949677572,7.34979464684512,1.));
#2276=CARTESIAN_POINT('Origin',(-7.00000011920929,1.,1.));
#2277=CARTESIAN_POINT('',(-7.00000011920929,1.,1.));
#2278=CARTESIAN_POINT('',(-8.00000011920929,1.,1.));
#2279=CARTESIAN_POINT('',(-7.00000011920929,1.,1.));
#2280=CARTESIAN_POINT('',(-8.00000011920929,1.,1.5));
#2281=CARTESIAN_POINT('',(-8.00000011920929,1.,1.));
#2282=CARTESIAN_POINT('',(-7.00000011920929,1.,1.5));
#2283=CARTESIAN_POINT('',(-7.00000011920929,1.,1.5));
#2284=CARTESIAN_POINT('',(-7.00000011920929,1.,1.));
#2285=CARTESIAN_POINT('Origin',(-7.00000011920929,-1.,1.));
#2286=CARTESIAN_POINT('',(-7.00000011920929,-1.,1.));
#2287=CARTESIAN_POINT('',(-7.00000011920929,-1.,1.));
#2288=CARTESIAN_POINT('',(-7.00000011920929,-1.,1.5));
#2289=CARTESIAN_POINT('',(-7.00000011920929,-1.,1.5));
#2290=CARTESIAN_POINT('',(-7.00000011920929,-1.,1.));
#2291=CARTESIAN_POINT('Origin',(-8.00000011920929,-1.,1.));
#2292=CARTESIAN_POINT('',(-8.00000011920929,-1.,1.));
#2293=CARTESIAN_POINT('',(-8.00000011920929,-1.,1.));
#2294=CARTESIAN_POINT('',(-8.00000011920929,-1.,1.5));
#2295=CARTESIAN_POINT('',(-8.00000011920929,-1.,1.5));
#2296=CARTESIAN_POINT('',(-8.00000011920929,-1.,1.));
#2297=CARTESIAN_POINT('Origin',(-8.00000011920929,1.,1.));
#2298=CARTESIAN_POINT('',(-8.00000011920929,1.,1.));
#2299=CARTESIAN_POINT('',(-8.00000011920929,1.,1.5));
#2300=CARTESIAN_POINT('Origin',(-7.50000011920929,-5.55111512312578E-16,
1.5));
#2301=CARTESIAN_POINT('Origin',(-7.50000011920929,-5.55111512312578E-16,
1.));
#2302=CARTESIAN_POINT('Origin',(-8.00000011920929,-3.,1.));
#2303=CARTESIAN_POINT('',(-8.00000011920929,-5.,1.));
#2304=CARTESIAN_POINT('',(-8.00000011920929,-3.,1.));
#2305=CARTESIAN_POINT('',(-8.00000011920929,-5.,1.));
#2306=CARTESIAN_POINT('',(-8.00000011920929,-5.,1.5));
#2307=CARTESIAN_POINT('',(-8.00000011920929,-5.,1.));
#2308=CARTESIAN_POINT('',(-8.00000011920929,-3.,1.5));
#2309=CARTESIAN_POINT('',(-8.00000011920929,-5.,1.5));
#2310=CARTESIAN_POINT('',(-8.00000011920929,-3.,1.));
#2311=CARTESIAN_POINT('Origin',(-7.00000011920929,-3.,1.));
#2312=CARTESIAN_POINT('',(-7.00000011920929,-3.,1.));
#2313=CARTESIAN_POINT('',(-8.00000011920929,-3.,1.));
#2314=CARTESIAN_POINT('',(-7.00000011920929,-3.,1.5));
#2315=CARTESIAN_POINT('',(-8.00000011920929,-3.,1.5));
#2316=CARTESIAN_POINT('',(-7.00000011920929,-3.,1.));
#2317=CARTESIAN_POINT('Origin',(-7.00000011920929,-5.,1.));
#2318=CARTESIAN_POINT('',(-7.00000011920929,-5.,1.));
#2319=CARTESIAN_POINT('',(-7.00000011920929,-3.,1.));
#2320=CARTESIAN_POINT('',(-7.00000011920929,-5.,1.5));
#2321=CARTESIAN_POINT('',(-7.00000011920929,-3.,1.5));
#2322=CARTESIAN_POINT('',(-7.00000011920929,-5.,1.));
#2323=CARTESIAN_POINT('Origin',(-8.00000011920929,-5.,1.));
#2324=CARTESIAN_POINT('',(-7.00000011920929,-5.,1.));
#2325=CARTESIAN_POINT('',(-7.00000011920929,-5.,1.5));
#2326=CARTESIAN_POINT('Origin',(-7.50000011920929,-4.,1.5));
#2327=CARTESIAN_POINT('Origin',(-7.50000011920929,-4.,1.));
#2328=UNCERTAINTY_MEASURE_WITH_UNIT(LENGTH_MEASURE(0.01),#2332,
'DISTANCE_ACCURACY_VALUE',
'Maximum model space distance between geometric entities at asserted c
onnectivities');
#2329=UNCERTAINTY_MEASURE_WITH_UNIT(LENGTH_MEASURE(0.01),#2332,
'DISTANCE_ACCURACY_VALUE',
'Maximum model space distance between geometric entities at asserted c
onnectivities');
#2330=(
GEOMETRIC_REPRESENTATION_CONTEXT(3)
GLOBAL_UNCERTAINTY_ASSIGNED_CONTEXT((#2328))
GLOBAL_UNIT_ASSIGNED_CONTEXT((#2332,#2334,#2335))
REPRESENTATION_CONTEXT('','3D')
);
#2331=(
GEOMETRIC_REPRESENTATION_CONTEXT(3)
GLOBAL_UNCERTAINTY_ASSIGNED_CONTEXT((#2329))
GLOBAL_UNIT_ASSIGNED_CONTEXT((#2332,#2334,#2335))
REPRESENTATION_CONTEXT('','3D')
);
#2332=(
LENGTH_UNIT()
NAMED_UNIT(*)
SI_UNIT(.MILLI.,.METRE.)
);
#2333=(
LENGTH_UNIT()
NAMED_UNIT(*)
SI_UNIT($,.METRE.)
);
#2334=(
NAMED_UNIT(*)
PLANE_ANGLE_UNIT()
SI_UNIT($,.RADIAN.)
);
#2335=(
NAMED_UNIT(*)
SI_UNIT($,.STERADIAN.)
SOLID_ANGLE_UNIT()
);
#2336=SHAPE_DEFINITION_REPRESENTATION(#2337,#2338);
#2337=PRODUCT_DEFINITION_SHAPE('',$,#2340);
#2338=SHAPE_REPRESENTATION('',(#1456),#2330);
#2339=PRODUCT_DEFINITION_CONTEXT('part definition',#2344,'design');
#2340=PRODUCT_DEFINITION('(Unsaved)','(Unsaved)',#2341,#2339);
#2341=PRODUCT_DEFINITION_FORMATION('',$,#2346);
#2342=PRODUCT_RELATED_PRODUCT_CATEGORY('(Unsaved)','(Unsaved)',(#2346));
#2343=APPLICATION_PROTOCOL_DEFINITION('international standard',
'automotive_design',2009,#2344);
#2344=APPLICATION_CONTEXT(
'Core Data for Automotive Mechanical Design Process');
#2345=PRODUCT_CONTEXT('part definition',#2344,'mechanical');
#2346=PRODUCT('(Unsaved)','(Unsaved)',$,(#2345));
#2347=PRESENTATION_STYLE_ASSIGNMENT((#2354));
#2348=PRESENTATION_STYLE_ASSIGNMENT((#2355));
#2349=PRESENTATION_STYLE_ASSIGNMENT((#2356));
#2350=PRESENTATION_STYLE_ASSIGNMENT((#2357));
#2351=PRESENTATION_STYLE_ASSIGNMENT((#2358));
#2352=PRESENTATION_STYLE_ASSIGNMENT((#2359));
#2353=PRESENTATION_STYLE_ASSIGNMENT((#2360));
#2354=SURFACE_STYLE_USAGE(.BOTH.,#2361);
#2355=SURFACE_STYLE_USAGE(.BOTH.,#2362);
#2356=SURFACE_STYLE_USAGE(.BOTH.,#2363);
#2357=SURFACE_STYLE_USAGE(.BOTH.,#2364);
#2358=SURFACE_STYLE_USAGE(.BOTH.,#2365);
#2359=SURFACE_STYLE_USAGE(.BOTH.,#2366);
#2360=SURFACE_STYLE_USAGE(.BOTH.,#2367);
#2361=SURFACE_SIDE_STYLE('',(#2368));
#2362=SURFACE_SIDE_STYLE('',(#2369));
#2363=SURFACE_SIDE_STYLE('',(#2370));
#2364=SURFACE_SIDE_STYLE('',(#2371));
#2365=SURFACE_SIDE_STYLE('',(#2372));
#2366=SURFACE_SIDE_STYLE('',(#2373));
#2367=SURFACE_SIDE_STYLE('',(#2374));
#2368=SURFACE_STYLE_FILL_AREA(#2375);
#2369=SURFACE_STYLE_FILL_AREA(#2376);
#2370=SURFACE_STYLE_FILL_AREA(#2377);
#2371=SURFACE_STYLE_FILL_AREA(#2378);
#2372=SURFACE_STYLE_FILL_AREA(#2379);
#2373=SURFACE_STYLE_FILL_AREA(#2380);
#2374=SURFACE_STYLE_FILL_AREA(#2381);
#2375=FILL_AREA_STYLE('Steel - Satin',(#2382));
#2376=FILL_AREA_STYLE('FR4',(#2383));
#2377=FILL_AREA_STYLE('Silver - Satin',(#2384));
#2378=FILL_AREA_STYLE('Stainless Steel - Satin',(#2385));
#2379=FILL_AREA_STYLE('Plastic - Matte (Black)',(#2386));
#2380=FILL_AREA_STYLE('LED (Blue)',(#2387));
#2381=FILL_AREA_STYLE('LED (Red)',(#2388));
#2382=FILL_AREA_STYLE_COLOUR('Steel - Satin',#2389);
#2383=FILL_AREA_STYLE_COLOUR('FR4',#2390);
#2384=FILL_AREA_STYLE_COLOUR('Silver - Satin',#2391);
#2385=FILL_AREA_STYLE_COLOUR('Stainless Steel - Satin',#2392);
#2386=FILL_AREA_STYLE_COLOUR('Plastic - Matte (Black)',#2393);
#2387=FILL_AREA_STYLE_COLOUR('LED (Blue)',#2394);
#2388=FILL_AREA_STYLE_COLOUR('LED (Red)',#2395);
#2389=COLOUR_RGB('Steel - Satin',0.627450980392157,0.627450980392157,0.627450980392157);
#2390=COLOUR_RGB('FR4',0.266666666666667,0.466666666666667,0.4);
#2391=COLOUR_RGB('Silver - Satin',0.984313725490196,0.980392156862745,0.96078431372549);
#2392=COLOUR_RGB('Stainless Steel - Satin',0.796078431372549,0.796078431372549,
0.796078431372549);
#2393=COLOUR_RGB('Plastic - Matte (Black)',0.0980392156862745,0.0980392156862745,
0.0980392156862745);
#2394=COLOUR_RGB('LED (Blue)',0.188235294117647,0.231372549019608,0.588235294117647);
#2395=COLOUR_RGB('LED (Red)',0.768627450980392,0.207843137254902,0.152941176470588);
ENDSEC;
END-ISO-10303-21;
